<?xml version="1.0" encoding="UTF-8"?>
<svg id="Layer_1" xmlns="http://www.w3.org/2000/svg" version="1.1" viewBox="0 0 1024 1024">
  <!-- Generator: Adobe Illustrator 30.1.0, SVG Export Plug-In . SVG Version: 2.1.1 Build 136)  -->
  <defs>
    <style>
      .st0 {
        fill: #010101;
      }

      .st1 {
        fill: #fdfdfd;
      }
    </style>
  </defs>
  <path class="st0" d="M610.9,993.2c-39.6,6.6-77.3,8.4-116.5,10.1-46.7,2.1-91.9-2.9-136.7-16.4-93.5-28.2-145.8-49-214.9-118.5l-21.4-21.5c-11.2-11.3-20-23.8-27.9-37.7-15.9-27.8-29.5-55.6-42-85-10.8-25.3-20.7-49.7-29.2-76-10.1-31.5-14.8-62.8-14.7-96.1.2-65.8,17.5-145.1,38.1-207.7,17.4-53,57.6-123.4,94-165.7,53-61.6,113-92.8,186.6-123.9,18.2-7.7,36-13.4,55.4-17.2,31.2-6.1,61.5-10.8,93.2-14.4,76.9-8.6,136.9,1.4,208.2,30,30,12,58.3,25.2,86.5,40.6,33.5,18.3,63.3,40.7,90.5,67.6,33.2,32.8,61.4,68.9,84.3,109.6,15.6,27.7,27.4,56.2,38.9,85.7,11.5,29.5,24.1,65.8,27.7,97.2,3.2,27.9,6,55,5.3,83.4-.9,38.6-4.7,76-12.2,113.7-5.6,28.3-14.6,54.3-25.3,81-18.8,47-46.8,89.2-80.7,126.5-12.6,13.8-24.9,25.3-40.1,36.1l-33.8,24c-57.1,40.6-144.2,60.3-213.2,74.6h0ZM555.2,395.6c9.7-7.2,18.4-14.4,28.8-20.6,28.6-17.1,79.8-51.1,100.4-76.2,16.8-20.5,30.9-42.2,44.8-64.6,2.7-4.5,4.4-9.2,5.7-14.4-14.4,8.1-43.3,31.4-57.4,18.2-14.2-13.2-31-22.4-48.4-31.1-46.1-23-82.8-37-135.6-33.8-35.9,2.2-69.9,11.2-100.4,30.4-17.7,11.2-33.3,28.2-47.8,35.4-5.2,2.6-10.3,2.5-15.7.6-12.9-4.5-24.8-9.7-36.9-16.2,8.3,26.4,14.3,42.7,33.7,63.4,33.8,36.3,73.3,65.6,116.5,89.8,10.1,5.7,18.3,11.9,26,20.4,7.7-7.9,16.6-12.2,26.5-14.6,21.8-5.3,42.6-3.2,59.9,13.4h0ZM275.6,464c2.1,41,.2,79.9-5.6,119.8-9.4,65.4-21.1,89.8-46.3,151.7,11.9-5.6,22.6-11.3,32.5-18.9l30.1-23c4.7-3.6,12.4-5.4,16.6-.7,7.6,8.5,11.9,18.9,17.9,28.4,7.3,11.5,13.5,22.9,18.7,35.5,3.2,7.7,7,14.9,11.5,21.8,9.2-6.1,16.2-13.5,24.5-20.1,10.1-8.1,17.9-17,25.9-26.9,5.2-6.4,15.6-9.1,21.4-3.1s10,13.9,14.3,21.7l47.2,85.7c7.9,14.4,15.6,27.8,26,40.5,5.7-12.1,12.1-22.4,19.5-32.8,11.4-16.2,21.5-32.1,32.1-49l37.3-59.4c5-7.9,13.8-9.6,21.3-4.3,20.4,14.5,32.2,26.8,52.3,43.1,19.4-25.6,34.8-53,48.6-81.6,2.7-5.7,11.2-4.8,16.2-3.8,4.7.9,7.8,5.4,10.4,10.3,4.5,8.5,12.1,14,19.6,19.8,11.1,8.7,21.4,17.2,34.1,24.6-3.9-14.9-9.4-28.2-15.8-42.1-30.5-65.7-34.1-113.5-37.4-185.1-1.5-31.4,0-61,1.9-92.4,2-33.7-8.7-88-31.2-115.7-8,7.3-14.5,15.1-21.6,23.3-5.8,6.7-12.9,11.4-19.8,17.5,31.5,35.8,13,93.8-27,113.4-16.6,8.1-34.4,7-53.1,4.9,3.9,12.9,6.1,25.4,7.4,38.7,18.1,6,35.3,13,50.3,24.7,6,4.7,9.3,11.2,9,18.4-.5,12.2-12.1,19.1-23,23.9-19.7,8.7-36.3,21.2-50.9,36.9-6.4,6.9-11.7,13.5-16.4,21.8-9.2,16.3-16.1,33-23.6,50.2-6.2,14.1-12.2,27.2-17.5,41.7-2,5.4-5.9,11.6-11.2,13.9-13,5.9-27.3-1.5-32-14.8-8-22.8-17.4-43.8-27.5-65.6-6-13-11.6-25.4-19.9-37-2.9-4.1-6.6-7-10-10.8-31-34.4-55.9-34-68.1-48.3-9-10.6-5.8-24.6,5.7-32.2,14.8-9.9,31.4-16.3,48.7-22.9,1.6-13.2,3.1-26,7-39.3-32.3,5.8-63.2-6.3-82-31.7-19.8-26.7-17.5-58.6,1.8-85l-20.4-18.6c-7.4-6.8-12.7-14.9-21-21.5-7.8,13.9-13.1,27.9-15.7,43l-11.6,65.7c-2.6,15-2.1,29.4-1.2,45.5h0ZM435.1,425.3c3.8-3.6,8.3-4.1,12-8.3-9.2-3.9-16.7-8.2-24.6-13.2l-48.3-30.5c-5.3,10.4-8.1,23.1-3.5,34.2,9.1,21.9,44.9,35.9,64.3,17.9ZM614.2,432.7c22.2-.7,39.7-17.9,41-39.8.4-7.1-2.9-13.9-6.6-19.6-13.8,9.9-26.4,17.9-40.1,26.2-10.3,6.2-19.5,12.9-31.2,18,4.3,9.2,27.2,15.5,36.9,15.2h0ZM511.9,683.2c9.7-22.5,18.1-43.8,29.4-64.8,10.6-19.7,25.5-35.5,42.2-50.1,9.3-8.1,18.7-14.4,30-20.5-18-9.4-38.8-9-41.5-33.8-3.1-29.2-12.8-57.1-29.5-81-5.7-8.2-12.8-14.2-21.7-17.7-34.8-13.8-63.6,60.9-65,75.6l-3.2,33.1c-.7,7.1-5.5,16.2-12.4,16.2h-10.7c-6.3,0-12.1,4.3-18.9,7.6,17,8.8,31.1,19.6,43.8,33.2,13.3,13.1,23.7,27.5,32,44.4,9.3,19,17.4,37.7,25.6,57.9h0ZM224.5,736.3c0-.3-.3-.6-.6-.6s-.6.3-.6.6.3.6.6.6.6-.3.6-.6Z"/>
  <g>
    <g>
      <path class="st1" d="M435.1,425.3c-19.4,18-55.2,4.1-64.3-17.9-4.6-11.1-1.8-23.8,3.5-34.2l48.3,30.5c7.9,5,15.4,9.3,24.6,13.2-3.8,4.2-8.2,4.8-12,8.3h0Z"/>
      <path class="st1" d="M614.2,432.7c-9.7.3-32.6-6.1-36.9-15.2,11.7-5,20.9-11.7,31.2-18,13.7-8.3,26.3-16.2,40.1-26.2,3.7,5.6,7.1,12.5,6.6,19.6-1.3,21.9-18.8,39.1-41,39.8h0Z"/>
      <path class="st1" d="M555.2,395.6c-17.3-16.6-38.1-18.7-59.9-13.4-10,2.4-18.8,6.8-26.5,14.6-7.7-8.5-15.9-14.7-26-20.4-43.2-24.2-82.7-53.5-116.5-89.8-19.3-20.8-25.4-37-33.7-63.4,12.1,6.6,24.1,11.8,36.9,16.2,5.4,1.9,10.5,2,15.7-.6,14.4-7.1,30-24.1,47.8-35.4,30.4-19.3,64.5-28.2,100.4-30.4,52.8-3.3,89.4,10.8,135.6,33.8,17.5,8.7,34.1,17.7,48.4,31.1,14.4,13.4,43.1-10.1,57.4-18.2-1.3,5.2-2.9,10-5.7,14.4-13.8,22.5-28,44.2-44.8,64.6-20.6,25.1-71.8,59.1-100.4,76.2-10.4,6.2-19.1,13.5-28.8,20.6h0Z"/>
    </g>
    <g>
      <path class="st1" d="M275.6,464c-.8-16.1-1.4-30.5,1.2-45.5l11.6-65.7c2.7-15.1,7.9-29,15.7-43,8.4,6.7,13.6,14.8,21,21.5l20.4,18.6c-19.3,26.4-21.6,58.4-1.8,85,18.9,25.4,49.7,37.6,82,31.7-3.9,13.3-5.5,26.1-7,39.3-17.3,6.6-33.9,13-48.7,22.9-11.4,7.7-14.6,21.6-5.7,32.2,12.1,14.3,37.1,13.9,68.1,48.3,3.4,3.7,7.1,6.7,10,10.8,8.3,11.6,13.9,24,19.9,37,10.2,21.8,19.5,42.9,27.5,65.6,4.7,13.3,19,20.7,32,14.8,5.3-2.4,9.2-8.6,11.2-13.9,5.3-14.5,11.3-27.6,17.5-41.7,7.5-17.2,14.4-34,23.6-50.2,4.7-8.3,10-14.9,16.4-21.8,14.6-15.7,31.2-28.2,50.9-36.9,10.9-4.8,22.5-11.7,23-23.9.3-7.2-3-13.7-9-18.4-15-11.6-32.2-18.6-50.3-24.7-1.3-13.3-3.5-25.8-7.4-38.7,18.7,2.1,36.5,3.2,53.1-4.9,40.1-19.6,58.5-77.6,27-113.4,6.9-6.1,14-10.9,19.8-17.5,7.1-8.2,13.7-16,21.6-23.3,22.5,27.7,33.1,82,31.2,115.7-1.8,31.4-3.3,61-1.9,92.4,3.3,71.6,6.9,119.4,37.4,185.1,6.5,13.9,11.9,27.3,15.8,42.1-12.7-7.4-23-15.9-34.1-24.6-7.4-5.8-15.1-11.3-19.6-19.8-2.6-5-5.7-9.4-10.4-10.3-5-1-13.5-1.8-16.2,3.8-13.8,28.6-29.3,56-48.6,81.6-20.1-16.2-32-28.6-52.3-43.1-7.5-5.3-16.3-3.6-21.3,4.3l-37.3,59.4c-10.6,16.8-20.7,32.7-32.1,49-7.4,10.4-13.7,20.7-19.5,32.8-10.4-12.7-18.1-26.2-26-40.5l-47.2-85.7c-4.3-7.8-8.2-15.4-14.3-21.7-6.1-6.3-16.2-3.3-21.4,3.1-8,9.9-15.8,18.8-25.9,26.9-8.2,6.6-15.2,13.9-24.5,20.1-4.5-6.9-8.3-14.2-11.5-21.8-5.2-12.6-11.4-24-18.7-35.5-6-9.5-10.3-19.9-17.9-28.4-4.3-4.7-12-2.9-16.6.7l-30.1,23c-9.9,7.5-20.6,13.3-32.5,18.9,25.2-61.9,36.9-86.3,46.3-151.7,5.7-39.9,7.7-78.7,5.6-119.8h0Z"/>
      <path class="st1" d="M511.9,683.2c-8.2-20.2-16.2-38.9-25.6-57.9-8.2-16.8-18.7-31.3-32-44.4-12.7-13.5-26.8-24.4-43.8-33.2,6.8-3.3,12.5-7.7,18.9-7.6h10.7c6.9,0,11.7-9,12.4-16.1l3.2-33.1c1.4-14.7,30.2-89.4,65-75.6,8.9,3.5,16,9.5,21.7,17.7,16.7,23.9,26.4,51.8,29.5,81,2.7,24.8,23.5,24.4,41.5,33.8-11.3,6.1-20.7,12.4-30,20.5-16.7,14.6-31.7,30.3-42.2,50.1-11.3,21.1-19.6,42.4-29.4,64.8h0Z"/>
    </g>
  </g>
  <circle class="st1" cx="223.9" cy="736.3" r=".6"/>
</svg>