<?xml version="1.0" encoding="UTF-8" standalone="no"?>
<!DOCTYPE svg PUBLIC "-//W3C//DTD SVG 1.1//EN" "http://www.w3.org/Graphics/SVG/1.1/DTD/svg11.dtd">
<svg xmlns="http://www.w3.org/2000/svg" version="1.1" viewBox="0.00 0.00 400.00 400.00">
<g stroke-width="2.00" fill="none" stroke-linecap="butt">
<path stroke="#808080" vector-effect="non-scaling-stroke" d="
  M 200.23 134.10
  Q 209.32 134.10 217.68 139.96
  A 1.63 1.62 48.7 0 0 219.35 140.07
  Q 258.77 119.67 287.04 85.30
  Q 297.61 72.45 303.41 57.32
  A 0.28 0.28 0.0 0 0 302.93 57.06
  C 297.28 64.82 288.67 71.90 278.98 73.76
  A 2.57 2.54 -27.7 0 1 276.70 73.06
  Q 249.05 45.35 209.74 41.61
  Q 203.42 41.01 200.24 41.01
  Q 197.07 41.01 190.75 41.61
  Q 151.44 45.34 123.78 73.04
  A 2.57 2.54 27.7 0 1 121.50 73.74
  C 111.81 71.88 103.20 64.80 97.55 57.03
  A 0.28 0.28 0.0 0 0 97.07 57.29
  Q 102.87 72.43 113.44 85.28
  Q 141.70 119.66 181.11 140.07
  A 1.63 1.62 -48.7 0 0 182.79 139.96
  Q 191.14 134.10 200.23 134.10"
/>
<path stroke="#808080" vector-effect="non-scaling-stroke" d="
  M 200.24 358.64
  Q 200.47 358.64 200.54 358.53
  Q 233.18 305.65 243.63 288.61
  A 0.41 0.41 0.0 0 1 244.26 288.53
  L 270.82 313.50
  A 0.47 0.47 0.0 0 0 271.54 313.41
  L 296.95 272.16
  A 0.49 0.48 35.4 0 1 297.67 272.04
  L 333.25 300.75
  A 0.16 0.16 0.0 0 0 333.50 300.55
  Q 313.27 261.10 309.24 216.49
  C 307.64 198.76 307.71 175.92 307.93 162.57
  Q 308.23 145.39 306.71 136.50
  Q 303.37 116.98 293.72 99.80
  A 0.34 0.34 0.0 0 0 293.15 99.77
  Q 285.23 110.93 276.16 120.30
  A 0.74 0.74 0.0 0 0 276.03 121.15
  Q 279.20 127.39 280.29 131.00
  C 287.39 154.63 270.74 173.45 247.74 175.71
  Q 245.33 175.95 242.09 176.10
  A 0.32 0.32 0.0 0 0 241.78 176.45
  L 243.12 191.44
  A 1.18 1.17 13.1 0 0 243.69 192.35
  L 276.85 211.49
  A 0.47 0.46 -44.4 0 1 276.84 212.30
  Q 256.96 223.36 250.39 227.13
  C 239.83 233.19 232.72 245.06 227.58 256.36
  Q 218.16 277.10 210.86 302.13
  Q 201.14 335.45 200.48 337.21
  A 0.27 0.20 -86.0 0 1 200.35 337.37
  Q 200.30 337.39 200.24 337.39
  Q 200.18 337.39 200.14 337.37
  A 0.27 0.20 86.0 0 1 200.01 337.21
  Q 199.35 335.45 189.63 302.13
  Q 182.33 277.10 172.91 256.36
  C 167.78 245.06 160.67 233.19 150.11 227.13
  Q 143.54 223.35 123.66 212.29
  A 0.47 0.46 44.5 0 1 123.65 211.48
  L 156.81 192.35
  A 1.18 1.17 -13.1 0 0 157.38 191.44
  L 158.72 176.45
  A 0.32 0.32 0.0 0 0 158.41 176.10
  Q 155.17 175.95 152.76 175.71
  C 129.76 173.44 113.11 154.62 120.22 130.99
  Q 121.31 127.38 124.48 121.14
  A 0.74 0.74 0.0 0 0 124.35 120.29
  Q 115.28 110.92 107.36 99.76
  A 0.34 0.34 0.0 0 0 106.79 99.79
  Q 97.14 116.97 93.80 136.49
  Q 92.27 145.38 92.57 162.56
  C 92.79 175.91 92.86 198.75 91.26 216.48
  Q 87.22 261.09 66.99 300.54
  A 0.16 0.16 0.0 0 0 67.24 300.74
  L 102.82 272.03
  A 0.49 0.48 -35.4 0 1 103.54 272.15
  L 128.95 313.40
  A 0.47 0.47 0.0 0 0 129.67 313.49
  L 156.23 288.53
  A 0.41 0.41 0.0 0 1 156.86 288.61
  Q 167.31 305.65 199.94 358.53
  Q 200.01 358.64 200.24 358.64"
/>
<path stroke="#808080" vector-effect="non-scaling-stroke" d="
  M 172.28 154.75
  A 0.34 0.34 0.0 0 0 172.27 154.14
  Q 154.24 145.13 138.70 132.95
  A 0.42 0.42 0.0 0 0 138.06 133.11
  C 132.29 146.16 139.57 155.76 152.49 158.05
  Q 162.62 159.85 172.28 154.75"
/>
<path stroke="#808080" vector-effect="non-scaling-stroke" d="
  M 228.19 154.74
  Q 237.85 159.85 247.99 158.05
  C 260.93 155.77 268.22 146.17 262.45 133.10
  A 0.42 0.42 0.0 0 0 261.81 132.94
  Q 246.25 145.12 228.20 154.13
  A 0.34 0.34 0.0 0 0 228.19 154.74"
/>
<path stroke="#808080" vector-effect="non-scaling-stroke" d="
  M 200.24 279.70
  Q 200.41 279.70 200.52 279.59
  A 0.16 0.10 -23.3 0 0 200.56 279.53
  Q 205.37 263.17 210.92 249.47
  C 217.26 233.80 226.99 220.42 241.73 211.94
  A 0.33 0.33 0.0 0 0 241.73 211.37
  L 227.49 203.15
  A 1.05 1.02 82.8 0 1 227.24 202.95
  Q 225.32 201.05 225.36 199.45
  C 225.78 182.48 224.57 163.18 208.25 153.51
  Q 204.55 151.32 200.24 151.32
  Q 195.93 151.32 192.23 153.51
  C 175.91 163.18 174.70 182.48 175.12 199.45
  Q 175.16 201.05 173.24 202.95
  A 1.05 1.02 -82.8 0 1 172.99 203.15
  L 158.75 211.37
  A 0.33 0.33 0.0 0 0 158.75 211.94
  C 173.49 220.42 183.22 233.80 189.56 249.47
  Q 195.12 263.17 199.93 279.53
  A 0.16 0.10 23.3 0 0 199.97 279.59
  Q 200.08 279.70 200.24 279.70"
/>
</g>
<path fill="#ffffff" d="
  M 400.00 0.00
  L 400.00 400.00
  L 0.00 400.00
  L 0.00 0.00
  L 400.00 0.00
  Z
  M 200.23 134.10
  Q 209.32 134.10 217.68 139.96
  A 1.63 1.62 48.7 0 0 219.35 140.07
  Q 258.77 119.67 287.04 85.30
  Q 297.61 72.45 303.41 57.32
  A 0.28 0.28 0.0 0 0 302.93 57.06
  C 297.28 64.82 288.67 71.90 278.98 73.76
  A 2.57 2.54 -27.7 0 1 276.70 73.06
  Q 249.05 45.35 209.74 41.61
  Q 203.42 41.01 200.24 41.01
  Q 197.07 41.01 190.75 41.61
  Q 151.44 45.34 123.78 73.04
  A 2.57 2.54 27.7 0 1 121.50 73.74
  C 111.81 71.88 103.20 64.80 97.55 57.03
  A 0.28 0.28 0.0 0 0 97.07 57.29
  Q 102.87 72.43 113.44 85.28
  Q 141.70 119.66 181.11 140.07
  A 1.63 1.62 -48.7 0 0 182.79 139.96
  Q 191.14 134.10 200.23 134.10
  Z
  M 200.24 358.64
  Q 200.47 358.64 200.54 358.53
  Q 233.18 305.65 243.63 288.61
  A 0.41 0.41 0.0 0 1 244.26 288.53
  L 270.82 313.50
  A 0.47 0.47 0.0 0 0 271.54 313.41
  L 296.95 272.16
  A 0.49 0.48 35.4 0 1 297.67 272.04
  L 333.25 300.75
  A 0.16 0.16 0.0 0 0 333.50 300.55
  Q 313.27 261.10 309.24 216.49
  C 307.64 198.76 307.71 175.92 307.93 162.57
  Q 308.23 145.39 306.71 136.50
  Q 303.37 116.98 293.72 99.80
  A 0.34 0.34 0.0 0 0 293.15 99.77
  Q 285.23 110.93 276.16 120.30
  A 0.74 0.74 0.0 0 0 276.03 121.15
  Q 279.20 127.39 280.29 131.00
  C 287.39 154.63 270.74 173.45 247.74 175.71
  Q 245.33 175.95 242.09 176.10
  A 0.32 0.32 0.0 0 0 241.78 176.45
  L 243.12 191.44
  A 1.18 1.17 13.1 0 0 243.69 192.35
  L 276.85 211.49
  A 0.47 0.46 -44.4 0 1 276.84 212.30
  Q 256.96 223.36 250.39 227.13
  C 239.83 233.19 232.72 245.06 227.58 256.36
  Q 218.16 277.10 210.86 302.13
  Q 201.14 335.45 200.48 337.21
  A 0.27 0.20 -86.0 0 1 200.35 337.37
  Q 200.30 337.39 200.24 337.39
  Q 200.18 337.39 200.14 337.37
  A 0.27 0.20 86.0 0 1 200.01 337.21
  Q 199.35 335.45 189.63 302.13
  Q 182.33 277.10 172.91 256.36
  C 167.78 245.06 160.67 233.19 150.11 227.13
  Q 143.54 223.35 123.66 212.29
  A 0.47 0.46 44.5 0 1 123.65 211.48
  L 156.81 192.35
  A 1.18 1.17 -13.1 0 0 157.38 191.44
  L 158.72 176.45
  A 0.32 0.32 0.0 0 0 158.41 176.10
  Q 155.17 175.95 152.76 175.71
  C 129.76 173.44 113.11 154.62 120.22 130.99
  Q 121.31 127.38 124.48 121.14
  A 0.74 0.74 0.0 0 0 124.35 120.29
  Q 115.28 110.92 107.36 99.76
  A 0.34 0.34 0.0 0 0 106.79 99.79
  Q 97.14 116.97 93.80 136.49
  Q 92.27 145.38 92.57 162.56
  C 92.79 175.91 92.86 198.75 91.26 216.48
  Q 87.22 261.09 66.99 300.54
  A 0.16 0.16 0.0 0 0 67.24 300.74
  L 102.82 272.03
  A 0.49 0.48 -35.4 0 1 103.54 272.15
  L 128.95 313.40
  A 0.47 0.47 0.0 0 0 129.67 313.49
  L 156.23 288.53
  A 0.41 0.41 0.0 0 1 156.86 288.61
  Q 167.31 305.65 199.94 358.53
  Q 200.01 358.64 200.24 358.64
  Z
  M 172.28 154.75
  A 0.34 0.34 0.0 0 0 172.27 154.14
  Q 154.24 145.13 138.70 132.95
  A 0.42 0.42 0.0 0 0 138.06 133.11
  C 132.29 146.16 139.57 155.76 152.49 158.05
  Q 162.62 159.85 172.28 154.75
  Z
  M 228.19 154.74
  Q 237.85 159.85 247.99 158.05
  C 260.93 155.77 268.22 146.17 262.45 133.10
  A 0.42 0.42 0.0 0 0 261.81 132.94
  Q 246.25 145.12 228.20 154.13
  A 0.34 0.34 0.0 0 0 228.19 154.74
  Z
  M 200.24 279.70
  Q 200.41 279.70 200.52 279.59
  A 0.16 0.10 -23.3 0 0 200.56 279.53
  Q 205.37 263.17 210.92 249.47
  C 217.26 233.80 226.99 220.42 241.73 211.94
  A 0.33 0.33 0.0 0 0 241.73 211.37
  L 227.49 203.15
  A 1.05 1.02 82.8 0 1 227.24 202.95
  Q 225.32 201.05 225.36 199.45
  C 225.78 182.48 224.57 163.18 208.25 153.51
  Q 204.55 151.32 200.24 151.32
  Q 195.93 151.32 192.23 153.51
  C 175.91 163.18 174.70 182.48 175.12 199.45
  Q 175.16 201.05 173.24 202.95
  A 1.05 1.02 -82.8 0 1 172.99 203.15
  L 158.75 211.37
  A 0.33 0.33 0.0 0 0 158.75 211.94
  C 173.49 220.42 183.22 233.80 189.56 249.47
  Q 195.12 263.17 199.93 279.53
  A 0.16 0.10 23.3 0 0 199.97 279.59
  Q 200.08 279.70 200.24 279.70
  Z"
/>
<path fill="#000000" d="
  M 200.24 41.01
  Q 203.42 41.01 209.74 41.61
  Q 249.05 45.35 276.70 73.06
  A 2.57 2.54 -27.7 0 0 278.98 73.76
  C 288.67 71.90 297.28 64.82 302.93 57.06
  A 0.28 0.28 0.0 0 1 303.41 57.32
  Q 297.61 72.45 287.04 85.30
  Q 258.77 119.67 219.35 140.07
  A 1.63 1.62 48.7 0 1 217.68 139.96
  Q 209.32 134.10 200.23 134.10
  Q 191.14 134.10 182.79 139.96
  A 1.63 1.62 -48.7 0 1 181.11 140.07
  Q 141.70 119.66 113.44 85.28
  Q 102.87 72.43 97.07 57.29
  A 0.28 0.28 0.0 0 1 97.55 57.03
  C 103.20 64.80 111.81 71.88 121.50 73.74
  A 2.57 2.54 27.7 0 0 123.78 73.04
  Q 151.44 45.34 190.75 41.61
  Q 197.07 41.01 200.24 41.01
  Z"
/>
<path fill="#000000" d="
  M 200.24 337.39
  Q 200.30 337.39 200.35 337.37
  A 0.27 0.20 -86.0 0 0 200.48 337.21
  Q 201.14 335.45 210.86 302.13
  Q 218.16 277.10 227.58 256.36
  C 232.72 245.06 239.83 233.19 250.39 227.13
  Q 256.96 223.36 276.84 212.30
  A 0.47 0.46 -44.4 0 0 276.85 211.49
  L 243.69 192.35
  A 1.18 1.17 13.1 0 1 243.12 191.44
  L 241.78 176.45
  A 0.32 0.32 0.0 0 1 242.09 176.10
  Q 245.33 175.95 247.74 175.71
  C 270.74 173.45 287.39 154.63 280.29 131.00
  Q 279.20 127.39 276.03 121.15
  A 0.74 0.74 0.0 0 1 276.16 120.30
  Q 285.23 110.93 293.15 99.77
  A 0.34 0.34 0.0 0 1 293.72 99.80
  Q 303.37 116.98 306.71 136.50
  Q 308.23 145.39 307.93 162.57
  C 307.71 175.92 307.64 198.76 309.24 216.49
  Q 313.27 261.10 333.50 300.55
  A 0.16 0.16 0.0 0 1 333.25 300.75
  L 297.67 272.04
  A 0.49 0.48 35.4 0 0 296.95 272.16
  L 271.54 313.41
  A 0.47 0.47 0.0 0 1 270.82 313.50
  L 244.26 288.53
  A 0.41 0.41 0.0 0 0 243.63 288.61
  Q 233.18 305.65 200.54 358.53
  Q 200.47 358.64 200.24 358.64
  Q 200.01 358.64 199.94 358.53
  Q 167.31 305.65 156.86 288.61
  A 0.41 0.41 0.0 0 0 156.23 288.53
  L 129.67 313.49
  A 0.47 0.47 0.0 0 1 128.95 313.40
  L 103.54 272.15
  A 0.49 0.48 -35.4 0 0 102.82 272.03
  L 67.24 300.74
  A 0.16 0.16 0.0 0 1 66.99 300.54
  Q 87.22 261.09 91.26 216.48
  C 92.86 198.75 92.79 175.91 92.57 162.56
  Q 92.27 145.38 93.80 136.49
  Q 97.14 116.97 106.79 99.79
  A 0.34 0.34 0.0 0 1 107.36 99.76
  Q 115.28 110.92 124.35 120.29
  A 0.74 0.74 0.0 0 1 124.48 121.14
  Q 121.31 127.38 120.22 130.99
  C 113.11 154.62 129.76 173.44 152.76 175.71
  Q 155.17 175.95 158.41 176.10
  A 0.32 0.32 0.0 0 1 158.72 176.45
  L 157.38 191.44
  A 1.18 1.17 -13.1 0 1 156.81 192.35
  L 123.65 211.48
  A 0.47 0.46 44.5 0 0 123.66 212.29
  Q 143.54 223.35 150.11 227.13
  C 160.67 233.19 167.78 245.06 172.91 256.36
  Q 182.33 277.10 189.63 302.13
  Q 199.35 335.45 200.01 337.21
  A 0.27 0.20 86.0 0 0 200.14 337.37
  Q 200.18 337.39 200.24 337.39
  Z"
/>
<path fill="#000000" d="
  M 172.28 154.75
  Q 162.62 159.85 152.49 158.05
  C 139.57 155.76 132.29 146.16 138.06 133.11
  A 0.42 0.42 0.0 0 1 138.70 132.95
  Q 154.24 145.13 172.27 154.14
  A 0.34 0.34 0.0 0 1 172.28 154.75
  Z"
/>
<path fill="#000000" d="
  M 228.19 154.74
  A 0.34 0.34 0.0 0 1 228.20 154.13
  Q 246.25 145.12 261.81 132.94
  A 0.42 0.42 0.0 0 1 262.45 133.10
  C 268.22 146.17 260.93 155.77 247.99 158.05
  Q 237.85 159.85 228.19 154.74
  Z"
/>
<path fill="#000000" d="
  M 200.24 151.32
  Q 204.55 151.32 208.25 153.51
  C 224.57 163.18 225.78 182.48 225.36 199.45
  Q 225.32 201.05 227.24 202.95
  A 1.05 1.02 82.8 0 0 227.49 203.15
  L 241.73 211.37
  A 0.33 0.33 0.0 0 1 241.73 211.94
  C 226.99 220.42 217.26 233.80 210.92 249.47
  Q 205.37 263.17 200.56 279.53
  A 0.16 0.10 -23.3 0 1 200.52 279.59
  Q 200.41 279.70 200.24 279.70
  Q 200.08 279.70 199.97 279.59
  A 0.16 0.10 23.3 0 1 199.93 279.53
  Q 195.12 263.17 189.56 249.47
  C 183.22 233.80 173.49 220.42 158.75 211.94
  A 0.33 0.33 0.0 0 1 158.75 211.37
  L 172.99 203.15
  A 1.05 1.02 -82.8 0 0 173.24 202.95
  Q 175.16 201.05 175.12 199.45
  C 174.70 182.48 175.91 163.18 192.23 153.51
  Q 195.93 151.32 200.24 151.32
  Z"
/>
</svg>
