<svg xmlns="http://www.w3.org/2000/svg"  viewBox="0 0 100 100" width="200px" height="200px" baseProfile="basic"><polygon fill="#fcba7f" points="82.81,50.184 66.84,45.534 71.373,52.919 64.562,59.73 56.771,62.156 54.589,52.919 54.521,53.362 55.531,35.995 60.184,23.73 49.998,23.73 49,23.73 39.816,23.73 44.469,35.995 45.479,53.362 45.411,52.919 43.369,62.199 35.438,59.73 28.627,52.919 33.16,45.534 17.19,50.184 10.992,66.541 35.438,66.541 44.469,73.764 45.913,72.744 45.912,72.738 45.913,72.741 45.913,72.744 49.998,72.744 49.998,72.558 50.002,72.744 54.087,72.744 54.087,72.741 54.089,72.736 54.087,72.744 55.531,73.764 64.562,66.541 89.008,66.541"/><path fill="#f5905f" d="M15.005,14l30.216,22.955L40.303,23.73L15.005,14z"/><path fill="#f5905f" d="M10.992,66.541L17,84l17.093-5.227l-8.061-12.36L10.992,66.541z"/><path fill="#f5905f" d="M33.16,45.534l-4.777,7.385l17.108,0.655L44.92,35.125L33.16,45.534z"/><path fill="#f5905f" d="M34.093,78.773l10.376-5.01l-9.032-7.223L34.093,78.773z"/><path fill="#d1cfc2" d="M33.75,78.25l10.08,5.561l0.64-10.047L33.75,78.25z"/><path fill="#c17d48" d="M34.093,78.773l1.345-12.233h-9.486L34.093,78.773z"/><path fill="#a4a29a" d="M49.998,79.676L43,80l0,2l-8.75-4.25L44.194,86h5.804V79.676z"/><path fill="#656566" d="M11,25.5l6.19,24.684l15.971-4.65l11.309-9.54L15.005,14L11,25.5z"/><path fill="#c17d48" d="M35.438,59.73L44.125,63l1.286-10.081H28.627L35.438,59.73z"/><path fill="#1f212b" d="M44.125,63l-8.687-3.27l5.934-2.676L44.125,63z"/><path fill="#f5905f" d="M59.697,23.73l-4.919,13.225L84.995,14L59.697,23.73z"/><path fill="#f5905f" d="M73.968,66.414l-8.061,12.36L83.25,84l5.758-17.459L73.968,66.414z"/><path fill="#f5905f" d="M55.08,35.125l-0.571,18.449l17.108-0.655l-4.777-7.385L55.08,35.125z"/><path fill="#f5905f" d="M64.562,66.541l-9.032,7.223l10.376,5.01L64.562,66.541z"/><path fill="#d1cfc2" d="M55.531,73.764l0.64,10.047l9.955-5.561L55.531,73.764z"/><path fill="#c17d48" d="M74.049,66.541h-9.486l1.345,12.233L74.049,66.541z"/><path fill="#a4a29a" d="M50.002,86h5.804l9.944-8.125L57,82l0-2l-6.998-0.324V86z"/><path fill="#656566" d="M84.995,14L55.531,35.995l11.309,9.54l15.971,4.65L89,25.5L84.995,14z"/><polygon fill="#1f212b" points="55.591,73.763 54,72 45.916,72 44.409,73.763 43,80 57,80"/><path fill="#c17d48" d="M71.373,52.919H54.589l1.536,9.831l8.437-3.02L71.373,52.919z"/><path fill="#1f212b" d="M58.629,57.054l5.934,2.676L55.875,63L58.629,57.054z"/><path fill="#1f212b" d="M55.806,87H44.194c-0.209,0-0.412-0.065-0.582-0.187l-9.699-6.939l-16.621,5.082	c-0.514,0.157-1.063-0.121-1.237-0.631l-6.008-17.459c-0.076-0.221-0.072-0.461,0.01-0.68l6.087-16.063l-6.113-24.38	c-0.048-0.189-0.039-0.388,0.025-0.572l4.006-11.5c0.09-0.257,0.28-0.466,0.527-0.58c0.247-0.113,0.531-0.122,0.784-0.021L40.546,23	H59.56l25.066-9.93c0.252-0.101,0.536-0.093,0.784,0.021c0.248,0.113,0.438,0.323,0.528,0.58l4.006,11.5	c0.064,0.184,0.073,0.383,0.025,0.572l-6.114,24.38l6.088,16.063c0.081,0.214,0.086,0.45,0.014,0.667l-5.758,17.459	c-0.169,0.516-0.721,0.8-1.237,0.645l-16.873-5.085l-9.701,6.941C56.218,86.935,56.015,87,55.806,87z M44.516,85h10.969l9.839-7.039	c0.043-0.03,0.088-0.058,0.135-0.081c0.228-0.114,0.493-0.137,0.737-0.064l16.41,4.945l5.342-16.198l-6.072-16.025	c-0.072-0.191-0.084-0.399-0.034-0.598l6.116-24.394l-3.564-10.233L60.118,24.93C60.001,24.976,59.876,25,59.75,25H40.355	c-0.126,0-0.25-0.023-0.367-0.07l-24.381-9.618l-3.564,10.234l6.117,24.394c0.05,0.198,0.038,0.407-0.034,0.598l-6.07,16.019	l5.575,16.204l16.17-4.944l0.292,0.956l0.583-0.813L44.516,85z"/><path fill="#1f212b" d="M17.33,50.665l-0.279-0.96l15.869-4.621l10.742-9.062L14.579,14.653l0.592-0.806l29.595,21.745	c0.124,0.091,0.198,0.233,0.204,0.386c0.005,0.153-0.061,0.3-0.178,0.399l-11.309,9.54c-0.054,0.045-0.115,0.078-0.183,0.098	L17.33,50.665z"/><path fill="#1f212b" d="M76.082,21.255c-0.152,0-0.304-0.07-0.402-0.203c-0.164-0.222-0.117-0.535,0.104-0.699l8.793-6.505	c0.223-0.164,0.534-0.119,0.7,0.104c0.164,0.222,0.117,0.535-0.104,0.699l-8.793,6.505C76.29,21.224,76.186,21.255,76.082,21.255z"/><path fill="#1f212b" d="M82.81,50.685c-0.046,0-0.093-0.006-0.14-0.02l-15.971-4.65c-0.07-0.021-0.135-0.056-0.19-0.104	l-10.87-9.534c-0.112-0.099-0.175-0.244-0.17-0.394c0.006-0.15,0.078-0.29,0.198-0.38l15.406-11.677	c0.218-0.166,0.532-0.124,0.7,0.096c0.167,0.22,0.124,0.534-0.097,0.701L56.759,36.028l10.326,9.057l15.864,4.62	c0.266,0.077,0.418,0.354,0.341,0.62C83.226,50.543,83.026,50.685,82.81,50.685z"/><path fill="#1f212b" d="M15,67h-4.07c-0.276,0-0.5-0.224-0.5-0.5s0.224-0.5,0.5-0.5H15c0.276,0,0.5,0.224,0.5,0.5	S15.276,67,15,67z"/><path fill="#1f212b" d="M18.875,67h-1.5c-0.276,0-0.5-0.224-0.5-0.5s0.224-0.5,0.5-0.5h1.5c0.276,0,0.5,0.224,0.5,0.5	S19.151,67,18.875,67z"/><path fill="#1f212b" d="M37.5,77.125c-0.196,0-0.383-0.117-0.463-0.31c-0.104-0.255,0.018-0.548,0.273-0.652l6.189-2.541	L35.323,67H20.75c-0.276,0-0.5-0.224-0.5-0.5s0.224-0.5,0.5-0.5H35.5c0.114,0,0.226,0.04,0.314,0.111l8.97,7.264	c0.138,0.111,0.206,0.287,0.181,0.461c-0.026,0.174-0.142,0.323-0.306,0.39l-6.97,2.861C37.628,77.113,37.563,77.125,37.5,77.125z"/><path fill="#1f212b" d="M44.243,62.709l-0.986-0.169l1.652-9.65l-0.935-16.794l-4.445-12.301l0.941-0.34l4.47,12.37	c0.016,0.046,0.025,0.094,0.028,0.142l0.941,16.924c0.002,0.038,0,0.075-0.006,0.112L44.243,62.709z"/><path fill="#1f212b" d="M33.018,57.81c-0.128,0-0.256-0.049-0.354-0.146l-4.391-4.391c-0.164-0.164-0.193-0.418-0.072-0.615	l4.534-7.385c0.144-0.236,0.452-0.309,0.688-0.165c0.235,0.145,0.309,0.453,0.164,0.688l-4.327,7.048l4.111,4.112	c0.195,0.195,0.195,0.512,0,0.707C33.273,57.761,33.146,57.81,33.018,57.81z"/><path fill="#1f212b" d="M45.123,53.375h-3.594c-0.276,0-0.5-0.224-0.5-0.5s0.224-0.5,0.5-0.5h3.594	c0.276,0,0.5,0.224,0.5,0.5S45.399,53.375,45.123,53.375z"/><path fill="#1f212b" d="M38.717,53.375h-2.719c-0.276,0-0.5-0.224-0.5-0.5s0.224-0.5,0.5-0.5h2.719	c0.276,0,0.5,0.224,0.5,0.5S38.993,53.375,38.717,53.375z"/><path fill="#1f212b" d="M33.561,53.375h-4.936c-0.276,0-0.5-0.224-0.5-0.5s0.224-0.5,0.5-0.5h4.936	c0.276,0,0.5,0.224,0.5,0.5S33.837,53.375,33.561,53.375z"/><path fill="#1f212b" d="M34.093,79.273c-0.164,0-0.32-0.081-0.415-0.221l-8.03-11.93c-0.154-0.229-0.093-0.54,0.136-0.694	c0.229-0.154,0.539-0.095,0.694,0.135l7.268,10.797l1.195-10.875c0.03-0.275,0.276-0.476,0.552-0.442	c0.274,0.03,0.473,0.277,0.442,0.552L34.59,78.828c-0.023,0.208-0.174,0.381-0.378,0.431C34.173,79.269,34.133,79.273,34.093,79.273	z"/><path fill="#1f212b" d="M55.757,62.708l-1.623-9.706c-0.006-0.037-0.008-0.073-0.006-0.11l0.941-16.924	c0.002-0.046,0.012-0.092,0.026-0.137l4.307-12.37l0.945,0.329l-4.284,12.303l-0.935,16.798l1.614,9.651L55.757,62.708z"/><path fill="#1f212b" d="M67.02,57.81c-0.128,0-0.256-0.049-0.354-0.146c-0.195-0.195-0.195-0.512,0-0.707l4.112-4.112	l-4.327-7.048c-0.145-0.235-0.071-0.543,0.164-0.688c0.236-0.143,0.544-0.071,0.688,0.165l4.534,7.385	c0.121,0.197,0.092,0.452-0.072,0.615l-4.392,4.391C67.275,57.761,67.147,57.81,67.02,57.81z"/><path fill="#1f212b" d="M58.594,53.375H55c-0.276,0-0.5-0.224-0.5-0.5s0.224-0.5,0.5-0.5h3.594c0.276,0,0.5,0.224,0.5,0.5	S58.87,53.375,58.594,53.375z"/><path fill="#1f212b" d="M64,53.375h-2.719c-0.276,0-0.5-0.224-0.5-0.5s0.224-0.5,0.5-0.5H64c0.276,0,0.5,0.224,0.5,0.5	S64.276,53.375,64,53.375z"/><path fill="#1f212b" d="M71.375,53.375h-4.936c-0.276,0-0.5-0.224-0.5-0.5s0.224-0.5,0.5-0.5h4.936	c0.276,0,0.5,0.224,0.5,0.5S71.651,53.375,71.375,53.375z"/><path fill="#1f212b" d="M89.195,67h-4.07c-0.276,0-0.5-0.224-0.5-0.5s0.224-0.5,0.5-0.5h4.07c0.276,0,0.5,0.224,0.5,0.5	S89.472,67,89.195,67z"/><path fill="#1f212b" d="M82.75,67h-1.5c-0.276,0-0.5-0.224-0.5-0.5s0.224-0.5,0.5-0.5h1.5c0.276,0,0.5,0.224,0.5,0.5	S83.026,67,82.75,67z"/><path fill="#1f212b" d="M63,77.5c-0.068,0-0.137-0.014-0.203-0.043l-7.289-3.237c-0.159-0.071-0.271-0.22-0.293-0.393	s0.047-0.345,0.183-0.454l9.039-7.263C64.525,66.039,64.636,66,64.75,66h14.625c0.276,0,0.5,0.224,0.5,0.5s-0.224,0.5-0.5,0.5	H64.926l-8.262,6.639l6.539,2.904c0.252,0.112,0.366,0.408,0.254,0.66C63.374,77.389,63.191,77.5,63,77.5z"/><path fill="#1f212b" d="M66.087,79.273c-0.039,0-0.079-0.004-0.118-0.014c-0.204-0.05-0.355-0.222-0.379-0.431l-1.345-12.232	c-0.03-0.274,0.168-0.521,0.442-0.552c0.271-0.032,0.521,0.167,0.552,0.442l1.194,10.865l7.307-10.972	c0.152-0.23,0.465-0.292,0.693-0.139c0.229,0.153,0.292,0.463,0.139,0.693L66.503,79.05C66.409,79.191,66.252,79.273,66.087,79.273z"/></svg>