<?xml version="1.0" encoding="UTF-8" standalone="no"?>
<!DOCTYPE svg PUBLIC "-//W3C//DTD SVG 1.1//EN" "http://www.w3.org/Graphics/SVG/1.1/DTD/svg11.dtd">
<svg xmlns="http://www.w3.org/2000/svg" version="1.1" viewBox="0.00 0.00 2709.00 1161.00">
<g stroke-width="2.00" fill="none" stroke-linecap="butt">
<path stroke="#3d6723" vector-effect="non-scaling-stroke" d="
  M 1565.21 456.75
  Q 1563.70 456.57 1563.17 457.41
  A 0.62 0.62 0.0 0 0 1563.84 458.34
  Q 1565.10 458.03 1565.21 456.75"
/>
<path stroke="#3d6723" vector-effect="non-scaling-stroke" d="
  M 2201.43 270.35
  Q 2183.96 257.91 2164.31 255.76
  Q 2147.66 253.94 2131.83 257.24
  Q 2113.27 261.10 2097.67 275.14
  Q 2086.86 284.88 2081.74 294.76
  Q 2068.54 320.21 2079.89 347.56
  Q 2086.34 363.12 2100.13 373.06
  Q 2127.82 393.02 2159.85 389.60
  C 2175.09 387.97 2189.70 383.56 2201.54 374.90
  Q 2228.87 354.91 2228.82 321.81
  C 2228.79 300.26 2218.83 282.73 2201.43 270.35"
/>
<path stroke="#3d6723" vector-effect="non-scaling-stroke" d="
  M 329.46 633.18
  Q 330.45 633.12 331.10 634.41
  Q 334.48 641.01 337.09 645.16
  Q 349.86 665.51 366.06 693.66
  C 371.56 703.22 376.84 711.55 381.60 720.32
  C 383.27 723.40 386.08 727.31 387.50 730.00
  Q 391.64 737.90 396.28 745.73
  C 400.06 752.09 403.17 758.29 406.62 764.13
  Q 422.90 791.63 442.28 821.98
  Q 450.45 834.78 461.04 848.46
  Q 479.75 872.61 505.74 885.24
  Q 518.67 891.52 535.78 895.48
  Q 550.97 899.00 567.25 900.16
  Q 598.84 902.40 629.02 899.80
  C 638.73 898.97 646.36 897.21 655.05 894.54
  C 660.86 892.75 666.39 889.79 669.73 884.42
  C 673.35 878.58 668.48 872.03 664.42 868.08
  C 656.44 860.31 650.08 854.64 642.92 846.81
  Q 635.85 839.09 633.02 835.73
  Q 615.12 814.45 599.46 790.38
  C 591.60 778.31 584.94 768.20 577.42 755.78
  Q 537.76 690.21 497.18 619.69
  Q 483.80 596.42 471.89 576.56
  Q 459.63 556.13 446.66 533.41
  A 1.91 1.90 46.3 0 1 446.70 531.46
  C 451.84 523.32 457.86 516.24 464.81 508.05
  Q 481.20 488.75 487.63 480.63
  Q 503.18 460.98 513.63 448.57
  C 527.71 431.85 541.76 413.46 556.65 395.90
  Q 562.32 389.21 579.04 368.54
  C 584.25 362.10 595.55 349.58 605.95 337.73
  Q 615.63 326.68 625.13 318.37
  Q 636.13 308.73 638.93 306.18
  C 645.57 300.15 651.43 292.46 644.53 283.89
  C 639.18 277.25 624.78 276.32 615.99 275.95
  Q 604.83 275.49 596.00 275.44
  Q 574.55 275.31 496.52 276.22
  C 485.39 276.35 474.30 276.25 463.50 277.46
  C 453.22 278.62 443.55 279.66 438.58 288.07
  Q 437.42 290.03 437.91 291.83
  Q 438.81 295.14 441.24 298.27
  C 448.96 308.26 456.82 317.11 451.09 329.88
  Q 448.36 335.97 443.90 342.15
  C 433.01 357.24 418.88 376.97 406.03 393.38
  C 395.38 406.98 383.67 423.03 370.55 439.49
  Q 355.98 457.78 345.36 471.07
  C 337.76 480.59 328.54 491.50 320.38 501.37
  Q 317.52 504.82 314.53 507.44
  A 1.59 1.58 51.2 0 1 312.20 507.18
  Q 312.09 507.02 311.93 505.75
  Q 311.65 503.46 311.69 497.76
  Q 312.00 448.84 312.17 377.01
  Q 312.21 359.99 314.19 346.62
  C 315.27 339.33 317.40 331.81 320.83 325.56
  Q 320.92 325.39 324.93 318.89
  C 329.70 311.16 337.57 304.71 339.74 296.27
  Q 342.14 286.95 334.36 282.37
  Q 329.16 279.31 322.74 278.25
  Q 313.75 276.76 303.98 276.38
  Q 286.01 275.70 256.50 276.25
  Q 195.44 277.39 171.50 278.03
  Q 160.77 278.32 147.75 279.97
  C 139.33 281.05 127.22 284.86 126.46 294.77
  Q 125.90 302.11 129.84 308.16
  Q 132.77 312.67 140.63 322.37
  C 149.69 333.55 154.91 350.08 155.64 364.82
  Q 156.87 389.83 156.29 415.50
  Q 155.82 436.12 155.77 446.75
  Q 155.28 554.54 155.18 642.25
  Q 155.16 664.07 153.93 764.90
  C 153.70 783.95 151.85 803.90 145.16 821.71
  C 142.02 830.05 136.42 837.87 131.10 845.59
  C 125.75 853.34 122.17 860.82 125.14 870.04
  C 127.63 877.77 133.96 882.47 141.51 884.05
  C 153.24 886.52 168.78 886.32 178.25 886.24
  Q 225.30 885.80 257.75 885.70
  Q 285.26 885.62 312.06 883.82
  Q 317.85 883.43 324.60 881.58
  C 332.59 879.40 340.24 871.22 337.11 862.59
  Q 335.06 856.92 333.16 854.08
  C 327.45 845.57 323.54 840.24 319.76 832.66
  C 316.85 826.84 314.82 819.98 314.04 814.29
  Q 311.62 796.45 311.67 776.55
  Q 311.85 704.16 311.76 668.60
  Q 311.74 661.67 312.37 656.75
  A 7.48 7.47 -22.5 0 1 313.88 653.12
  L 329.20 633.31
  A 0.37 0.36 17.4 0 1 329.46 633.18"
/>
<path stroke="#3d6723" vector-effect="non-scaling-stroke" d="
  M 2471.83 515.87
  Q 2496.96 515.78 2533.77 516.13
  Q 2548.51 516.26 2555.76 515.28
  C 2568.21 513.59 2570.52 497.73 2571.36 488.07
  Q 2573.16 467.16 2572.87 447.50
  C 2572.80 442.37 2571.16 432.40 2564.95 431.06
  Q 2559.44 429.88 2552.50 429.96
  Q 2512.87 430.44 2481.25 430.39
  Q 2475.96 430.38 2471.68 430.14
  A 1.61 1.61 0.0 0 1 2470.15 428.53
  Q 2470.03 389.34 2470.14 334.94
  C 2470.17 322.27 2467.94 306.20 2450.24 310.99
  C 2439.71 313.84 2431.05 318.22 2419.96 323.59
  C 2397.78 334.35 2373.71 344.83 2355.61 352.85
  Q 2355.36 352.96 2348.41 356.65
  Q 2341.37 360.39 2339.82 368.67
  C 2338.34 376.49 2338.12 385.88 2337.13 393.07
  Q 2336.15 400.18 2335.87 401.94
  C 2334.14 413.16 2328.68 421.88 2319.14 428.45
  C 2313.21 432.54 2304.84 434.54 2297.53 437.27
  C 2289.24 440.37 2283.26 443.31 2281.04 451.58
  Q 2279.18 458.50 2278.95 466.00
  Q 2278.49 481.01 2278.77 491.53
  C 2278.97 499.36 2278.89 505.61 2283.07 511.68
  C 2285.47 515.16 2288.93 515.49 2293.03 515.66
  Q 2309.92 516.36 2329.43 516.39
  A 1.37 1.37 0.0 0 1 2330.80 517.78
  Q 2330.31 550.35 2330.33 582.50
  Q 2330.38 660.10 2330.77 724.00
  Q 2330.84 735.14 2331.88 757.13
  C 2332.90 778.96 2337.94 800.20 2347.22 819.56
  Q 2351.19 827.85 2358.59 836.93
  Q 2366.89 847.10 2372.34 851.45
  Q 2400.54 873.92 2436.24 879.59
  Q 2461.34 883.58 2485.86 880.81
  Q 2500.36 879.18 2511.90 875.32
  Q 2529.46 869.45 2545.73 856.81
  C 2557.75 847.48 2566.81 834.22 2572.67 820.66
  Q 2579.76 804.27 2581.85 789.40
  C 2583.04 780.95 2584.13 771.09 2583.01 762.02
  C 2582.30 756.25 2579.58 752.30 2573.27 753.35
  Q 2569.51 753.98 2566.69 755.67
  C 2552.90 763.95 2540.14 770.60 2523.84 772.16
  C 2510.18 773.46 2498.46 770.50 2488.26 761.86
  C 2475.75 751.26 2472.33 732.38 2471.30 717.00
  C 2469.92 696.51 2470.75 667.36 2470.65 649.39
  Q 2470.40 603.96 2470.66 517.04
  A 1.17 1.17 0.0 0 1 2471.83 515.87"
/>
<path stroke="#3d6723" vector-effect="non-scaling-stroke" d="
  M 784.43 678.74
  A 1.76 1.76 0.0 0 1 785.97 676.84
  Q 799.73 675.13 815.75 673.78
  Q 818.24 673.56 869.26 668.30
  Q 875.65 667.64 875.73 667.63
  Q 929.02 661.81 981.82 656.96
  C 986.48 656.54 991.92 655.72 996.49 654.98
  C 1009.74 652.84 1016.82 644.65 1018.03 631.50
  Q 1020.66 602.66 1015.56 573.36
  Q 1015.12 570.82 1013.58 563.57
  C 1006.71 531.29 990.81 501.93 968.14 477.86
  Q 957.52 466.59 944.11 457.60
  Q 923.06 443.50 898.47 435.23
  Q 890.40 432.51 877.86 430.13
  Q 848.41 424.53 819.77 426.47
  Q 799.86 427.82 774.26 435.53
  Q 765.25 438.24 756.36 442.46
  C 742.73 448.95 728.69 457.05 717.41 465.17
  C 706.12 473.31 695.23 484.36 686.44 494.53
  C 677.25 505.19 668.91 517.61 662.19 529.19
  Q 655.79 540.22 649.72 556.01
  Q 637.40 588.05 633.61 621.98
  C 630.80 647.11 632.25 672.93 636.03 698.00
  Q 641.22 732.51 657.41 763.59
  Q 671.15 789.97 692.87 813.11
  Q 705.95 827.04 723.07 838.17
  C 730.57 843.05 738.72 848.56 746.62 852.42
  Q 804.67 880.74 868.64 875.80
  Q 888.82 874.24 905.66 869.36
  C 941.53 858.98 977.01 838.41 997.22 805.98
  Q 1003.46 795.96 1006.81 788.34
  Q 1014.46 770.95 1015.98 753.03
  C 1016.42 747.93 1016.59 736.72 1012.63 733.39
  Q 1005.31 727.23 998.11 731.86
  Q 979.57 743.80 975.66 746.14
  Q 947.37 763.06 911.71 769.51
  C 903.51 771.00 895.72 770.92 888.00 770.94
  Q 869.18 771.00 851.57 765.16
  C 819.20 754.44 794.49 727.60 786.88 694.37
  Q 785.15 686.86 784.43 678.74"
/>
<path stroke="#3d6723" vector-effect="non-scaling-stroke" d="
  M 1550.26 489.62
  A 0.73 0.73 0.0 0 1 1549.18 488.93
  Q 1550.40 467.89 1549.90 449.76
  C 1549.63 440.04 1544.10 432.00 1533.73 432.11
  C 1518.11 432.28 1502.75 435.84 1487.41 438.48
  Q 1478.18 440.07 1462.95 443.20
  C 1446.11 446.66 1429.21 449.51 1412.76 454.73
  C 1402.28 458.06 1391.99 466.42 1397.99 478.83
  Q 1399.27 481.47 1403.21 488.01
  C 1411.89 502.39 1414.24 517.58 1414.26 534.50
  Q 1414.31 585.17 1414.10 633.25
  Q 1413.92 674.99 1412.84 772.00
  Q 1412.65 789.40 1411.02 802.26
  Q 1409.71 812.60 1404.78 823.91
  C 1401.64 831.09 1395.93 837.65 1394.17 845.25
  Q 1393.64 847.53 1394.78 850.73
  C 1398.78 861.94 1408.06 866.02 1419.25 866.23
  Q 1469.19 867.17 1537.50 866.52
  Q 1545.24 866.44 1551.82 864.57
  Q 1557.04 863.09 1560.46 859.86
  C 1566.06 854.58 1567.15 848.37 1564.17 841.34
  C 1561.72 835.57 1557.02 826.79 1554.82 818.67
  Q 1552.71 810.89 1552.29 807.74
  Q 1550.53 794.53 1550.37 777.43
  C 1550.04 741.34 1550.86 684.49 1550.84 638.93
  Q 1550.82 611.19 1551.33 586.00
  Q 1551.47 578.53 1552.66 574.90
  C 1556.94 561.73 1569.89 549.85 1582.62 544.07
  Q 1596.37 537.83 1611.04 540.88
  C 1623.14 543.39 1629.75 550.71 1635.45 561.43
  Q 1638.44 567.06 1639.83 575.26
  Q 1641.65 585.94 1641.60 593.51
  Q 1641.20 657.50 1641.38 675.94
  Q 1641.92 730.21 1641.14 788.01
  C 1640.94 802.49 1638.71 816.30 1634.04 829.64
  Q 1632.46 834.17 1631.18 840.49
  C 1628.87 851.87 1636.24 861.88 1647.11 864.39
  Q 1652.56 865.65 1656.76 865.79
  C 1677.00 866.47 1700.12 866.23 1738.75 866.24
  Q 1760.81 866.24 1776.24 865.05
  Q 1786.08 864.29 1792.36 856.36
  C 1796.65 850.94 1793.42 842.55 1790.54 837.02
  C 1785.77 827.89 1781.80 817.44 1780.60 807.47
  C 1779.81 800.95 1779.07 796.19 1778.91 790.36
  Q 1778.34 769.41 1778.36 763.50
  C 1778.58 706.95 1778.78 674.51 1778.51 630.38
  Q 1778.34 602.21 1778.80 583.79
  C 1778.90 579.49 1779.24 575.19 1780.80 571.78
  Q 1785.28 561.92 1793.80 554.07
  Q 1809.77 539.35 1831.25 540.38
  C 1842.43 540.92 1853.59 546.72 1858.99 556.77
  Q 1866.29 570.35 1867.35 585.98
  Q 1868.25 599.33 1868.36 612.25
  Q 1868.95 681.61 1868.34 749.87
  Q 1868.28 755.82 1867.89 769.62
  C 1867.53 782.29 1867.95 798.10 1865.91 812.02
  C 1864.61 820.84 1859.25 832.35 1858.07 839.59
  C 1855.40 855.98 1869.26 865.14 1883.75 866.22
  C 1895.33 867.08 1909.81 867.06 1919.50 867.20
  Q 1961.62 867.82 1994.06 867.15
  C 2007.37 866.88 2019.25 866.41 2026.48 853.95
  C 2029.82 848.18 2027.90 842.71 2024.63 837.51
  C 2017.22 825.73 2012.08 815.98 2009.78 804.23
  Q 2006.60 787.97 2006.48 769.25
  Q 2006.36 750.08 2006.04 567.51
  Q 2006.02 558.31 2004.65 545.26
  C 2001.85 518.71 1994.77 492.39 1978.70 470.81
  Q 1963.16 449.93 1939.87 438.94
  Q 1930.29 434.42 1914.90 430.51
  Q 1903.21 427.54 1890.53 427.36
  Q 1875.65 427.15 1865.96 428.97
  Q 1825.40 436.57 1793.99 464.00
  Q 1783.63 473.05 1770.62 487.37
  Q 1768.23 490.01 1766.60 491.13
  A 1.76 1.76 0.0 0 1 1764.01 490.45
  Q 1752.14 465.93 1731.01 449.36
  C 1713.88 435.92 1693.80 429.18 1672.81 427.85
  C 1650.17 426.42 1626.47 430.97 1606.74 441.98
  C 1593.84 449.18 1583.67 455.81 1574.64 465.14
  Q 1557.42 482.95 1553.46 487.21
  Q 1552.19 488.57 1550.26 489.62"
/>
<path stroke="#3d6723" vector-effect="non-scaling-stroke" d="
  M 1212.60 507.48
  Q 1212.03 505.48 1212.18 503.24
  Q 1213.50 483.85 1213.06 458.25
  C 1212.87 446.65 1213.02 434.72 1198.83 432.86
  Q 1192.52 432.03 1186.80 432.89
  Q 1149.43 438.50 1111.25 445.74
  Q 1096.04 448.63 1081.50 452.26
  C 1072.04 454.63 1062.54 457.55 1061.21 468.34
  C 1060.78 471.86 1062.80 475.61 1064.69 478.23
  C 1070.18 485.85 1075.56 492.80 1077.96 500.60
  C 1081.71 512.81 1082.47 524.25 1082.43 537.50
  C 1082.25 592.44 1081.85 644.55 1081.74 700.52
  Q 1081.68 732.82 1081.23 771.07
  C 1081.01 790.25 1081.01 802.73 1074.96 818.04
  C 1072.46 824.37 1068.18 831.53 1065.36 836.68
  C 1063.75 839.62 1061.94 844.05 1062.19 846.98
  Q 1063.31 860.24 1075.60 864.40
  Q 1080.98 866.22 1086.51 866.31
  C 1120.10 866.85 1153.83 866.68 1185.41 866.66
  C 1196.21 866.66 1208.86 866.18 1219.73 865.69
  Q 1230.34 865.21 1238.01 860.56
  C 1242.36 857.93 1245.39 853.12 1243.80 847.74
  C 1241.82 841.08 1237.76 836.06 1232.38 827.74
  C 1221.84 811.47 1220.33 790.57 1220.42 769.49
  C 1220.63 724.29 1219.84 676.02 1219.98 629.00
  Q 1220.02 617.94 1221.79 607.73
  Q 1222.94 601.17 1225.83 595.64
  Q 1232.87 582.20 1239.82 575.00
  C 1253.16 561.16 1272.47 555.12 1291.15 559.30
  C 1303.51 562.07 1312.50 567.88 1325.75 574.66
  C 1340.07 581.99 1348.68 568.54 1352.32 557.11
  Q 1353.91 552.09 1354.76 548.11
  Q 1361.84 514.75 1362.65 479.75
  Q 1362.87 470.03 1361.86 461.14
  C 1360.93 453.03 1357.24 445.62 1350.79 440.07
  Q 1340.73 431.42 1327.80 428.96
  C 1294.05 422.52 1262.51 440.60 1242.00 466.26
  C 1232.72 477.87 1225.55 489.58 1216.36 504.84
  Q 1215.15 506.85 1213.57 507.85
  A 0.65 0.65 0.0 0 1 1212.60 507.48"
/>
<path stroke="#3d6723" vector-effect="non-scaling-stroke" d="
  M 2088.33 549.31
  Q 2087.95 606.72 2088.15 638.24
  Q 2088.27 657.87 2087.94 686.79
  C 2087.53 721.40 2088.59 759.94 2086.59 794.93
  Q 2086.04 804.54 2082.58 815.89
  Q 2081.40 819.77 2077.41 827.32
  Q 2075.12 831.64 2071.92 838.63
  Q 2069.67 843.55 2069.79 845.76
  C 2070.54 860.23 2081.69 866.16 2094.76 866.79
  Q 2102.87 867.18 2125.75 867.26
  Q 2188.29 867.49 2193.25 867.50
  Q 2207.90 867.52 2223.86 866.67
  C 2234.41 866.11 2244.45 862.88 2249.70 853.08
  A 2.90 2.88 -27.4 0 0 2250.00 852.15
  C 2250.62 847.73 2248.54 844.09 2246.03 839.94
  Q 2244.74 837.82 2236.97 824.88
  Q 2232.50 817.43 2230.01 805.51
  Q 2226.16 787.08 2226.11 770.75
  C 2225.96 709.15 2226.21 666.17 2225.84 623.07
  C 2225.59 594.57 2226.15 568.27 2225.81 539.76
  Q 2225.48 511.71 2225.54 469.26
  Q 2225.55 463.29 2225.34 453.76
  C 2225.16 445.36 2222.66 436.02 2214.14 432.76
  C 2209.61 431.02 2202.21 431.28 2197.25 431.81
  Q 2180.44 433.60 2163.48 436.41
  Q 2137.32 440.74 2110.82 446.37
  Q 2099.62 448.75 2087.46 452.22
  Q 2082.14 453.73 2077.58 455.85
  C 2072.07 458.40 2067.68 460.96 2067.48 467.28
  Q 2067.26 474.23 2071.70 480.82
  C 2075.19 486.02 2080.37 493.84 2082.84 500.75
  Q 2085.99 509.58 2086.78 516.25
  Q 2088.45 530.38 2088.33 549.31"
/>
<path stroke="#3d6723" vector-effect="non-scaling-stroke" d="
  M 887.47 597.11
  Q 888.31 588.10 887.81 578.75
  Q 887.16 566.56 886.88 564.31
  Q 885.81 555.40 881.28 539.02
  C 878.49 528.93 873.46 519.61 866.89 512.42
  C 861.25 506.25 853.17 500.75 844.94 500.07
  Q 816.65 497.73 801.41 520.66
  C 793.50 532.55 788.10 546.08 785.54 560.72
  Q 781.80 582.00 782.87 604.61
  A 1.31 1.30 -0.7 0 0 784.16 605.86
  Q 788.14 605.92 791.75 605.57
  Q 832.93 601.68 883.25 599.12
  Q 885.56 599.00 886.97 597.99
  A 1.22 1.19 75.3 0 0 887.47 597.11"
/>
</g>
<path fill="#040702" d="
  M 2133.48 243.45
  Q 2135.72 242.71 2137.85 242.64
  C 2142.14 242.48 2148.56 241.47 2153.05 241.58
  Q 2165.79 241.87 2178.04 244.42
  Q 2190.54 247.01 2201.49 253.27
  C 2220.20 263.97 2233.75 278.01 2241.13 298.10
  Q 2247.91 316.51 2244.12 336.56
  C 2241.74 349.22 2237.47 359.59 2229.75 369.35
  C 2220.87 380.58 2209.62 390.23 2196.33 396.36
  C 2180.82 403.51 2163.32 407.32 2146.04 406.91
  Q 2141.26 406.79 2138.00 406.14
  C 2134.31 405.40 2130.83 405.38 2127.37 404.48
  Q 2104.61 398.61 2088.28 385.56
  Q 2066.13 367.85 2059.80 339.39
  C 2058.87 335.21 2058.99 331.57 2058.45 327.62
  Q 2058.12 325.21 2058.52 322.88
  C 2059.12 319.41 2058.60 315.55 2059.41 311.38
  C 2065.75 278.75 2089.62 255.82 2120.70 245.96
  C 2122.34 245.44 2123.92 245.58 2125.46 244.91
  Q 2127.95 243.82 2132.13 243.69
  A 4.76 4.63 -54.3 0 0 2133.48 243.45
  Z
  M 2201.43 270.35
  Q 2183.96 257.91 2164.31 255.76
  Q 2147.66 253.94 2131.83 257.24
  Q 2113.27 261.10 2097.67 275.14
  Q 2086.86 284.88 2081.74 294.76
  Q 2068.54 320.21 2079.89 347.56
  Q 2086.34 363.12 2100.13 373.06
  Q 2127.82 393.02 2159.85 389.60
  C 2175.09 387.97 2189.70 383.56 2201.54 374.90
  Q 2228.87 354.91 2228.82 321.81
  C 2228.79 300.26 2218.83 282.73 2201.43 270.35
  Z"
/>
<path fill="#75c643" d="
  M 2201.43 270.35
  C 2218.83 282.73 2228.79 300.26 2228.82 321.81
  Q 2228.87 354.91 2201.54 374.90
  C 2189.70 383.56 2175.09 387.97 2159.85 389.60
  Q 2127.82 393.02 2100.13 373.06
  Q 2086.34 363.12 2079.89 347.56
  Q 2068.54 320.21 2081.74 294.76
  Q 2086.86 284.88 2097.67 275.14
  Q 2113.27 261.10 2131.83 257.24
  Q 2147.66 253.94 2164.31 255.76
  Q 2183.96 257.91 2201.43 270.35
  Z"
/>
<path fill="#040702" d="
  M 328.92 467.64
  A 1.46 1.40 25.8 0 0 330.79 467.03
  Q 331.90 464.92 333.32 462.80
  Q 337.98 455.89 349.01 441.51
  Q 377.22 404.74 380.76 400.01
  Q 399.93 374.43 420.15 347.16
  Q 426.94 337.99 432.60 328.87
  C 435.93 323.49 434.72 319.17 431.40 313.57
  Q 429.37 310.16 424.52 301.72
  Q 422.93 298.94 422.20 293.93
  A 6.10 5.80 -45.8 0 1 422.22 292.18
  Q 422.81 288.68 422.85 288.16
  C 423.29 281.80 428.35 274.52 432.28 271.49
  Q 440.27 265.34 450.45 263.47
  Q 453.53 262.90 459.48 262.19
  Q 463.98 261.64 468.55 261.46
  Q 481.86 260.90 495.93 260.94
  Q 497.49 260.95 498.99 260.82
  Q 500.99 260.65 502.03 260.65
  Q 551.21 260.70 600.57 260.45
  C 611.42 260.39 620.93 260.74 631.26 261.45
  Q 635.06 261.71 641.84 263.62
  C 649.07 265.65 655.48 269.67 659.47 275.20
  C 665.19 283.11 666.49 292.52 662.66 301.73
  Q 659.67 308.93 653.21 315.49
  Q 643.89 324.96 632.96 334.44
  Q 626.65 339.92 614.08 354.60
  Q 599.47 371.69 584.86 389.10
  Q 579.05 396.03 578.23 397.00
  Q 559.72 419.06 541.84 441.12
  Q 519.25 469.02 505.56 485.30
  Q 494.17 498.85 484.27 511.36
  C 479.55 517.32 473.81 523.48 468.92 529.72
  Q 466.02 533.43 468.12 537.11
  C 471.64 543.27 475.64 549.04 479.16 555.06
  Q 492.17 577.31 495.35 582.42
  Q 498.88 588.09 501.67 593.39
  Q 506.26 602.14 507.75 604.50
  Q 517.41 619.77 527.34 637.16
  C 537.17 654.37 544.62 666.11 553.17 681.59
  Q 558.49 691.19 563.40 699.43
  Q 596.05 754.16 603.34 765.75
  Q 626.49 802.55 654.93 836.16
  C 662.13 844.66 674.56 855.04 682.60 865.68
  Q 686.17 870.39 686.94 873.57
  Q 687.57 876.17 688.04 880.42
  A 6.77 6.62 47.0 0 1 688.00 882.13
  C 685.94 894.90 678.60 902.40 667.64 907.91
  Q 654.17 914.69 638.92 916.88
  Q 636.85 917.18 634.79 917.22
  Q 632.30 917.27 628.17 918.12
  Q 625.33 918.71 612.92 918.84
  A 8.36 7.97 36.9 0 0 611.21 919.04
  Q 609.93 919.33 609.08 919.35
  Q 581.25 919.90 576.12 919.37
  Q 569.25 918.65 563.57 918.40
  Q 559.99 918.24 557.10 917.60
  C 553.62 916.82 549.84 917.17 545.97 916.24
  Q 544.71 915.93 541.35 915.33
  Q 523.39 912.09 505.86 904.86
  Q 484.40 896.01 469.03 882.46
  Q 455.28 870.36 445.01 856.75
  C 435.75 844.48 423.72 827.16 414.50 811.45
  Q 387.73 765.83 374.99 743.79
  C 368.78 733.06 364.31 723.88 357.44 713.20
  Q 350.19 701.93 343.98 691.33
  C 341.12 686.44 339.02 681.30 335.76 676.42
  Q 333.28 672.72 330.92 667.60
  A 1.44 1.44 0.0 0 0 328.18 668.23
  Q 329.06 714.68 328.80 778.25
  Q 328.80 779.89 330.06 801.60
  Q 330.62 811.40 332.32 816.58
  Q 334.19 822.29 336.49 827.66
  C 339.59 834.91 345.57 843.12 348.99 849.64
  Q 352.80 856.92 353.51 860.84
  C 355.28 870.56 353.07 880.40 346.13 887.90
  Q 339.58 894.96 332.54 897.76
  Q 325.64 900.50 314.74 902.59
  C 311.54 903.21 307.75 902.73 304.84 903.33
  Q 300.17 904.30 287.16 904.40
  Q 264.70 904.58 243.50 904.64
  C 241.86 904.64 238.73 905.06 236.83 905.06
  Q 209.29 905.05 170.00 905.34
  Q 155.90 905.45 144.57 903.87
  Q 137.86 902.94 130.21 899.28
  Q 111.30 890.25 109.20 869.02
  Q 108.33 860.27 110.27 852.51
  Q 111.42 847.86 115.35 841.59
  Q 123.68 828.30 123.99 827.76
  Q 131.11 815.40 133.48 802.02
  Q 134.86 794.20 136.17 780.70
  Q 137.05 771.65 137.26 759.26
  Q 138.10 710.42 138.44 664.25
  Q 138.46 661.93 138.46 659.75
  Q 138.94 482.25 139.21 405.50
  Q 139.27 388.82 138.87 375.11
  Q 138.72 370.11 138.12 365.94
  C 137.62 362.49 137.60 357.93 136.64 353.74
  Q 133.91 341.76 126.34 331.65
  C 119.18 322.07 113.25 315.84 111.86 305.92
  C 111.54 303.60 110.64 301.20 110.61 298.58
  Q 110.44 276.74 130.36 268.36
  Q 138.44 264.96 148.99 264.45
  Q 153.62 264.23 156.50 263.90
  C 165.72 262.85 174.90 263.01 184.00 262.70
  Q 199.78 262.16 204.00 262.08
  C 242.42 261.33 278.09 260.82 312.35 261.30
  Q 319.27 261.40 324.60 262.59
  Q 334.05 264.70 338.45 266.61
  Q 350.77 271.99 355.36 286.10
  A 2.62 2.55 -58.3 0 1 355.46 286.55
  L 356.25 294.78
  A 1.44 1.44 0.0 0 1 356.25 295.02
  Q 355.54 304.67 350.87 311.48
  Q 345.11 319.89 339.15 328.31
  Q 333.77 335.90 331.98 344.01
  C 330.86 349.08 330.49 356.93 330.31 363.71
  Q 329.40 397.13 329.41 440.02
  C 329.41 448.14 328.61 456.10 328.67 463.97
  Q 328.68 464.41 328.29 465.96
  Q 327.98 467.22 328.92 467.64
  Z
  M 329.46 633.18
  Q 330.45 633.12 331.10 634.41
  Q 334.48 641.01 337.09 645.16
  Q 349.86 665.51 366.06 693.66
  C 371.56 703.22 376.84 711.55 381.60 720.32
  C 383.27 723.40 386.08 727.31 387.50 730.00
  Q 391.64 737.90 396.28 745.73
  C 400.06 752.09 403.17 758.29 406.62 764.13
  Q 422.90 791.63 442.28 821.98
  Q 450.45 834.78 461.04 848.46
  Q 479.75 872.61 505.74 885.24
  Q 518.67 891.52 535.78 895.48
  Q 550.97 899.00 567.25 900.16
  Q 598.84 902.40 629.02 899.80
  C 638.73 898.97 646.36 897.21 655.05 894.54
  C 660.86 892.75 666.39 889.79 669.73 884.42
  C 673.35 878.58 668.48 872.03 664.42 868.08
  C 656.44 860.31 650.08 854.64 642.92 846.81
  Q 635.85 839.09 633.02 835.73
  Q 615.12 814.45 599.46 790.38
  C 591.60 778.31 584.94 768.20 577.42 755.78
  Q 537.76 690.21 497.18 619.69
  Q 483.80 596.42 471.89 576.56
  Q 459.63 556.13 446.66 533.41
  A 1.91 1.90 46.3 0 1 446.70 531.46
  C 451.84 523.32 457.86 516.24 464.81 508.05
  Q 481.20 488.75 487.63 480.63
  Q 503.18 460.98 513.63 448.57
  C 527.71 431.85 541.76 413.46 556.65 395.90
  Q 562.32 389.21 579.04 368.54
  C 584.25 362.10 595.55 349.58 605.95 337.73
  Q 615.63 326.68 625.13 318.37
  Q 636.13 308.73 638.93 306.18
  C 645.57 300.15 651.43 292.46 644.53 283.89
  C 639.18 277.25 624.78 276.32 615.99 275.95
  Q 604.83 275.49 596.00 275.44
  Q 574.55 275.31 496.52 276.22
  C 485.39 276.35 474.30 276.25 463.50 277.46
  C 453.22 278.62 443.55 279.66 438.58 288.07
  Q 437.42 290.03 437.91 291.83
  Q 438.81 295.14 441.24 298.27
  C 448.96 308.26 456.82 317.11 451.09 329.88
  Q 448.36 335.97 443.90 342.15
  C 433.01 357.24 418.88 376.97 406.03 393.38
  C 395.38 406.98 383.67 423.03 370.55 439.49
  Q 355.98 457.78 345.36 471.07
  C 337.76 480.59 328.54 491.50 320.38 501.37
  Q 317.52 504.82 314.53 507.44
  A 1.59 1.58 51.2 0 1 312.20 507.18
  Q 312.09 507.02 311.93 505.75
  Q 311.65 503.46 311.69 497.76
  Q 312.00 448.84 312.17 377.01
  Q 312.21 359.99 314.19 346.62
  C 315.27 339.33 317.40 331.81 320.83 325.56
  Q 320.92 325.39 324.93 318.89
  C 329.70 311.16 337.57 304.71 339.74 296.27
  Q 342.14 286.95 334.36 282.37
  Q 329.16 279.31 322.74 278.25
  Q 313.75 276.76 303.98 276.38
  Q 286.01 275.70 256.50 276.25
  Q 195.44 277.39 171.50 278.03
  Q 160.77 278.32 147.75 279.97
  C 139.33 281.05 127.22 284.86 126.46 294.77
  Q 125.90 302.11 129.84 308.16
  Q 132.77 312.67 140.63 322.37
  C 149.69 333.55 154.91 350.08 155.64 364.82
  Q 156.87 389.83 156.29 415.50
  Q 155.82 436.12 155.77 446.75
  Q 155.28 554.54 155.18 642.25
  Q 155.16 664.07 153.93 764.90
  C 153.70 783.95 151.85 803.90 145.16 821.71
  C 142.02 830.05 136.42 837.87 131.10 845.59
  C 125.75 853.34 122.17 860.82 125.14 870.04
  C 127.63 877.77 133.96 882.47 141.51 884.05
  C 153.24 886.52 168.78 886.32 178.25 886.24
  Q 225.30 885.80 257.75 885.70
  Q 285.26 885.62 312.06 883.82
  Q 317.85 883.43 324.60 881.58
  C 332.59 879.40 340.24 871.22 337.11 862.59
  Q 335.06 856.92 333.16 854.08
  C 327.45 845.57 323.54 840.24 319.76 832.66
  C 316.85 826.84 314.82 819.98 314.04 814.29
  Q 311.62 796.45 311.67 776.55
  Q 311.85 704.16 311.76 668.60
  Q 311.74 661.67 312.37 656.75
  A 7.48 7.47 -22.5 0 1 313.88 653.12
  L 329.20 633.31
  A 0.37 0.36 17.4 0 1 329.46 633.18
  Z"
/>
<path fill="#75c643" d="
  M 329.46 633.18
  A 0.37 0.36 17.4 0 0 329.20 633.31
  L 313.88 653.12
  A 7.48 7.47 -22.5 0 0 312.37 656.75
  Q 311.74 661.67 311.76 668.60
  Q 311.85 704.16 311.67 776.55
  Q 311.62 796.45 314.04 814.29
  C 314.82 819.98 316.85 826.84 319.76 832.66
  C 323.54 840.24 327.45 845.57 333.16 854.08
  Q 335.06 856.92 337.11 862.59
  C 340.24 871.22 332.59 879.40 324.60 881.58
  Q 317.85 883.43 312.06 883.82
  Q 285.26 885.62 257.75 885.70
  Q 225.30 885.80 178.25 886.24
  C 168.78 886.32 153.24 886.52 141.51 884.05
  C 133.96 882.47 127.63 877.77 125.14 870.04
  C 122.17 860.82 125.75 853.34 131.10 845.59
  C 136.42 837.87 142.02 830.05 145.16 821.71
  C 151.85 803.90 153.70 783.95 153.93 764.90
  Q 155.16 664.07 155.18 642.25
  Q 155.28 554.54 155.77 446.75
  Q 155.82 436.12 156.29 415.50
  Q 156.87 389.83 155.64 364.82
  C 154.91 350.08 149.69 333.55 140.63 322.37
  Q 132.77 312.67 129.84 308.16
  Q 125.90 302.11 126.46 294.77
  C 127.22 284.86 139.33 281.05 147.75 279.97
  Q 160.77 278.32 171.50 278.03
  Q 195.44 277.39 256.50 276.25
  Q 286.01 275.70 303.98 276.38
  Q 313.75 276.76 322.74 278.25
  Q 329.16 279.31 334.36 282.37
  Q 342.14 286.95 339.74 296.27
  C 337.57 304.71 329.70 311.16 324.93 318.89
  Q 320.92 325.39 320.83 325.56
  C 317.40 331.81 315.27 339.33 314.19 346.62
  Q 312.21 359.99 312.17 377.01
  Q 312.00 448.84 311.69 497.76
  Q 311.65 503.46 311.93 505.75
  Q 312.09 507.02 312.20 507.18
  A 1.59 1.58 51.2 0 0 314.53 507.44
  Q 317.52 504.82 320.38 501.37
  C 328.54 491.50 337.76 480.59 345.36 471.07
  Q 355.98 457.78 370.55 439.49
  C 383.67 423.03 395.38 406.98 406.03 393.38
  C 418.88 376.97 433.01 357.24 443.90 342.15
  Q 448.36 335.97 451.09 329.88
  C 456.82 317.11 448.96 308.26 441.24 298.27
  Q 438.81 295.14 437.91 291.83
  Q 437.42 290.03 438.58 288.07
  C 443.55 279.66 453.22 278.62 463.50 277.46
  C 474.30 276.25 485.39 276.35 496.52 276.22
  Q 574.55 275.31 596.00 275.44
  Q 604.83 275.49 615.99 275.95
  C 624.78 276.32 639.18 277.25 644.53 283.89
  C 651.43 292.46 645.57 300.15 638.93 306.18
  Q 636.13 308.73 625.13 318.37
  Q 615.63 326.68 605.95 337.73
  C 595.55 349.58 584.25 362.10 579.04 368.54
  Q 562.32 389.21 556.65 395.90
  C 541.76 413.46 527.71 431.85 513.63 448.57
  Q 503.18 460.98 487.63 480.63
  Q 481.20 488.75 464.81 508.05
  C 457.86 516.24 451.84 523.32 446.70 531.46
  A 1.91 1.90 46.3 0 0 446.66 533.41
  Q 459.63 556.13 471.89 576.56
  Q 483.80 596.42 497.18 619.69
  Q 537.76 690.21 577.42 755.78
  C 584.94 768.20 591.60 778.31 599.46 790.38
  Q 615.12 814.45 633.02 835.73
  Q 635.85 839.09 642.92 846.81
  C 650.08 854.64 656.44 860.31 664.42 868.08
  C 668.48 872.03 673.35 878.58 669.73 884.42
  C 666.39 889.79 660.86 892.75 655.05 894.54
  C 646.36 897.21 638.73 898.97 629.02 899.80
  Q 598.84 902.40 567.25 900.16
  Q 550.97 899.00 535.78 895.48
  Q 518.67 891.52 505.74 885.24
  Q 479.75 872.61 461.04 848.46
  Q 450.45 834.78 442.28 821.98
  Q 422.90 791.63 406.62 764.13
  C 403.17 758.29 400.06 752.09 396.28 745.73
  Q 391.64 737.90 387.50 730.00
  C 386.08 727.31 383.27 723.40 381.60 720.32
  C 376.84 711.55 371.56 703.22 366.06 693.66
  Q 349.86 665.51 337.09 645.16
  Q 334.48 641.01 331.10 634.41
  Q 330.45 633.12 329.46 633.18
  Z"
/>
<path fill="#040702" d="
  M 2314.92 533.55
  A 0.38 0.37 87.9 0 0 2314.52 533.17
  C 2305.30 533.65 2293.64 533.86 2284.01 531.23
  Q 2270.49 527.53 2266.40 514.04
  C 2265.68 511.65 2264.58 507.62 2264.33 504.80
  Q 2262.20 481.32 2264.34 457.50
  A 5.46 5.23 -35.0 0 1 2264.57 456.34
  Q 2266.99 448.66 2268.97 443.94
  C 2273.20 433.88 2281.78 427.18 2292.30 423.54
  C 2301.20 420.46 2308.66 418.68 2314.96 414.26
  A 4.09 4.05 0.3 0 0 2315.83 413.41
  Q 2318.71 409.60 2319.25 406.73
  C 2319.97 402.90 2320.88 399.02 2321.00 396.35
  Q 2321.15 393.18 2323.46 372.87
  Q 2325.09 358.52 2335.73 349.68
  C 2338.41 347.46 2341.18 345.28 2344.68 343.46
  C 2353.74 338.75 2366.73 332.55 2386.63 323.56
  Q 2432.18 302.96 2436.00 301.46
  Q 2445.04 297.89 2450.98 296.48
  Q 2455.74 295.35 2463.87 296.16
  A 7.05 7.00 -31.8 0 1 2465.56 296.55
  Q 2478.34 301.20 2483.52 313.10
  Q 2485.90 318.57 2486.25 330.26
  Q 2486.62 342.62 2486.38 351.54
  Q 2486.03 364.86 2486.00 369.48
  Q 2485.84 396.04 2485.90 411.50
  Q 2485.90 413.22 2486.08 415.00
  A 1.06 1.06 0.0 0 0 2487.13 415.95
  Q 2519.06 415.92 2530.33 415.90
  C 2539.48 415.89 2550.74 415.22 2561.01 415.42
  Q 2568.66 415.57 2574.59 418.15
  C 2576.13 418.82 2578.90 420.93 2580.31 422.49
  Q 2584.25 426.87 2586.60 432.01
  Q 2588.51 436.21 2588.85 443.12
  Q 2589.50 456.38 2588.73 466.68
  C 2588.19 473.99 2588.72 480.56 2587.35 488.38
  Q 2587.17 489.41 2586.63 494.72
  Q 2585.74 503.60 2580.99 514.06
  Q 2574.98 527.29 2561.30 531.01
  Q 2554.11 532.97 2541.27 532.89
  Q 2529.64 532.82 2487.80 532.84
  A 0.82 0.82 0.0 0 0 2486.98 533.64
  C 2486.46 555.73 2486.98 576.25 2486.76 597.78
  Q 2486.37 635.89 2486.76 694.50
  Q 2486.83 704.13 2487.42 716.66
  C 2487.63 721.02 2488.90 724.81 2489.30 729.20
  A 5.02 4.56 35.9 0 0 2489.49 730.11
  C 2492.96 740.93 2497.40 752.37 2509.46 755.95
  Q 2521.98 759.68 2534.29 756.47
  C 2545.02 753.67 2554.87 746.36 2564.17 741.68
  Q 2575.23 736.13 2585.56 741.10
  Q 2590.37 743.41 2593.46 748.10
  C 2597.95 754.91 2599.21 761.68 2599.28 769.50
  Q 2599.33 774.61 2599.02 781.56
  C 2598.88 784.81 2597.98 787.46 2597.92 790.37
  Q 2597.86 793.34 2596.98 795.93
  C 2596.21 798.23 2596.34 800.57 2595.63 803.38
  Q 2589.49 827.53 2575.40 848.67
  Q 2570.60 855.87 2564.24 862.24
  C 2548.13 878.40 2528.36 888.71 2506.45 894.41
  Q 2497.33 896.78 2492.02 897.68
  Q 2481.01 899.54 2466.29 899.66
  Q 2460.41 899.70 2455.22 899.51
  Q 2449.34 899.30 2444.24 898.40
  Q 2444.11 898.38 2440.26 897.93
  Q 2428.04 896.51 2413.67 892.29
  Q 2393.57 886.38 2375.85 875.00
  C 2361.10 865.53 2347.91 852.80 2338.56 839.24
  C 2332.85 830.98 2327.84 820.11 2324.73 809.69
  Q 2320.26 794.73 2319.76 791.03
  C 2318.98 785.17 2317.48 779.61 2316.97 774.51
  C 2315.12 756.19 2315.07 734.58 2315.00 712.80
  Q 2314.67 616.44 2314.92 533.55
  Z
  M 2471.83 515.87
  Q 2496.96 515.78 2533.77 516.13
  Q 2548.51 516.26 2555.76 515.28
  C 2568.21 513.59 2570.52 497.73 2571.36 488.07
  Q 2573.16 467.16 2572.87 447.50
  C 2572.80 442.37 2571.16 432.40 2564.95 431.06
  Q 2559.44 429.88 2552.50 429.96
  Q 2512.87 430.44 2481.25 430.39
  Q 2475.96 430.38 2471.68 430.14
  A 1.61 1.61 0.0 0 1 2470.15 428.53
  Q 2470.03 389.34 2470.14 334.94
  C 2470.17 322.27 2467.94 306.20 2450.24 310.99
  C 2439.71 313.84 2431.05 318.22 2419.96 323.59
  C 2397.78 334.35 2373.71 344.83 2355.61 352.85
  Q 2355.36 352.96 2348.41 356.65
  Q 2341.37 360.39 2339.82 368.67
  C 2338.34 376.49 2338.12 385.88 2337.13 393.07
  Q 2336.15 400.18 2335.87 401.94
  C 2334.14 413.16 2328.68 421.88 2319.14 428.45
  C 2313.21 432.54 2304.84 434.54 2297.53 437.27
  C 2289.24 440.37 2283.26 443.31 2281.04 451.58
  Q 2279.18 458.50 2278.95 466.00
  Q 2278.49 481.01 2278.77 491.53
  C 2278.97 499.36 2278.89 505.61 2283.07 511.68
  C 2285.47 515.16 2288.93 515.49 2293.03 515.66
  Q 2309.92 516.36 2329.43 516.39
  A 1.37 1.37 0.0 0 1 2330.80 517.78
  Q 2330.31 550.35 2330.33 582.50
  Q 2330.38 660.10 2330.77 724.00
  Q 2330.84 735.14 2331.88 757.13
  C 2332.90 778.96 2337.94 800.20 2347.22 819.56
  Q 2351.19 827.85 2358.59 836.93
  Q 2366.89 847.10 2372.34 851.45
  Q 2400.54 873.92 2436.24 879.59
  Q 2461.34 883.58 2485.86 880.81
  Q 2500.36 879.18 2511.90 875.32
  Q 2529.46 869.45 2545.73 856.81
  C 2557.75 847.48 2566.81 834.22 2572.67 820.66
  Q 2579.76 804.27 2581.85 789.40
  C 2583.04 780.95 2584.13 771.09 2583.01 762.02
  C 2582.30 756.25 2579.58 752.30 2573.27 753.35
  Q 2569.51 753.98 2566.69 755.67
  C 2552.90 763.95 2540.14 770.60 2523.84 772.16
  C 2510.18 773.46 2498.46 770.50 2488.26 761.86
  C 2475.75 751.26 2472.33 732.38 2471.30 717.00
  C 2469.92 696.51 2470.75 667.36 2470.65 649.39
  Q 2470.40 603.96 2470.66 517.04
  A 1.17 1.17 0.0 0 1 2471.83 515.87
  Z"
/>
<path fill="#75c643" d="
  M 2471.83 515.87
  A 1.17 1.17 0.0 0 0 2470.66 517.04
  Q 2470.40 603.96 2470.65 649.39
  C 2470.75 667.36 2469.92 696.51 2471.30 717.00
  C 2472.33 732.38 2475.75 751.26 2488.26 761.86
  C 2498.46 770.50 2510.18 773.46 2523.84 772.16
  C 2540.14 770.60 2552.90 763.95 2566.69 755.67
  Q 2569.51 753.98 2573.27 753.35
  C 2579.58 752.30 2582.30 756.25 2583.01 762.02
  C 2584.13 771.09 2583.04 780.95 2581.85 789.40
  Q 2579.76 804.27 2572.67 820.66
  C 2566.81 834.22 2557.75 847.48 2545.73 856.81
  Q 2529.46 869.45 2511.90 875.32
  Q 2500.36 879.18 2485.86 880.81
  Q 2461.34 883.58 2436.24 879.59
  Q 2400.54 873.92 2372.34 851.45
  Q 2366.89 847.10 2358.59 836.93
  Q 2351.19 827.85 2347.22 819.56
  C 2337.94 800.20 2332.90 778.96 2331.88 757.13
  Q 2330.84 735.14 2330.77 724.00
  Q 2330.38 660.10 2330.33 582.50
  Q 2330.31 550.35 2330.80 517.78
  A 1.37 1.37 0.0 0 0 2329.43 516.39
  Q 2309.92 516.36 2293.03 515.66
  C 2288.93 515.49 2285.47 515.16 2283.07 511.68
  C 2278.89 505.61 2278.97 499.36 2278.77 491.53
  Q 2278.49 481.01 2278.95 466.00
  Q 2279.18 458.50 2281.04 451.58
  C 2283.26 443.31 2289.24 440.37 2297.53 437.27
  C 2304.84 434.54 2313.21 432.54 2319.14 428.45
  C 2328.68 421.88 2334.14 413.16 2335.87 401.94
  Q 2336.15 400.18 2337.13 393.07
  C 2338.12 385.88 2338.34 376.49 2339.82 368.67
  Q 2341.37 360.39 2348.41 356.65
  Q 2355.36 352.96 2355.61 352.85
  C 2373.71 344.83 2397.78 334.35 2419.96 323.59
  C 2431.05 318.22 2439.71 313.84 2450.24 310.99
  C 2467.94 306.20 2470.17 322.27 2470.14 334.94
  Q 2470.03 389.34 2470.15 428.53
  A 1.61 1.61 0.0 0 0 2471.68 430.14
  Q 2475.96 430.38 2481.25 430.39
  Q 2512.87 430.44 2552.50 429.96
  Q 2559.44 429.88 2564.95 431.06
  C 2571.16 432.40 2572.80 442.37 2572.87 447.50
  Q 2573.16 467.16 2571.36 488.07
  C 2570.52 497.73 2568.21 513.59 2555.76 515.28
  Q 2548.51 516.26 2533.77 516.13
  Q 2496.96 515.78 2471.83 515.87
  Z"
/>
<path fill="#040702" d="
  M 804.60 691.27
  A 0.90 0.90 0.0 0 0 803.69 691.95
  Q 803.18 694.01 804.04 696.24
  C 805.92 701.12 807.44 705.92 809.64 710.06
  Q 830.70 749.70 875.99 755.36
  Q 885.26 756.51 896.84 756.22
  Q 906.86 755.96 917.52 753.76
  Q 939.64 749.20 958.02 739.76
  Q 967.47 734.90 983.55 724.30
  Q 986.23 722.54 993.54 718.59
  Q 997.40 716.50 1005.20 715.46
  A 5.99 5.95 -45.2 0 1 1006.62 715.45
  Q 1014.08 716.35 1021.75 720.87
  A 6.09 6.04 84.5 0 1 1023.17 722.05
  Q 1028.88 728.47 1030.80 735.08
  Q 1032.92 742.35 1032.31 749.53
  Q 1031.78 755.71 1031.67 757.13
  Q 1031.36 761.21 1030.76 764.69
  Q 1028.54 777.56 1022.59 791.60
  Q 1015.08 809.34 1004.83 823.92
  C 998.49 832.94 989.32 841.90 982.25 848.25
  Q 981.74 848.71 973.51 855.03
  Q 968.90 858.57 964.39 861.24
  Q 948.98 870.39 944.76 872.50
  Q 923.03 883.36 896.30 888.89
  Q 888.52 890.50 876.23 892.30
  Q 869.07 893.35 862.26 893.39
  Q 832.62 893.57 827.26 893.19
  Q 824.61 893.01 812.42 891.34
  Q 805.48 890.40 797.74 888.53
  Q 783.96 885.19 766.53 879.45
  Q 750.17 874.06 736.66 866.70
  Q 711.36 852.93 690.10 833.84
  C 684.99 829.25 680.56 824.34 675.82 819.73
  Q 671.59 815.62 668.35 811.62
  Q 641.37 778.25 627.55 737.77
  Q 625.48 731.71 624.27 726.24
  C 623.12 721.10 621.47 716.67 620.34 710.73
  Q 617.85 697.56 617.20 687.68
  C 616.81 681.82 615.90 674.93 615.76 667.76
  C 615.49 654.36 615.10 642.16 616.66 630.04
  C 617.31 624.99 617.22 618.79 618.32 614.16
  C 618.89 611.73 618.58 608.40 619.08 606.36
  C 620.18 601.92 620.32 598.13 621.33 593.72
  Q 624.98 577.80 626.90 571.41
  Q 641.18 523.81 673.86 485.60
  Q 680.70 477.61 694.62 464.86
  Q 720.55 441.09 755.82 427.05
  Q 783.37 416.08 810.06 413.41
  Q 815.74 412.84 818.51 412.79
  C 822.56 412.72 825.43 412.16 829.74 412.00
  Q 844.67 411.46 861.35 413.02
  C 866.07 413.46 869.84 414.59 873.79 414.65
  C 876.62 414.69 878.76 415.77 881.48 415.98
  Q 882.36 416.05 884.55 416.49
  C 907.31 421.08 928.52 429.82 948.41 442.10
  Q 972.00 456.67 990.30 478.28
  Q 994.53 483.28 998.29 489.03
  C 1001.54 494.01 1005.03 498.41 1008.14 503.97
  Q 1023.33 531.17 1030.59 561.63
  Q 1032.42 569.34 1033.11 575.83
  Q 1033.43 578.90 1034.23 582.12
  C 1034.84 584.57 1034.52 587.86 1034.98 590.62
  Q 1035.84 595.81 1036.00 601.75
  Q 1036.30 612.63 1036.00 623.05
  C 1035.85 628.15 1034.76 632.70 1034.48 636.85
  Q 1034.36 638.58 1033.72 640.03
  C 1033.12 641.39 1033.23 642.89 1032.78 644.28
  C 1029.79 653.50 1024.06 662.08 1015.28 666.36
  Q 1009.87 669.00 1005.60 670.09
  C 1000.66 671.35 996.12 672.59 992.61 672.46
  A 7.80 7.66 -48.4 0 0 990.86 672.58
  Q 984.59 673.68 980.67 673.87
  Q 976.62 674.07 973.00 674.72
  C 968.07 675.59 963.17 675.35 958.31 676.05
  C 952.55 676.89 948.41 676.93 943.18 677.58
  C 936.63 678.40 931.16 678.48 926.05 679.34
  C 920.94 680.21 916.68 680.17 911.59 680.97
  C 906.80 681.72 901.16 681.66 895.95 682.53
  Q 891.89 683.20 888.28 683.32
  C 884.19 683.46 879.56 684.73 875.24 684.78
  C 868.48 684.86 861.87 686.52 855.23 686.64
  Q 854.32 686.65 850.53 687.25
  Q 844.92 688.13 838.50 688.28
  A 9.66 9.10 37.2 0 0 837.00 688.44
  Q 833.25 689.16 832.25 689.26
  Q 825.58 689.89 815.74 690.88
  Q 809.64 691.50 804.60 691.27
  Z
  M 784.43 678.74
  A 1.76 1.76 0.0 0 1 785.97 676.84
  Q 799.73 675.13 815.75 673.78
  Q 818.24 673.56 869.26 668.30
  Q 875.65 667.64 875.73 667.63
  Q 929.02 661.81 981.82 656.96
  C 986.48 656.54 991.92 655.72 996.49 654.98
  C 1009.74 652.84 1016.82 644.65 1018.03 631.50
  Q 1020.66 602.66 1015.56 573.36
  Q 1015.12 570.82 1013.58 563.57
  C 1006.71 531.29 990.81 501.93 968.14 477.86
  Q 957.52 466.59 944.11 457.60
  Q 923.06 443.50 898.47 435.23
  Q 890.40 432.51 877.86 430.13
  Q 848.41 424.53 819.77 426.47
  Q 799.86 427.82 774.26 435.53
  Q 765.25 438.24 756.36 442.46
  C 742.73 448.95 728.69 457.05 717.41 465.17
  C 706.12 473.31 695.23 484.36 686.44 494.53
  C 677.25 505.19 668.91 517.61 662.19 529.19
  Q 655.79 540.22 649.72 556.01
  Q 637.40 588.05 633.61 621.98
  C 630.80 647.11 632.25 672.93 636.03 698.00
  Q 641.22 732.51 657.41 763.59
  Q 671.15 789.97 692.87 813.11
  Q 705.95 827.04 723.07 838.17
  C 730.57 843.05 738.72 848.56 746.62 852.42
  Q 804.67 880.74 868.64 875.80
  Q 888.82 874.24 905.66 869.36
  C 941.53 858.98 977.01 838.41 997.22 805.98
  Q 1003.46 795.96 1006.81 788.34
  Q 1014.46 770.95 1015.98 753.03
  C 1016.42 747.93 1016.59 736.72 1012.63 733.39
  Q 1005.31 727.23 998.11 731.86
  Q 979.57 743.80 975.66 746.14
  Q 947.37 763.06 911.71 769.51
  C 903.51 771.00 895.72 770.92 888.00 770.94
  Q 869.18 771.00 851.57 765.16
  C 819.20 754.44 794.49 727.60 786.88 694.37
  Q 785.15 686.86 784.43 678.74
  Z"
/>
<path fill="#040702" d="
  M 1565.21 456.75
  Q 1563.70 456.57 1563.17 457.41
  A 0.62 0.62 0.0 0 0 1563.84 458.34
  Q 1565.10 458.03 1565.21 456.75
  L 1566.08 456.52
  A 1.66 1.61 13.5 0 0 1566.86 456.06
  Q 1588.07 433.26 1617.20 421.96
  Q 1619.74 420.98 1628.72 418.23
  Q 1634.95 416.33 1640.51 415.39
  Q 1657.28 412.55 1672.37 413.03
  Q 1677.68 413.20 1681.11 413.81
  C 1685.27 414.54 1688.39 414.58 1692.65 415.57
  Q 1707.19 418.95 1721.82 425.49
  Q 1731.37 429.75 1738.10 434.85
  Q 1746.90 441.52 1752.30 446.93
  Q 1757.80 452.45 1765.45 463.75
  A 4.30 4.28 18.3 0 1 1765.97 464.78
  L 1767.18 468.27
  A 1.26 1.26 0.0 0 0 1769.31 468.69
  Q 1790.97 444.47 1817.91 430.18
  Q 1828.40 424.61 1841.50 420.45
  Q 1853.99 416.49 1866.30 414.29
  C 1877.05 412.38 1886.47 412.70 1897.77 412.87
  C 1903.83 412.96 1907.81 413.94 1915.36 415.21
  Q 1930.07 417.70 1947.13 425.35
  C 1976.14 438.37 1998.22 461.72 2008.82 491.48
  Q 2011.53 499.07 2013.68 504.66
  Q 2014.22 506.04 2017.12 518.49
  Q 2017.72 521.07 2017.99 521.97
  C 2018.67 524.28 2018.39 526.55 2019.01 528.73
  Q 2019.98 532.21 2020.13 537.71
  A 12.45 11.72 40.1 0 0 2020.37 539.78
  C 2021.69 546.13 2021.67 553.18 2021.65 558.75
  Q 2021.33 630.87 2021.64 699.91
  Q 2021.66 706.55 2021.98 716.07
  Q 2022.34 726.92 2022.00 732.26
  Q 2021.77 736.01 2021.89 738.81
  C 2022.39 750.84 2022.12 762.95 2022.33 775.00
  Q 2022.55 787.15 2024.80 799.00
  Q 2025.81 804.32 2027.64 809.82
  Q 2028.86 813.47 2032.51 819.83
  Q 2037.85 829.13 2039.80 833.21
  Q 2043.27 840.46 2043.14 850.51
  A 5.06 4.87 -37.5 0 1 2042.94 851.83
  C 2042.17 854.48 2042.17 857.58 2041.03 860.19
  Q 2035.23 873.47 2023.21 879.47
  Q 2018.63 881.76 2010.11 883.51
  Q 2005.02 884.56 1989.42 884.84
  Q 1946.90 885.60 1898.88 884.76
  C 1893.34 884.67 1887.75 884.07 1881.53 883.57
  Q 1878.08 883.30 1871.57 881.38
  Q 1865.68 879.64 1862.06 877.61
  Q 1851.64 871.78 1846.53 861.47
  C 1842.58 853.53 1841.86 844.42 1843.38 836.13
  Q 1844.26 831.28 1847.26 822.75
  Q 1847.97 820.75 1850.52 810.80
  Q 1852.01 804.99 1852.23 798.59
  Q 1852.77 783.37 1852.80 777.00
  Q 1853.10 709.85 1853.11 696.50
  C 1853.11 684.21 1853.73 664.71 1853.51 649.49
  Q 1852.86 605.24 1852.76 601.75
  Q 1852.38 588.77 1850.58 580.37
  C 1848.91 572.58 1844.05 561.62 1835.97 559.03
  C 1831.49 557.60 1826.31 555.90 1821.23 557.77
  C 1819.12 558.55 1817.05 558.64 1814.72 559.78
  Q 1803.83 565.10 1797.86 575.11
  C 1793.67 582.14 1793.74 588.52 1793.71 598.22
  Q 1793.39 687.44 1793.90 766.89
  Q 1793.94 774.02 1794.24 784.64
  C 1794.43 791.58 1795.14 797.55 1796.38 804.82
  Q 1798.30 816.18 1805.21 831.25
  Q 1808.36 838.12 1809.61 849.87
  A 4.22 4.01 47.6 0 1 1809.59 850.94
  Q 1806.64 870.84 1789.92 878.90
  Q 1783.32 882.08 1772.41 883.14
  Q 1764.68 883.88 1754.25 883.89
  Q 1683.24 883.93 1677.50 883.96
  C 1665.50 884.04 1655.69 884.30 1645.27 881.80
  Q 1639.71 880.47 1635.20 878.15
  Q 1616.02 868.24 1615.78 844.81
  Q 1615.75 842.16 1616.23 840.30
  C 1616.76 838.25 1616.69 836.40 1617.30 834.20
  Q 1620.25 823.59 1621.63 819.10
  Q 1623.15 814.16 1623.42 811.72
  C 1623.78 808.58 1624.68 805.47 1624.88 801.73
  C 1625.40 792.20 1626.15 782.16 1626.21 771.41
  Q 1626.58 713.31 1625.88 673.98
  Q 1625.82 670.10 1625.81 666.25
  C 1625.72 629.51 1626.04 613.07 1624.68 588.74
  Q 1624.50 585.55 1623.96 583.37
  Q 1623.68 582.23 1622.70 578.02
  Q 1621.16 571.39 1616.62 564.90
  C 1614.24 561.48 1610.42 559.29 1606.02 558.39
  Q 1590.95 555.29 1578.74 565.72
  Q 1577.79 566.54 1574.40 570.16
  Q 1569.34 575.58 1567.20 583.31
  A 6.43 6.28 56.9 0 0 1566.99 584.37
  Q 1566.67 587.23 1566.64 590.52
  Q 1566.25 634.09 1566.37 778.85
  C 1566.38 786.80 1566.36 795.26 1567.53 802.67
  Q 1569.52 815.17 1574.69 827.12
  C 1580.18 839.80 1584.13 852.14 1576.33 865.16
  Q 1568.63 878.00 1553.82 881.83
  C 1544.65 884.20 1536.62 883.99 1524.00 884.04
  Q 1497.12 884.14 1421.00 884.04
  Q 1414.25 884.03 1409.87 882.97
  Q 1401.92 881.04 1399.09 879.72
  Q 1383.78 872.59 1379.67 855.77
  C 1378.30 850.14 1378.76 847.28 1379.92 841.77
  Q 1380.76 837.75 1383.04 833.29
  Q 1387.01 825.49 1389.99 819.51
  Q 1391.91 815.66 1394.27 807.23
  Q 1395.64 802.34 1396.28 794.40
  Q 1397.35 780.97 1397.49 758.25
  C 1397.90 686.66 1397.71 651.05 1398.71 595.02
  Q 1399.12 572.20 1398.89 535.54
  C 1398.85 528.45 1398.30 521.44 1397.53 515.50
  C 1396.51 507.56 1392.70 501.43 1387.84 492.39
  C 1384.53 486.24 1383.06 481.34 1382.42 474.95
  Q 1382.10 471.64 1382.83 468.10
  C 1383.97 462.52 1385.71 457.70 1389.25 453.76
  Q 1398.26 443.70 1410.30 440.34
  C 1413.85 439.35 1421.14 437.32 1426.11 436.26
  Q 1465.98 427.77 1473.17 426.42
  Q 1493.35 422.63 1516.18 419.40
  C 1526.28 417.97 1533.29 416.77 1540.62 418.16
  Q 1543.92 418.78 1548.57 420.84
  C 1557.17 424.64 1563.09 434.68 1564.69 443.60
  Q 1565.68 449.06 1563.90 455.26
  Q 1563.60 456.29 1565.21 456.75
  Z
  M 1550.26 489.62
  A 0.73 0.73 0.0 0 1 1549.18 488.93
  Q 1550.40 467.89 1549.90 449.76
  C 1549.63 440.04 1544.10 432.00 1533.73 432.11
  C 1518.11 432.28 1502.75 435.84 1487.41 438.48
  Q 1478.18 440.07 1462.95 443.20
  C 1446.11 446.66 1429.21 449.51 1412.76 454.73
  C 1402.28 458.06 1391.99 466.42 1397.99 478.83
  Q 1399.27 481.47 1403.21 488.01
  C 1411.89 502.39 1414.24 517.58 1414.26 534.50
  Q 1414.31 585.17 1414.10 633.25
  Q 1413.92 674.99 1412.84 772.00
  Q 1412.65 789.40 1411.02 802.26
  Q 1409.71 812.60 1404.78 823.91
  C 1401.64 831.09 1395.93 837.65 1394.17 845.25
  Q 1393.64 847.53 1394.78 850.73
  C 1398.78 861.94 1408.06 866.02 1419.25 866.23
  Q 1469.19 867.17 1537.50 866.52
  Q 1545.24 866.44 1551.82 864.57
  Q 1557.04 863.09 1560.46 859.86
  C 1566.06 854.58 1567.15 848.37 1564.17 841.34
  C 1561.72 835.57 1557.02 826.79 1554.82 818.67
  Q 1552.71 810.89 1552.29 807.74
  Q 1550.53 794.53 1550.37 777.43
  C 1550.04 741.34 1550.86 684.49 1550.84 638.93
  Q 1550.82 611.19 1551.33 586.00
  Q 1551.47 578.53 1552.66 574.90
  C 1556.94 561.73 1569.89 549.85 1582.62 544.07
  Q 1596.37 537.83 1611.04 540.88
  C 1623.14 543.39 1629.75 550.71 1635.45 561.43
  Q 1638.44 567.06 1639.83 575.26
  Q 1641.65 585.94 1641.60 593.51
  Q 1641.20 657.50 1641.38 675.94
  Q 1641.92 730.21 1641.14 788.01
  C 1640.94 802.49 1638.71 816.30 1634.04 829.64
  Q 1632.46 834.17 1631.18 840.49
  C 1628.87 851.87 1636.24 861.88 1647.11 864.39
  Q 1652.56 865.65 1656.76 865.79
  C 1677.00 866.47 1700.12 866.23 1738.75 866.24
  Q 1760.81 866.24 1776.24 865.05
  Q 1786.08 864.29 1792.36 856.36
  C 1796.65 850.94 1793.42 842.55 1790.54 837.02
  C 1785.77 827.89 1781.80 817.44 1780.60 807.47
  C 1779.81 800.95 1779.07 796.19 1778.91 790.36
  Q 1778.34 769.41 1778.36 763.50
  C 1778.58 706.95 1778.78 674.51 1778.51 630.38
  Q 1778.34 602.21 1778.80 583.79
  C 1778.90 579.49 1779.24 575.19 1780.80 571.78
  Q 1785.28 561.92 1793.80 554.07
  Q 1809.77 539.35 1831.25 540.38
  C 1842.43 540.92 1853.59 546.72 1858.99 556.77
  Q 1866.29 570.35 1867.35 585.98
  Q 1868.25 599.33 1868.36 612.25
  Q 1868.95 681.61 1868.34 749.87
  Q 1868.28 755.82 1867.89 769.62
  C 1867.53 782.29 1867.95 798.10 1865.91 812.02
  C 1864.61 820.84 1859.25 832.35 1858.07 839.59
  C 1855.40 855.98 1869.26 865.14 1883.75 866.22
  C 1895.33 867.08 1909.81 867.06 1919.50 867.20
  Q 1961.62 867.82 1994.06 867.15
  C 2007.37 866.88 2019.25 866.41 2026.48 853.95
  C 2029.82 848.18 2027.90 842.71 2024.63 837.51
  C 2017.22 825.73 2012.08 815.98 2009.78 804.23
  Q 2006.60 787.97 2006.48 769.25
  Q 2006.36 750.08 2006.04 567.51
  Q 2006.02 558.31 2004.65 545.26
  C 2001.85 518.71 1994.77 492.39 1978.70 470.81
  Q 1963.16 449.93 1939.87 438.94
  Q 1930.29 434.42 1914.90 430.51
  Q 1903.21 427.54 1890.53 427.36
  Q 1875.65 427.15 1865.96 428.97
  Q 1825.40 436.57 1793.99 464.00
  Q 1783.63 473.05 1770.62 487.37
  Q 1768.23 490.01 1766.60 491.13
  A 1.76 1.76 0.0 0 1 1764.01 490.45
  Q 1752.14 465.93 1731.01 449.36
  C 1713.88 435.92 1693.80 429.18 1672.81 427.85
  C 1650.17 426.42 1626.47 430.97 1606.74 441.98
  C 1593.84 449.18 1583.67 455.81 1574.64 465.14
  Q 1557.42 482.95 1553.46 487.21
  Q 1552.19 488.57 1550.26 489.62
  Z"
/>
<path fill="#040702" d="
  M 1229.85 462.86
  Q 1230.77 462.72 1231.00 462.25
  Q 1231.73 460.77 1233.07 457.96
  A 6.41 6.27 -12.9 0 1 1233.95 456.59
  C 1238.93 450.68 1243.19 444.73 1248.02 440.45
  Q 1258.89 430.78 1265.14 427.16
  Q 1283.95 416.24 1304.77 413.56
  Q 1322.83 411.24 1340.84 417.37
  C 1350.85 420.78 1360.34 426.06 1366.77 434.36
  Q 1375.66 445.85 1378.01 459.79
  Q 1378.88 464.92 1378.76 473.74
  C 1378.62 484.01 1379.17 492.54 1378.21 500.60
  Q 1377.29 508.23 1377.03 513.42
  Q 1376.89 516.14 1376.10 520.57
  C 1375.49 523.96 1375.76 528.41 1374.68 532.06
  Q 1374.11 533.99 1373.96 536.38
  C 1373.79 539.07 1372.70 541.32 1372.51 544.00
  Q 1372.45 544.92 1371.98 547.06
  Q 1369.65 557.55 1366.73 565.51
  C 1363.22 575.07 1357.65 584.15 1348.93 589.68
  Q 1345.77 591.69 1339.66 593.33
  C 1332.57 595.23 1324.23 592.45 1318.20 589.52
  C 1308.52 584.82 1295.74 576.35 1282.39 575.52
  Q 1272.75 574.92 1263.66 579.18
  Q 1244.22 588.29 1238.70 608.70
  Q 1237.57 612.86 1237.02 615.64
  A 12.97 12.90 52.4 0 0 1236.77 617.60
  Q 1236.15 629.81 1236.01 647.00
  Q 1236.00 648.63 1235.99 733.50
  Q 1235.99 756.46 1236.68 780.31
  Q 1236.80 784.53 1237.52 788.14
  C 1238.21 791.59 1238.16 794.89 1238.95 798.61
  Q 1241.43 810.28 1246.41 818.45
  Q 1254.34 831.49 1257.36 837.85
  Q 1264.60 853.09 1255.67 866.43
  C 1251.93 872.02 1245.72 877.39 1239.06 879.91
  Q 1234.66 881.57 1232.31 881.99
  Q 1228.94 882.60 1225.94 883.08
  Q 1222.44 883.65 1219.53 883.82
  Q 1207.28 884.53 1203.00 884.56
  Q 1137.89 884.95 1092.53 884.76
  C 1082.18 884.72 1070.74 882.50 1061.91 876.61
  C 1050.03 868.69 1043.91 852.98 1048.34 839.08
  Q 1049.41 835.74 1056.30 821.82
  Q 1061.70 810.92 1063.82 797.23
  Q 1065.81 784.31 1065.80 764.00
  Q 1065.78 737.71 1066.25 549.25
  Q 1066.27 543.26 1065.73 525.98
  C 1065.59 521.52 1064.48 517.43 1063.78 513.32
  Q 1062.39 505.11 1056.51 495.27
  Q 1052.75 488.99 1049.75 483.09
  Q 1047.42 478.51 1046.93 475.11
  Q 1044.10 455.28 1060.39 444.87
  C 1063.78 442.70 1069.45 440.27 1073.91 438.97
  Q 1087.77 434.92 1099.50 432.87
  Q 1120.18 429.27 1123.27 428.87
  Q 1125.13 428.63 1126.00 428.49
  C 1143.37 425.52 1162.03 422.64 1175.55 420.21
  C 1180.89 419.25 1185.10 418.90 1191.50 418.07
  Q 1203.65 416.49 1214.79 422.73
  C 1221.56 426.52 1225.88 433.44 1228.11 440.70
  C 1229.11 443.97 1228.98 447.13 1229.42 450.46
  A 7.64 7.47 -44.4 0 1 1229.37 452.68
  C 1228.86 455.61 1229.24 458.86 1228.48 461.44
  A 1.21 1.13 3.1 0 0 1229.85 462.86
  Z
  M 1212.60 507.48
  Q 1212.03 505.48 1212.18 503.24
  Q 1213.50 483.85 1213.06 458.25
  C 1212.87 446.65 1213.02 434.72 1198.83 432.86
  Q 1192.52 432.03 1186.80 432.89
  Q 1149.43 438.50 1111.25 445.74
  Q 1096.04 448.63 1081.50 452.26
  C 1072.04 454.63 1062.54 457.55 1061.21 468.34
  C 1060.78 471.86 1062.80 475.61 1064.69 478.23
  C 1070.18 485.85 1075.56 492.80 1077.96 500.60
  C 1081.71 512.81 1082.47 524.25 1082.43 537.50
  C 1082.25 592.44 1081.85 644.55 1081.74 700.52
  Q 1081.68 732.82 1081.23 771.07
  C 1081.01 790.25 1081.01 802.73 1074.96 818.04
  C 1072.46 824.37 1068.18 831.53 1065.36 836.68
  C 1063.75 839.62 1061.94 844.05 1062.19 846.98
  Q 1063.31 860.24 1075.60 864.40
  Q 1080.98 866.22 1086.51 866.31
  C 1120.10 866.85 1153.83 866.68 1185.41 866.66
  C 1196.21 866.66 1208.86 866.18 1219.73 865.69
  Q 1230.34 865.21 1238.01 860.56
  C 1242.36 857.93 1245.39 853.12 1243.80 847.74
  C 1241.82 841.08 1237.76 836.06 1232.38 827.74
  C 1221.84 811.47 1220.33 790.57 1220.42 769.49
  C 1220.63 724.29 1219.84 676.02 1219.98 629.00
  Q 1220.02 617.94 1221.79 607.73
  Q 1222.94 601.17 1225.83 595.64
  Q 1232.87 582.20 1239.82 575.00
  C 1253.16 561.16 1272.47 555.12 1291.15 559.30
  C 1303.51 562.07 1312.50 567.88 1325.75 574.66
  C 1340.07 581.99 1348.68 568.54 1352.32 557.11
  Q 1353.91 552.09 1354.76 548.11
  Q 1361.84 514.75 1362.65 479.75
  Q 1362.87 470.03 1361.86 461.14
  C 1360.93 453.03 1357.24 445.62 1350.79 440.07
  Q 1340.73 431.42 1327.80 428.96
  C 1294.05 422.52 1262.51 440.60 1242.00 466.26
  C 1232.72 477.87 1225.55 489.58 1216.36 504.84
  Q 1215.15 506.85 1213.57 507.85
  A 0.65 0.65 0.0 0 1 1212.60 507.48
  Z"
/>
<path fill="#040702" d="
  M 2246.29 805.58
  Q 2246.46 806.30 2246.77 807.38
  Q 2249.71 817.55 2256.09 825.91
  Q 2257.62 827.91 2260.90 834.52
  Q 2264.18 841.11 2264.80 848.34
  Q 2265.38 855.09 2262.04 862.28
  Q 2257.78 871.45 2249.46 877.17
  Q 2244.36 880.69 2239.39 881.83
  C 2235.91 882.64 2232.18 883.70 2228.98 883.93
  Q 2213.16 885.04 2201.50 885.12
  Q 2178.04 885.27 2107.10 884.69
  C 2101.41 884.64 2094.67 884.01 2090.71 883.78
  A 11.74 11.55 53.6 0 1 2088.52 883.43
  Q 2086.67 882.95 2083.05 882.14
  Q 2066.34 878.43 2058.34 862.88
  Q 2053.95 854.36 2054.53 844.49
  Q 2054.64 842.66 2056.06 838.27
  Q 2057.96 832.40 2064.03 820.02
  Q 2065.39 817.24 2068.02 808.69
  Q 2069.75 803.09 2070.39 796.93
  Q 2071.63 785.17 2071.70 776.26
  C 2072.10 722.65 2071.71 666.22 2071.87 621.92
  C 2072.03 579.10 2072.04 552.01 2071.68 528.76
  Q 2071.56 520.66 2069.90 515.07
  Q 2066.84 504.79 2063.11 498.69
  C 2057.08 488.85 2051.60 477.67 2052.65 466.87
  Q 2054.25 450.38 2070.54 442.79
  Q 2075.92 440.29 2082.34 438.38
  Q 2089.97 436.11 2098.69 434.25
  Q 2109.03 432.04 2134.01 427.30
  Q 2134.19 427.27 2145.99 425.50
  Q 2195.99 418.01 2196.00 418.01
  C 2204.28 417.52 2212.75 416.62 2219.70 419.74
  C 2228.73 423.80 2236.22 430.37 2238.99 439.76
  Q 2239.68 442.10 2241.04 448.66
  A 8.57 8.57 0.0 0 1 2241.20 450.76
  C 2241.00 455.19 2241.67 459.42 2241.67 464.02
  Q 2241.66 573.70 2241.63 589.00
  Q 2241.62 592.73 2241.32 596.99
  C 2240.88 603.35 2241.70 610.01 2241.69 615.00
  Q 2241.54 740.74 2242.08 764.75
  Q 2242.24 772.14 2242.66 782.45
  C 2242.86 787.50 2244.07 792.16 2244.33 797.12
  A 6.20 5.99 36.9 0 0 2244.55 798.50
  Q 2245.14 800.65 2246.29 805.58
  Z
  M 2088.33 549.31
  Q 2087.95 606.72 2088.15 638.24
  Q 2088.27 657.87 2087.94 686.79
  C 2087.53 721.40 2088.59 759.94 2086.59 794.93
  Q 2086.04 804.54 2082.58 815.89
  Q 2081.40 819.77 2077.41 827.32
  Q 2075.12 831.64 2071.92 838.63
  Q 2069.67 843.55 2069.79 845.76
  C 2070.54 860.23 2081.69 866.16 2094.76 866.79
  Q 2102.87 867.18 2125.75 867.26
  Q 2188.29 867.49 2193.25 867.50
  Q 2207.90 867.52 2223.86 866.67
  C 2234.41 866.11 2244.45 862.88 2249.70 853.08
  A 2.90 2.88 -27.4 0 0 2250.00 852.15
  C 2250.62 847.73 2248.54 844.09 2246.03 839.94
  Q 2244.74 837.82 2236.97 824.88
  Q 2232.50 817.43 2230.01 805.51
  Q 2226.16 787.08 2226.11 770.75
  C 2225.96 709.15 2226.21 666.17 2225.84 623.07
  C 2225.59 594.57 2226.15 568.27 2225.81 539.76
  Q 2225.48 511.71 2225.54 469.26
  Q 2225.55 463.29 2225.34 453.76
  C 2225.16 445.36 2222.66 436.02 2214.14 432.76
  C 2209.61 431.02 2202.21 431.28 2197.25 431.81
  Q 2180.44 433.60 2163.48 436.41
  Q 2137.32 440.74 2110.82 446.37
  Q 2099.62 448.75 2087.46 452.22
  Q 2082.14 453.73 2077.58 455.85
  C 2072.07 458.40 2067.68 460.96 2067.48 467.28
  Q 2067.26 474.23 2071.70 480.82
  C 2075.19 486.02 2080.37 493.84 2082.84 500.75
  Q 2085.99 509.58 2086.78 516.25
  Q 2088.45 530.38 2088.33 549.31
  Z"
/>
<path fill="#75c643" d="
  M 784.43 678.74
  Q 785.15 686.86 786.88 694.37
  C 794.49 727.60 819.20 754.44 851.57 765.16
  Q 869.18 771.00 888.00 770.94
  C 895.72 770.92 903.51 771.00 911.71 769.51
  Q 947.37 763.06 975.66 746.14
  Q 979.57 743.80 998.11 731.86
  Q 1005.31 727.23 1012.63 733.39
  C 1016.59 736.72 1016.42 747.93 1015.98 753.03
  Q 1014.46 770.95 1006.81 788.34
  Q 1003.46 795.96 997.22 805.98
  C 977.01 838.41 941.53 858.98 905.66 869.36
  Q 888.82 874.24 868.64 875.80
  Q 804.67 880.74 746.62 852.42
  C 738.72 848.56 730.57 843.05 723.07 838.17
  Q 705.95 827.04 692.87 813.11
  Q 671.15 789.97 657.41 763.59
  Q 641.22 732.51 636.03 698.00
  C 632.25 672.93 630.80 647.11 633.61 621.98
  Q 637.40 588.05 649.72 556.01
  Q 655.79 540.22 662.19 529.19
  C 668.91 517.61 677.25 505.19 686.44 494.53
  C 695.23 484.36 706.12 473.31 717.41 465.17
  C 728.69 457.05 742.73 448.95 756.36 442.46
  Q 765.25 438.24 774.26 435.53
  Q 799.86 427.82 819.77 426.47
  Q 848.41 424.53 877.86 430.13
  Q 890.40 432.51 898.47 435.23
  Q 923.06 443.50 944.11 457.60
  Q 957.52 466.59 968.14 477.86
  C 990.81 501.93 1006.71 531.29 1013.58 563.57
  Q 1015.12 570.82 1015.56 573.36
  Q 1020.66 602.66 1018.03 631.50
  C 1016.82 644.65 1009.74 652.84 996.49 654.98
  C 991.92 655.72 986.48 656.54 981.82 656.96
  Q 929.02 661.81 875.73 667.63
  Q 875.65 667.64 869.26 668.30
  Q 818.24 673.56 815.75 673.78
  Q 799.73 675.13 785.97 676.84
  A 1.76 1.76 0.0 0 0 784.43 678.74
  Z
  M 887.47 597.11
  Q 888.31 588.10 887.81 578.75
  Q 887.16 566.56 886.88 564.31
  Q 885.81 555.40 881.28 539.02
  C 878.49 528.93 873.46 519.61 866.89 512.42
  C 861.25 506.25 853.17 500.75 844.94 500.07
  Q 816.65 497.73 801.41 520.66
  C 793.50 532.55 788.10 546.08 785.54 560.72
  Q 781.80 582.00 782.87 604.61
  A 1.31 1.30 -0.7 0 0 784.16 605.86
  Q 788.14 605.92 791.75 605.57
  Q 832.93 601.68 883.25 599.12
  Q 885.56 599.00 886.97 597.99
  A 1.22 1.19 75.3 0 0 887.47 597.11
  Z"
/>
<path fill="#75c643" d="
  M 1550.26 489.62
  Q 1552.19 488.57 1553.46 487.21
  Q 1557.42 482.95 1574.64 465.14
  C 1583.67 455.81 1593.84 449.18 1606.74 441.98
  C 1626.47 430.97 1650.17 426.42 1672.81 427.85
  C 1693.80 429.18 1713.88 435.92 1731.01 449.36
  Q 1752.14 465.93 1764.01 490.45
  A 1.76 1.76 0.0 0 0 1766.60 491.13
  Q 1768.23 490.01 1770.62 487.37
  Q 1783.63 473.05 1793.99 464.00
  Q 1825.40 436.57 1865.96 428.97
  Q 1875.65 427.15 1890.53 427.36
  Q 1903.21 427.54 1914.90 430.51
  Q 1930.29 434.42 1939.87 438.94
  Q 1963.16 449.93 1978.70 470.81
  C 1994.77 492.39 2001.85 518.71 2004.65 545.26
  Q 2006.02 558.31 2006.04 567.51
  Q 2006.36 750.08 2006.48 769.25
  Q 2006.60 787.97 2009.78 804.23
  C 2012.08 815.98 2017.22 825.73 2024.63 837.51
  C 2027.90 842.71 2029.82 848.18 2026.48 853.95
  C 2019.25 866.41 2007.37 866.88 1994.06 867.15
  Q 1961.62 867.82 1919.50 867.20
  C 1909.81 867.06 1895.33 867.08 1883.75 866.22
  C 1869.26 865.14 1855.40 855.98 1858.07 839.59
  C 1859.25 832.35 1864.61 820.84 1865.91 812.02
  C 1867.95 798.10 1867.53 782.29 1867.89 769.62
  Q 1868.28 755.82 1868.34 749.87
  Q 1868.95 681.61 1868.36 612.25
  Q 1868.25 599.33 1867.35 585.98
  Q 1866.29 570.35 1858.99 556.77
  C 1853.59 546.72 1842.43 540.92 1831.25 540.38
  Q 1809.77 539.35 1793.80 554.07
  Q 1785.28 561.92 1780.80 571.78
  C 1779.24 575.19 1778.90 579.49 1778.80 583.79
  Q 1778.34 602.21 1778.51 630.38
  C 1778.78 674.51 1778.58 706.95 1778.36 763.50
  Q 1778.34 769.41 1778.91 790.36
  C 1779.07 796.19 1779.81 800.95 1780.60 807.47
  C 1781.80 817.44 1785.77 827.89 1790.54 837.02
  C 1793.42 842.55 1796.65 850.94 1792.36 856.36
  Q 1786.08 864.29 1776.24 865.05
  Q 1760.81 866.24 1738.75 866.24
  C 1700.12 866.23 1677.00 866.47 1656.76 865.79
  Q 1652.56 865.65 1647.11 864.39
  C 1636.24 861.88 1628.87 851.87 1631.18 840.49
  Q 1632.46 834.17 1634.04 829.64
  C 1638.71 816.30 1640.94 802.49 1641.14 788.01
  Q 1641.92 730.21 1641.38 675.94
  Q 1641.20 657.50 1641.60 593.51
  Q 1641.65 585.94 1639.83 575.26
  Q 1638.44 567.06 1635.45 561.43
  C 1629.75 550.71 1623.14 543.39 1611.04 540.88
  Q 1596.37 537.83 1582.62 544.07
  C 1569.89 549.85 1556.94 561.73 1552.66 574.90
  Q 1551.47 578.53 1551.33 586.00
  Q 1550.82 611.19 1550.84 638.93
  C 1550.86 684.49 1550.04 741.34 1550.37 777.43
  Q 1550.53 794.53 1552.29 807.74
  Q 1552.71 810.89 1554.82 818.67
  C 1557.02 826.79 1561.72 835.57 1564.17 841.34
  C 1567.15 848.37 1566.06 854.58 1560.46 859.86
  Q 1557.04 863.09 1551.82 864.57
  Q 1545.24 866.44 1537.50 866.52
  Q 1469.19 867.17 1419.25 866.23
  C 1408.06 866.02 1398.78 861.94 1394.78 850.73
  Q 1393.64 847.53 1394.17 845.25
  C 1395.93 837.65 1401.64 831.09 1404.78 823.91
  Q 1409.71 812.60 1411.02 802.26
  Q 1412.65 789.40 1412.84 772.00
  Q 1413.92 674.99 1414.10 633.25
  Q 1414.31 585.17 1414.26 534.50
  C 1414.24 517.58 1411.89 502.39 1403.21 488.01
  Q 1399.27 481.47 1397.99 478.83
  C 1391.99 466.42 1402.28 458.06 1412.76 454.73
  C 1429.21 449.51 1446.11 446.66 1462.95 443.20
  Q 1478.18 440.07 1487.41 438.48
  C 1502.75 435.84 1518.11 432.28 1533.73 432.11
  C 1544.10 432.00 1549.63 440.04 1549.90 449.76
  Q 1550.40 467.89 1549.18 488.93
  A 0.73 0.73 0.0 0 0 1550.26 489.62
  Z"
/>
<path fill="#75c643" d="
  M 1212.60 507.48
  A 0.65 0.65 0.0 0 0 1213.57 507.85
  Q 1215.15 506.85 1216.36 504.84
  C 1225.55 489.58 1232.72 477.87 1242.00 466.26
  C 1262.51 440.60 1294.05 422.52 1327.80 428.96
  Q 1340.73 431.42 1350.79 440.07
  C 1357.24 445.62 1360.93 453.03 1361.86 461.14
  Q 1362.87 470.03 1362.65 479.75
  Q 1361.84 514.75 1354.76 548.11
  Q 1353.91 552.09 1352.32 557.11
  C 1348.68 568.54 1340.07 581.99 1325.75 574.66
  C 1312.50 567.88 1303.51 562.07 1291.15 559.30
  C 1272.47 555.12 1253.16 561.16 1239.82 575.00
  Q 1232.87 582.20 1225.83 595.64
  Q 1222.94 601.17 1221.79 607.73
  Q 1220.02 617.94 1219.98 629.00
  C 1219.84 676.02 1220.63 724.29 1220.42 769.49
  C 1220.33 790.57 1221.84 811.47 1232.38 827.74
  C 1237.76 836.06 1241.82 841.08 1243.80 847.74
  C 1245.39 853.12 1242.36 857.93 1238.01 860.56
  Q 1230.34 865.21 1219.73 865.69
  C 1208.86 866.18 1196.21 866.66 1185.41 866.66
  C 1153.83 866.68 1120.10 866.85 1086.51 866.31
  Q 1080.98 866.22 1075.60 864.40
  Q 1063.31 860.24 1062.19 846.98
  C 1061.94 844.05 1063.75 839.62 1065.36 836.68
  C 1068.18 831.53 1072.46 824.37 1074.96 818.04
  C 1081.01 802.73 1081.01 790.25 1081.23 771.07
  Q 1081.68 732.82 1081.74 700.52
  C 1081.85 644.55 1082.25 592.44 1082.43 537.50
  C 1082.47 524.25 1081.71 512.81 1077.96 500.60
  C 1075.56 492.80 1070.18 485.85 1064.69 478.23
  C 1062.80 475.61 1060.78 471.86 1061.21 468.34
  C 1062.54 457.55 1072.04 454.63 1081.50 452.26
  Q 1096.04 448.63 1111.25 445.74
  Q 1149.43 438.50 1186.80 432.89
  Q 1192.52 432.03 1198.83 432.86
  C 1213.02 434.72 1212.87 446.65 1213.06 458.25
  Q 1213.50 483.85 1212.18 503.24
  Q 1212.03 505.48 1212.60 507.48
  Z"
/>
<path fill="#75c643" d="
  M 2088.33 549.31
  Q 2088.45 530.38 2086.78 516.25
  Q 2085.99 509.58 2082.84 500.75
  C 2080.37 493.84 2075.19 486.02 2071.70 480.82
  Q 2067.26 474.23 2067.48 467.28
  C 2067.68 460.96 2072.07 458.40 2077.58 455.85
  Q 2082.14 453.73 2087.46 452.22
  Q 2099.62 448.75 2110.82 446.37
  Q 2137.32 440.74 2163.48 436.41
  Q 2180.44 433.60 2197.25 431.81
  C 2202.21 431.28 2209.61 431.02 2214.14 432.76
  C 2222.66 436.02 2225.16 445.36 2225.34 453.76
  Q 2225.55 463.29 2225.54 469.26
  Q 2225.48 511.71 2225.81 539.76
  C 2226.15 568.27 2225.59 594.57 2225.84 623.07
  C 2226.21 666.17 2225.96 709.15 2226.11 770.75
  Q 2226.16 787.08 2230.01 805.51
  Q 2232.50 817.43 2236.97 824.88
  Q 2244.74 837.82 2246.03 839.94
  C 2248.54 844.09 2250.62 847.73 2250.00 852.15
  A 2.90 2.88 -27.4 0 1 2249.70 853.08
  C 2244.45 862.88 2234.41 866.11 2223.86 866.67
  Q 2207.90 867.52 2193.25 867.50
  Q 2188.29 867.49 2125.75 867.26
  Q 2102.87 867.18 2094.76 866.79
  C 2081.69 866.16 2070.54 860.23 2069.79 845.76
  Q 2069.67 843.55 2071.92 838.63
  Q 2075.12 831.64 2077.41 827.32
  Q 2081.40 819.77 2082.58 815.89
  Q 2086.04 804.54 2086.59 794.93
  C 2088.59 759.94 2087.53 721.40 2087.94 686.79
  Q 2088.27 657.87 2088.15 638.24
  Q 2087.95 606.72 2088.33 549.31
  Z"
/>
<path fill="#75c643" d="
  M 1565.21 456.75
  Q 1565.10 458.03 1563.84 458.34
  A 0.62 0.62 0.0 0 1 1563.17 457.41
  Q 1563.70 456.57 1565.21 456.75
  Z"
/>
<path fill="#040702" d="
  M 886.97 597.99
  Q 885.56 599.00 883.25 599.12
  Q 832.93 601.68 791.75 605.57
  Q 788.14 605.92 784.16 605.86
  A 1.31 1.30 -0.7 0 1 782.87 604.61
  Q 781.80 582.00 785.54 560.72
  C 788.10 546.08 793.50 532.55 801.41 520.66
  Q 816.65 497.73 844.94 500.07
  C 853.17 500.75 861.25 506.25 866.89 512.42
  C 873.46 519.61 878.49 528.93 881.28 539.02
  Q 885.81 555.40 886.88 564.31
  Q 887.16 566.56 887.81 578.75
  Q 888.31 588.10 887.47 597.11
  A 1.22 1.19 75.3 0 1 886.97 597.99
  Z
  M 871.52 587.46
  Q 871.96 563.93 866.28 544.70
  Q 863.97 536.89 857.99 527.60
  C 854.49 522.15 848.15 517.95 841.92 516.86
  Q 838.77 516.31 834.02 517.30
  Q 818.57 520.53 810.79 535.33
  Q 804.25 547.78 801.48 559.93
  Q 798.21 574.30 797.24 591.01
  A 1.20 1.20 0.0 0 0 798.52 592.28
  Q 808.84 591.58 820.49 591.18
  C 825.29 591.02 831.78 589.92 836.52 589.92
  Q 840.72 589.92 848.54 588.94
  Q 854.11 588.24 870.79 588.18
  A 0.74 0.73 -0.0 0 0 871.52 587.46
  Z"
/>
</svg>
