<?xml version="1.0" encoding="UTF-8" standalone="no"?>
<!DOCTYPE svg PUBLIC "-//W3C//DTD SVG 1.1//EN" "http://www.w3.org/Graphics/SVG/1.1/DTD/svg11.dtd">
<svg xmlns="http://www.w3.org/2000/svg" version="1.1" viewBox="0.00 0.00 720.00 956.00">
<g stroke-width="2.00" fill="none" stroke-linecap="butt">
<path stroke="#456317" vector-effect="non-scaling-stroke" d="
  M 702.06 900.22
  C 701.47 899.63 700.98 900.74 701.91 900.96"
/>
<path stroke="#456317" vector-effect="non-scaling-stroke" d="
  M 674.00 918.55
  Q 673.35 918.18 672.82 918.17
  A 0.40 0.39 79.2 0 0 672.45 918.72
  Q 672.87 919.74 673.98 920.10"
/>
<path stroke="#7d7d7d" vector-effect="non-scaling-stroke" d="
  M 363.67 33.41
  C 366.37 29.49 363.53 26.03 360.71 22.94
  Q 347.68 8.69 328.31 5.56
  Q 319.65 4.15 311.69 6.29
  C 289.42 12.24 273.23 30.43 273.91 54.11
  Q 274.21 64.73 276.82 73.04
  Q 277.56 75.41 278.69 76.60
  C 283.90 82.08 298.86 78.19 305.22 75.62
  Q 331.65 64.96 350.98 48.24
  Q 357.11 42.94 363.67 33.41"
/>
<path stroke="#7d7d7d" vector-effect="non-scaling-stroke" d="
  M 410.38 26.10
  C 407.76 29.00 407.57 31.44 408.89 34.92
  Q 411.14 40.85 415.18 46.64
  Q 424.14 59.47 437.79 72.99
  Q 444.56 79.69 454.62 86.88
  Q 464.39 93.85 474.79 96.71
  Q 479.26 97.95 482.35 94.95
  A 2.90 2.89 78.1 0 0 483.07 93.84
  Q 487.28 82.58 488.69 70.10
  C 490.07 57.76 487.84 44.26 481.43 34.17
  Q 470.95 17.69 451.34 14.46
  C 437.25 12.13 420.32 15.14 410.38 26.10"
/>
<path stroke="#456317" vector-effect="non-scaling-stroke" d="
  M 247.83 224.21
  Q 247.52 229.45 246.98 234.83
  Q 245.44 250.31 248.04 265.49
  Q 249.27 272.65 253.86 286.13
  C 258.08 298.53 262.33 313.13 268.37 324.38
  C 274.77 336.29 280.50 343.41 293.50 347.57
  Q 294.42 347.86 318.24 354.92
  C 326.75 357.44 334.72 359.22 342.52 359.94
  Q 347.63 360.41 354.76 361.04
  Q 361.84 361.66 375.47 360.27
  C 377.82 360.02 380.21 359.05 382.03 357.78
  Q 393.42 349.85 400.73 337.73
  Q 407.20 326.98 411.66 319.67
  Q 413.81 316.15 416.27 310.09
  C 420.73 299.14 424.98 292.66 433.17 279.44
  Q 437.16 272.99 444.75 266.91
  A 3.03 2.88 -76.1 0 1 445.33 266.54
  L 447.87 265.27
  A 6.21 6.13 7.7 0 0 449.72 263.88
  Q 458.03 254.77 468.73 247.47
  C 474.26 243.71 477.84 237.52 483.23 232.98
  C 496.94 221.42 509.79 209.15 518.91 193.70
  Q 520.98 190.19 521.71 186.22
  C 523.76 175.15 526.26 163.35 527.77 151.26
  C 528.74 143.50 527.63 137.53 523.17 130.52
  Q 519.05 124.03 516.85 121.62
  Q 515.72 120.38 512.39 119.66
  A 5.72 5.62 66.3 0 1 510.66 118.97
  C 501.13 113.29 492.18 107.43 485.63 98.24
  A 0.32 0.32 0.0 0 0 485.11 98.23
  C 480.75 104.00 472.92 101.62 467.05 99.26
  Q 460.08 96.45 453.39 91.94
  Q 427.92 74.77 411.43 49.67
  C 407.34 43.45 398.62 31.26 405.58 24.10
  A 0.42 0.42 0.0 0 0 405.54 23.48
  Q 394.97 14.93 381.17 18.07
  Q 374.18 19.67 368.64 24.09
  A 0.40 0.38 59.5 0 0 368.53 24.54
  Q 370.79 29.76 367.77 35.04
  C 359.47 49.54 345.13 59.83 330.72 68.41
  C 315.92 77.23 299.93 85.16 283.62 83.62
  Q 276.76 82.97 273.06 77.52
  Q 272.41 76.57 272.40 75.50
  A 0.60 0.60 0.0 0 0 271.43 75.03
  Q 263.75 80.87 257.81 84.30
  Q 253.69 86.68 250.76 87.01
  Q 245.85 87.56 243.18 89.53
  C 235.32 95.31 231.66 101.99 228.49 111.47
  Q 225.16 121.43 223.95 131.06
  Q 222.74 140.76 225.16 151.80
  C 231.60 181.24 243.62 208.27 260.18 233.84
  Q 261.07 235.22 260.96 236.41
  A 1.84 1.84 0.0 0 1 257.81 237.53
  Q 252.08 231.72 248.40 224.10
  A 0.30 0.30 0.0 0 0 247.83 224.21"
/>
<path stroke="#456317" vector-effect="non-scaling-stroke" d="
  M 548.91 153.03
  Q 550.68 171.37 546.88 190.97
  C 542.48 213.63 535.06 230.31 516.07 242.33
  Q 515.07 242.96 513.53 242.94
  A 0.47 0.46 -81.2 0 1 513.09 242.33
  C 514.24 238.65 518.20 235.45 522.02 231.77
  C 532.44 221.73 538.74 206.62 541.43 192.67
  Q 544.21 178.22 545.01 162.64
  Q 545.16 159.70 543.26 146.49
  C 542.01 137.84 542.33 130.25 543.15 120.87
  Q 543.40 118.03 542.56 114.96
  A 1.18 1.16 -3.0 0 0 541.61 114.12
  Q 538.61 113.64 537.30 116.68
  Q 534.46 123.28 533.91 132.21
  C 533.46 139.39 534.73 154.25 532.51 163.53
  Q 529.29 176.97 527.36 188.89
  C 526.52 194.08 528.26 199.64 527.46 202.75
  Q 526.71 205.63 524.71 208.97
  C 519.38 217.87 512.59 224.98 504.67 232.69
  C 502.03 235.27 498.94 237.57 496.13 238.89
  C 479.76 246.62 466.95 253.50 455.32 266.21
  C 449.85 272.19 447.68 280.45 446.67 288.12
  Q 446.25 291.26 446.77 301.25
  Q 447.63 317.86 452.17 336.42
  Q 462.23 377.54 473.22 415.56
  C 477.77 431.33 480.77 444.43 485.13 460.21
  Q 489.07 474.52 493.52 493.86
  Q 500.59 524.64 503.01 535.29
  A 1.26 1.26 0.0 0 1 502.00 536.81
  C 500.31 537.12 498.63 535.89 497.87 534.04
  Q 497.00 531.93 495.93 528.05
  Q 495.62 526.95 488.99 498.36
  Q 485.66 484.01 481.64 468.77
  Q 473.24 436.89 472.03 432.34
  C 471.51 430.42 471.27 429.05 469.37 428.11
  Q 442.73 414.87 419.28 399.48
  Q 417.39 398.24 409.88 392.17
  A 0.35 0.34 -49.4 0 0 409.41 392.21
  C 409.33 392.29 409.68 393.27 409.68 393.56
  C 409.51 402.06 408.07 411.28 406.24 419.91
  A 1.34 1.34 0.0 0 0 406.43 420.93
  C 413.24 431.15 418.55 442.18 426.66 457.61
  C 441.05 484.97 461.09 520.01 480.67 549.60
  Q 488.14 560.89 498.79 570.17
  Q 506.51 576.89 515.84 576.89
  Q 536.99 576.90 552.30 561.21
  C 555.26 558.19 558.41 553.63 558.50 549.00
  Q 558.57 544.75 558.35 542.24
  Q 555.91 514.72 548.91 484.62
  Q 546.24 473.15 544.00 466.51
  Q 538.91 451.44 532.09 432.93
  C 530.14 427.63 526.89 422.06 524.92 416.29
  C 520.66 403.81 517.98 393.26 514.39 381.87
  C 504.67 351.04 494.34 320.58 484.55 290.35
  Q 482.55 284.18 487.41 279.67
  Q 498.58 269.29 507.70 263.45
  Q 525.50 252.04 540.08 243.47
  C 542.93 241.79 546.01 239.19 547.25 236.95
  Q 556.66 220.00 560.01 204.80
  Q 565.09 181.71 562.87 157.08
  Q 562.11 148.69 561.42 138.75
  Q 560.90 131.33 563.66 124.73
  A 1.00 1.00 0.0 0 0 563.20 123.46
  L 559.50 121.51
  A 0.82 0.82 0.0 0 0 558.36 121.92
  Q 555.35 129.25 555.86 137.50
  Q 556.63 150.17 559.03 159.85
  C 559.86 163.17 559.87 166.12 560.47 170.49
  Q 560.68 172.05 560.14 177.57
  Q 557.94 199.76 556.29 207.09
  Q 555.99 208.41 555.15 209.71
  A 1.07 1.07 0.0 0 1 553.18 209.19
  C 552.55 195.84 554.32 182.97 554.56 169.01
  C 554.65 163.81 553.53 156.37 549.48 152.74
  A 0.34 0.34 0.0 0 0 548.91 153.03"
/>
<path stroke="#456317" vector-effect="non-scaling-stroke" d="
  M 529.31 130.50
  L 529.08 125.01
  A 2.67 2.66 24.8 0 0 528.50 123.44
  L 522.86 116.30
  A 3.12 3.12 0.0 0 0 520.27 115.11
  L 518.95 115.16
  A 0.72 0.72 0.0 0 0 518.49 116.40
  Q 525.02 122.54 528.92 130.60
  A 0.21 0.20 -59.1 0 0 529.31 130.50"
/>
<path stroke="#7c6d16" vector-effect="non-scaling-stroke" d="
  M 437.01 343.82
  Q 435.11 337.98 433.51 336.10
  Q 424.91 325.95 418.57 319.60
  A 0.36 0.35 -51.7 0 0 418.01 319.67
  Q 413.96 326.51 403.17 343.45
  C 397.91 351.70 387.10 363.84 376.96 365.37
  Q 369.29 366.52 361.01 366.45
  Q 341.79 366.28 322.99 361.86
  C 315.91 360.20 306.55 356.75 298.45 354.79
  C 291.31 353.06 280.76 349.11 275.53 343.73
  Q 267.87 335.87 263.03 325.95
  Q 258.34 316.33 257.10 312.66
  Q 249.19 289.37 247.36 284.06
  Q 244.81 276.70 243.90 272.45
  Q 241.85 262.87 241.66 260.54
  C 240.53 246.75 240.43 232.06 243.89 218.14
  A 2.25 2.23 37.1 0 0 243.65 216.47
  L 237.84 206.39
  A 0.45 0.45 0.0 0 0 237.38 206.18
  C 231.60 207.19 222.77 207.03 216.46 209.17
  Q 206.93 212.41 200.90 216.41
  Q 187.11 225.58 183.00 227.75
  Q 161.24 239.21 157.16 241.91
  Q 153.51 244.33 147.66 247.99
  A 0.19 0.18 59.9 0 0 147.60 248.24
  L 147.61 248.26
  A 0.26 0.25 -26.0 0 0 147.94 248.37
  Q 151.58 246.59 155.13 244.89
  C 161.26 241.97 169.38 239.56 173.84 237.79
  C 183.67 233.89 193.74 232.20 204.31 231.21
  Q 205.48 231.10 205.70 232.19
  Q 206.08 234.06 204.14 235.17
  C 190.14 243.16 179.20 250.51 160.75 262.85
  C 148.02 271.37 136.03 280.73 126.57 290.83
  Q 116.35 301.74 112.42 306.21
  A 0.14 0.14 0.0 0 0 112.59 306.42
  C 134.64 294.27 156.18 287.62 182.10 283.00
  C 186.59 282.20 190.32 282.21 195.74 281.84
  Q 202.05 281.41 212.55 283.40
  C 216.58 284.17 212.83 288.43 211.62 289.63
  Q 204.60 296.62 184.19 316.95
  C 171.32 329.77 153.90 343.57 142.91 353.41
  Q 132.08 363.12 123.35 374.06
  A 0.27 0.27 0.0 0 0 123.68 374.48
  C 138.15 367.70 151.55 361.96 167.37 358.36
  Q 185.24 354.29 204.66 349.18
  C 216.48 346.06 229.89 343.08 241.81 341.34
  A 2.61 2.47 -15.1 0 1 244.55 342.82
  Q 244.83 343.51 244.31 345.31
  C 237.98 367.08 230.35 386.20 220.48 410.52
  Q 206.05 446.04 202.32 458.05
  Q 197.69 472.96 196.38 479.46
  A 0.29 0.29 0.0 0 0 196.89 479.69
  Q 197.52 478.84 210.75 465.01
  Q 222.76 452.48 248.70 429.21
  Q 270.12 409.99 280.08 401.59
  Q 286.84 395.90 291.25 392.76
  Q 292.89 391.59 294.75 392.55
  A 1.27 1.26 4.8 0 1 295.38 393.29
  Q 297.43 399.47 298.53 407.50
  Q 300.89 424.80 301.35 440.75
  Q 302.20 469.73 301.11 518.35
  Q 300.96 525.02 300.57 527.51
  A 0.31 0.31 0.0 0 0 301.12 527.74
  Q 305.31 522.13 309.44 514.95
  Q 319.21 497.99 327.98 477.71
  Q 335.53 460.24 337.74 454.53
  Q 348.84 425.92 355.56 407.35
  A 1.69 1.62 19.3 0 1 357.67 406.39
  Q 358.34 406.62 358.63 407.16
  Q 368.34 425.34 372.45 445.16
  Q 379.16 477.55 379.92 512.00
  C 379.93 512.87 379.53 513.93 379.63 514.38
  A 0.30 0.30 0.0 0 0 380.22 514.40
  Q 384.15 500.09 387.23 483.75
  C 390.31 467.43 393.02 449.55 397.35 431.80
  Q 400.90 417.27 401.73 412.10
  Q 404.07 397.53 404.07 383.57
  A 1.56 1.56 0.0 0 1 406.59 382.35
  Q 426.75 398.26 449.51 410.99
  Q 464.76 419.52 469.34 422.43
  A 0.06 0.06 0.0 0 0 469.43 422.36
  L 461.47 395.25
  A 4.30 4.25 -82.0 0 0 459.68 392.85
  C 457.39 391.39 455.20 390.07 453.38 388.05
  Q 444.39 378.14 439.29 366.26
  C 437.56 362.24 436.78 357.35 435.62 353.38
  Q 432.93 344.15 427.32 335.49
  A 1.29 1.29 0.0 0 1 428.66 333.52
  C 433.00 334.38 434.74 339.19 436.82 343.89
  A 0.10 0.10 0.0 0 0 437.01 343.82"
/>
<path stroke="#7c6d16" vector-effect="non-scaling-stroke" d="
  M 140.92 271.49
  Q 144.23 269.06 149.14 265.40
  Q 169.00 250.57 186.89 239.27
  A 0.22 0.22 0.0 0 0 186.72 238.88
  Q 176.89 241.45 168.38 248.39
  Q 156.11 258.40 143.70 268.69
  Q 142.42 269.75 140.84 271.40
  A 0.06 0.06 0.0 0 0 140.92 271.49"
/>
<path stroke="#456317" vector-effect="non-scaling-stroke" d="
  M 117.50 293.37
  Q 101.20 308.89 94.45 316.22
  Q 74.83 337.53 56.92 360.66
  Q 46.11 374.61 35.16 393.09
  C 22.89 413.81 13.94 432.18 10.71 454.92
  Q 7.02 480.87 5.97 502.73
  Q 4.96 523.52 10.21 543.29
  Q 11.83 549.39 16.95 565.27
  Q 22.45 582.30 28.65 608.22
  C 30.16 614.51 28.88 620.66 31.21 627.05
  Q 36.51 641.57 44.79 661.95
  Q 51.84 679.30 59.73 694.05
  Q 69.27 711.88 83.86 725.85
  C 89.85 731.59 97.04 736.79 103.81 741.94
  Q 110.83 747.28 118.81 753.98
  Q 156.37 785.50 190.83 816.28
  Q 201.63 825.92 206.66 829.06
  C 215.54 834.60 226.32 840.21 237.00 840.28
  Q 247.39 840.35 260.73 839.91
  Q 282.64 839.19 303.21 829.45
  C 316.13 823.34 325.86 813.66 334.60 802.36
  Q 352.68 779.01 365.89 759.34
  A 0.32 0.31 -76.6 0 0 365.59 758.85
  Q 336.67 762.54 305.50 761.77
  Q 286.61 761.30 270.06 757.68
  A 1.55 1.52 -57.5 0 0 268.77 757.98
  L 252.51 770.82
  A 0.46 0.45 -40.9 0 0 252.46 771.49
  Q 259.18 778.53 265.23 785.77
  Q 267.15 788.07 266.72 790.99
  A 0.81 0.80 -73.4 0 1 265.58 791.61
  Q 263.49 790.62 260.64 787.91
  C 256.72 784.17 252.56 779.09 248.43 775.16
  Q 234.91 762.32 216.23 744.72
  A 7.45 7.41 80.0 0 0 214.57 743.55
  Q 209.91 741.13 196.79 734.70
  Q 180.34 726.64 168.41 712.61
  C 157.00 699.18 147.47 683.20 143.21 666.35
  A 3.47 3.44 9.1 0 0 141.68 664.26
  Q 123.25 652.87 99.89 638.13
  Q 91.28 632.69 79.70 627.32
  C 69.15 622.43 62.21 618.33 52.12 613.41
  C 48.50 611.64 46.16 611.07 42.01 610.19
  A 1.35 1.35 0.0 0 1 42.17 607.53
  C 46.05 607.19 49.47 605.07 53.38 607.36
  Q 68.50 616.22 83.85 622.86
  C 88.30 624.78 91.55 626.89 95.32 628.83
  Q 98.86 630.66 103.68 633.73
  Q 117.12 642.27 137.33 654.74
  C 138.17 655.25 139.86 657.17 140.44 657.31
  A 0.37 0.36 -1.7 0 0 140.88 656.85
  Q 137.70 646.16 135.58 633.98
  Q 131.65 611.35 129.37 590.47
  Q 128.07 578.60 126.72 565.04
  C 126.34 561.16 126.43 557.98 126.01 554.83
  Q 125.54 551.33 125.41 547.15
  Q 124.43 515.45 124.38 508.74
  Q 124.32 501.08 123.35 493.33
  C 121.50 478.45 120.22 463.44 120.74 449.01
  Q 121.23 435.09 122.15 415.18
  Q 122.70 403.14 123.63 397.62
  Q 125.73 385.08 127.45 380.39
  Q 128.22 378.28 128.29 378.01
  A 0.45 0.45 0.0 0 0 127.64 377.51
  C 124.32 379.27 121.27 380.56 118.27 377.77
  A 2.92 2.45 -58.2 0 1 117.82 374.63
  Q 119.30 371.33 122.03 367.77
  Q 127.26 360.96 133.71 354.71
  C 137.46 351.07 142.61 346.12 147.62 341.99
  C 157.87 333.55 169.85 323.62 180.98 312.49
  C 192.77 300.70 200.20 293.27 206.62 287.66
  A 0.40 0.40 0.0 0 0 206.36 286.96
  Q 194.20 286.69 182.14 288.62
  C 162.16 291.82 142.11 297.39 123.47 305.88
  Q 112.05 311.08 111.14 311.44
  C 108.82 312.36 107.67 314.33 104.81 313.64
  A 0.79 0.78 -88.9 0 1 104.24 313.04
  Q 103.83 311.07 104.79 309.79
  Q 108.67 304.63 117.79 293.64
  A 0.20 0.20 0.0 0 0 117.50 293.37"
/>
<path stroke="#456317" vector-effect="non-scaling-stroke" d="
  M 195.41 462.65
  Q 200.74 444.39 207.82 427.05
  Q 218.62 400.60 225.23 383.77
  Q 231.69 367.33 235.25 355.76
  Q 236.70 351.04 238.25 347.45
  A 0.28 0.27 -83.9 0 0 237.95 347.07
  C 216.24 351.08 194.61 357.62 171.90 362.50
  C 159.61 365.14 147.07 368.74 135.88 374.19
  Q 134.24 374.99 133.60 377.67
  Q 130.39 391.20 129.96 394.39
  Q 127.70 411.22 127.59 426.52
  Q 127.55 432.21 126.76 446.00
  C 126.03 458.74 126.77 473.10 128.37 486.21
  Q 129.66 496.74 129.83 502.82
  C 130.07 510.96 130.66 517.64 130.85 527.06
  Q 131.25 547.99 132.18 558.86
  Q 133.84 578.34 136.26 598.75
  Q 138.97 621.53 142.21 637.52
  Q 144.49 648.73 148.04 662.32
  Q 155.38 690.34 176.11 712.60
  Q 185.35 722.52 195.81 727.58
  C 201.81 730.48 207.81 733.78 213.38 736.64
  Q 218.49 739.27 223.32 740.14
  Q 224.48 740.35 242.52 745.28
  Q 248.58 746.93 255.58 748.50
  Q 267.10 751.09 268.72 751.55
  Q 276.69 753.80 283.98 754.67
  Q 295.75 756.07 299.51 756.25
  Q 303.80 756.46 329.97 756.28
  Q 338.43 756.22 345.48 755.54
  C 358.96 754.24 363.44 754.17 377.01 751.91
  Q 388.93 749.92 405.74 750.01
  Q 421.56 750.09 428.08 750.49
  Q 442.28 751.34 445.93 751.28
  C 451.42 751.17 458.81 751.42 466.78 751.87
  Q 484.21 752.86 491.49 753.78
  Q 499.01 754.73 505.01 756.34
  A 6.69 6.42 52.2 0 0 506.57 756.57
  C 512.45 756.73 517.73 755.44 522.76 755.06
  Q 535.01 754.13 554.04 752.62
  C 560.00 752.15 565.73 752.56 571.01 752.03
  Q 579.07 751.21 591.33 751.30
  A 1.45 1.45 0.0 0 1 592.66 752.21
  Q 593.63 754.62 591.82 755.86
  C 590.48 756.77 588.92 757.66 587.33 757.21
  Q 585.35 756.66 583.43 756.94
  A 0.30 0.30 0.0 0 0 583.17 757.25
  L 583.60 767.77
  A 0.19 0.19 0.0 0 0 583.94 767.88
  Q 589.68 760.34 593.31 755.80
  C 598.11 749.80 598.48 743.81 598.92 736.13
  A 0.74 0.73 -89.3 0 0 598.16 735.35
  L 597.12 735.40
  A 3.67 3.54 54.4 0 1 595.59 735.12
  Q 590.10 732.81 584.00 732.62
  Q 567.11 732.10 552.03 734.31
  C 539.79 736.11 526.97 737.19 515.00 735.55
  A 1.01 1.01 0.0 0 1 514.13 734.69
  L 513.91 733.12
  A 0.67 0.67 0.0 0 1 514.62 732.35
  Q 515.78 732.43 531.44 731.45
  C 544.65 730.63 557.55 728.34 570.25 727.61
  Q 578.38 727.14 586.73 727.59
  Q 593.98 727.98 598.47 730.66
  A 0.32 0.31 -78.6 0 0 598.94 730.34
  L 596.97 716.71
  A 3.28 3.27 14.8 0 0 595.73 714.59
  Q 591.87 711.63 587.92 711.44
  Q 586.98 711.40 579.63 712.12
  C 561.89 713.87 543.91 716.81 527.75 718.25
  C 520.37 718.91 514.89 719.16 509.62 717.37
  A 1.15 1.15 0.0 0 1 509.59 715.20
  Q 510.91 714.70 512.32 714.58
  Q 544.76 711.65 565.49 708.45
  C 573.56 707.21 581.89 706.81 589.76 707.12
  A 4.48 4.48 0.0 0 1 592.84 708.54
  L 595.08 710.95
  A 0.43 0.43 0.0 0 0 595.79 710.48
  C 593.60 705.64 591.35 699.61 591.67 694.13
  A 1.75 1.75 0.0 0 0 591.17 692.81
  C 587.57 689.16 583.68 689.28 578.81 689.78
  Q 571.25 690.56 564.74 691.48
  Q 543.52 694.47 524.23 697.20
  Q 519.63 697.85 515.46 697.62
  Q 513.90 697.53 513.33 696.51
  A 1.97 1.93 72.4 0 1 514.80 693.59
  Q 515.40 693.53 516.73 693.34
  Q 534.29 690.78 560.52 686.84
  Q 570.47 685.34 577.39 685.03
  C 584.32 684.73 589.21 684.18 593.59 688.98
  A 0.68 0.68 0.0 0 0 594.74 688.74
  C 596.58 683.34 592.84 676.46 589.75 672.17
  C 587.75 669.40 587.18 668.08 583.88 667.84
  C 572.04 667.00 561.99 668.02 548.60 670.85
  C 536.53 673.41 527.47 675.12 515.57 675.92
  C 505.78 676.57 500.17 676.73 495.05 677.39
  Q 490.35 677.99 484.66 676.48
  A 1.43 1.40 -2.2 0 1 483.68 675.59
  Q 482.94 673.51 483.48 671.15
  A 2.86 2.79 73.5 0 1 484.16 669.86
  Q 484.68 669.30 489.06 667.32
  Q 501.65 661.64 508.60 661.34
  A 0.48 0.48 0.0 0 0 509.06 660.89
  L 509.90 647.83
  A 0.26 0.25 74.4 0 0 509.50 647.60
  C 506.55 649.64 501.97 649.54 498.32 650.51
  Q 490.47 652.60 479.48 653.65
  C 472.46 654.32 467.35 658.42 462.00 663.00
  C 454.09 669.78 443.73 679.40 434.40 684.88
  Q 420.51 693.04 403.66 696.72
  C 394.35 698.76 385.38 698.57 372.50 699.10
  Q 358.14 699.68 344.28 701.07
  C 337.08 701.79 327.41 702.28 320.22 703.49
  C 318.04 703.85 315.56 703.75 313.33 704.00
  Q 311.52 704.20 308.17 704.07
  C 294.13 703.53 281.32 701.70 266.62 697.88
  Q 248.90 693.27 236.94 688.81
  Q 224.69 684.25 220.01 681.79
  Q 209.95 676.51 201.50 668.26
  C 198.66 665.49 199.52 659.77 199.04 656.25
  Q 197.14 642.48 195.70 628.71
  C 195.18 623.75 195.23 619.25 194.90 614.55
  Q 194.64 610.66 194.51 603.93
  Q 193.88 569.44 192.80 545.25
  C 191.52 516.20 190.44 490.17 189.65 466.75
  Q 189.41 459.89 188.91 453.09
  C 188.12 442.35 188.16 434.22 187.64 422.75
  Q 186.75 403.01 187.29 384.72
  A 0.97 0.96 10.1 0 1 188.56 383.84
  L 189.09 384.01
  A 0.20 0.18 88.9 0 1 189.21 384.14
  Q 191.67 392.55 192.22 402.50
  Q 193.04 417.58 195.08 462.61
  A 0.17 0.17 0.0 0 0 195.41 462.65"
/>
<path stroke="#456317" vector-effect="non-scaling-stroke" d="
  M 388.71 500.15
  C 386.76 507.18 386.06 513.24 382.04 519.50
  Q 380.12 522.47 377.61 521.65
  Q 375.76 521.06 375.57 519.12
  Q 372.52 486.96 370.27 467.26
  Q 368.69 453.47 364.60 436.97
  C 362.79 429.64 360.92 425.49 357.62 416.67
  A 0.11 0.11 0.0 0 0 357.42 416.67
  Q 344.74 454.52 327.62 491.93
  C 324.51 498.72 320.61 505.39 316.45 512.96
  Q 312.56 520.06 305.31 529.83
  Q 302.99 532.96 300.49 533.48
  Q 296.77 534.25 296.23 530.76
  Q 295.44 525.62 295.45 525.26
  Q 295.66 509.68 295.61 499.55
  C 295.60 497.89 295.98 496.03 295.99 494.25
  Q 296.04 484.56 296.02 450.00
  C 296.02 448.14 295.53 445.54 295.52 443.33
  Q 295.49 421.23 291.72 399.23
  A 0.34 0.34 0.0 0 0 291.16 399.04
  C 281.56 407.98 269.48 417.63 258.53 427.59
  Q 233.74 450.14 230.00 453.76
  Q 215.87 467.46 201.50 481.98
  Q 199.22 484.29 196.36 485.37
  A 0.76 0.75 -13.7 0 0 195.88 486.15
  Q 196.33 490.17 196.43 494.00
  Q 197.17 522.98 198.16 543.08
  Q 199.46 569.51 199.86 598.75
  C 199.97 606.76 200.62 616.76 201.05 625.74
  Q 201.38 632.69 203.72 648.31
  C 204.52 653.63 204.96 659.04 205.42 663.13
  A 2.90 2.86 18.4 0 0 206.33 664.92
  C 213.56 671.65 220.91 676.57 230.84 680.54
  Q 243.40 685.55 255.30 689.03
  C 257.26 689.60 259.29 690.27 261.05 689.29
  Q 270.90 683.74 280.67 675.93
  Q 297.81 662.22 313.88 646.65
  C 322.31 638.47 329.83 629.87 336.34 623.10
  Q 349.84 609.04 359.42 592.22
  Q 369.38 574.71 374.82 558.36
  Q 379.35 544.74 384.18 526.32
  Q 385.61 520.84 386.73 514.35
  C 387.88 507.72 388.78 503.52 388.86 500.17
  A 0.08 0.08 0.0 0 0 388.71 500.15"
/>
<path stroke="#456317" vector-effect="non-scaling-stroke" d="
  M 520.42 582.88
  Q 520.60 588.99 520.48 590.26
  C 519.85 597.22 520.03 603.94 518.98 610.56
  Q 517.41 620.43 515.19 651.26
  Q 514.07 666.92 514.13 670.20
  A 0.57 0.56 87.2 0 0 514.74 670.76
  Q 530.00 669.52 536.98 667.93
  Q 551.53 664.60 563.76 663.23
  Q 577.16 661.73 583.97 662.95
  A 0.51 0.51 0.0 0 0 584.57 662.42
  Q 584.21 656.86 584.84 650.83
  C 585.23 647.05 585.17 644.75 585.36 640.50
  Q 585.50 637.33 587.73 619.90
  C 588.48 614.07 588.69 607.89 589.32 603.26
  Q 591.20 589.30 591.43 582.24
  Q 591.48 580.78 591.92 576.50
  Q 592.31 572.75 592.28 551.67
  Q 592.27 538.71 590.92 526.90
  Q 590.31 521.54 587.45 497.25
  Q 586.36 488.05 586.16 477.61
  C 586.04 471.41 585.53 464.98 582.54 459.43
  Q 576.09 447.44 565.56 437.72
  Q 552.50 425.66 534.61 424.18
  A 0.26 0.26 0.0 0 0 534.36 424.56
  Q 536.25 428.00 537.52 431.47
  Q 541.53 442.47 547.36 458.83
  Q 552.10 472.11 555.32 486.74
  Q 561.02 512.63 563.62 536.03
  Q 564.87 547.22 563.56 552.53
  Q 561.61 560.47 554.11 567.15
  Q 539.88 579.81 522.96 582.23
  Q 521.94 582.37 520.92 582.36
  A 0.50 0.50 0.0 0 0 520.42 582.88"
/>
<path stroke="#456317" vector-effect="non-scaling-stroke" d="
  M 352.35 612.46
  A 0.13 0.13 0.0 0 0 352.52 612.65
  Q 364.64 604.12 377.20 594.18
  Q 390.07 584.00 404.24 574.24
  C 416.03 566.13 424.24 561.28 433.87 553.28
  Q 438.64 549.31 447.00 543.25
  Q 449.17 541.67 461.65 531.05
  A 0.59 0.58 54.4 0 0 461.77 530.30
  Q 449.45 510.27 445.89 503.87
  Q 439.93 493.15 429.76 475.57
  A 0.21 0.21 0.0 0 0 429.45 475.51
  L 395.30 502.48
  A 3.55 3.54 73.3 0 0 393.97 504.96
  Q 393.28 513.36 391.18 522.23
  Q 387.23 538.85 382.04 555.09
  C 375.48 575.65 365.84 595.78 352.35 612.46"
/>
<path stroke="#456317" vector-effect="non-scaling-stroke" d="
  M 607.05 534.40
  L 597.90 534.78
  A 0.44 0.43 89.3 0 0 597.48 535.22
  L 597.48 543.65
  A 0.08 0.08 0.0 0 0 597.62 543.70
  Q 601.32 539.08 607.24 534.95
  A 0.30 0.30 0.0 0 0 607.05 534.40"
/>
<path stroke="#456317" vector-effect="non-scaling-stroke" d="
  M 328.33 697.19
  C 349.92 694.96 372.96 693.84 393.53 693.09
  C 396.11 693.00 398.54 693.12 400.14 690.92
  Q 404.53 684.93 419.81 664.05
  Q 421.04 662.37 428.11 651.38
  A 1.51 1.49 7.7 0 1 428.95 650.75
  Q 432.22 649.77 432.29 649.76
  Q 443.94 648.52 453.97 648.25
  C 459.05 648.10 466.23 647.04 471.08 647.67
  Q 473.44 647.98 475.88 647.82
  C 479.59 647.56 483.41 647.54 485.40 647.49
  A 26.56 26.50 -52.7 0 0 491.00 646.73
  Q 500.38 644.39 509.52 643.52
  A 0.71 0.71 0.0 0 0 510.16 642.87
  C 511.37 627.61 512.19 617.45 513.67 604.91
  C 514.56 597.36 514.64 591.82 515.22 583.21
  A 0.75 0.74 88.1 0 0 514.38 582.42
  Q 513.50 582.54 512.50 582.42
  Q 502.12 581.17 494.33 573.92
  Q 484.33 564.61 475.95 553.33
  A 1.21 1.19 -21.5 0 0 474.85 552.86
  Q 453.10 555.60 433.03 563.26
  Q 427.77 565.26 422.39 568.63
  Q 417.25 571.86 393.54 588.53
  Q 389.16 591.61 388.09 593.62
  C 380.20 608.44 370.18 624.93 361.49 640.08
  Q 340.28 677.06 335.75 685.25
  Q 332.39 691.32 328.20 696.96
  A 0.15 0.14 15.9 0 0 328.33 697.19"
/>
<path stroke="#7c6d16" vector-effect="non-scaling-stroke" d="
  M 597.45 583.57
  L 596.92 590.48"
/>
<path stroke="#456317" vector-effect="non-scaling-stroke" d="
  M 596.92 590.48
  L 595.67 598.57
  A 0.37 0.37 0.0 0 0 596.15 598.98
  C 606.06 595.68 613.83 591.96 625.41 586.68
  A 0.25 0.24 -43.1 0 0 625.43 586.24
  L 598.03 571.81
  A 0.23 0.23 0.0 0 0 597.69 572.00
  L 597.45 583.57"
/>
<path stroke="#c0d02d" vector-effect="non-scaling-stroke" d="
  M 596.92 590.48
  Q 598.80 587.17 597.45 583.57"
/>
<path stroke="#456317" vector-effect="non-scaling-stroke" d="
  M 594.14 610.07
  C 594.22 610.67 594.40 610.92 594.34 611.59
  Q 593.36 622.61 591.64 632.35
  A 0.58 0.58 0.0 0 0 592.32 633.02
  L 629.38 625.87
  A 0.43 0.43 0.0 0 0 629.47 625.06
  Q 609.29 616.21 595.86 610.66
  C 595.24 610.40 595.07 609.96 594.65 609.73
  A 0.34 0.34 0.0 0 0 594.14 610.07"
/>
<path stroke="#456317" vector-effect="non-scaling-stroke" d="
  M 615.53 653.76
  Q 613.05 652.16 607.60 649.65
  Q 606.53 649.16 591.29 643.04
  A 0.34 0.34 0.0 0 0 590.83 643.33
  L 589.96 656.95
  A 0.24 0.24 0.0 0 0 590.20 657.21
  Q 598.27 657.25 606.53 656.33
  Q 611.15 655.82 615.47 654.27
  A 0.29 0.28 51.9 0 0 615.53 653.76"
/>
<path stroke="#456317" vector-effect="non-scaling-stroke" d="
  M 707.26 914.43
  Q 702.95 907.94 700.39 905.91
  C 694.19 900.98 689.49 898.14 687.17 893.60
  A 0.95 0.95 0.0 0 1 688.19 892.23
  C 690.29 892.60 691.45 894.04 693.31 894.26
  Q 703.73 895.47 714.29 894.95
  A 0.48 0.48 0.0 0 0 714.61 894.14
  C 707.42 886.38 698.36 879.15 689.13 872.75
  Q 657.46 850.79 623.63 828.28
  C 614.95 822.51 604.74 815.24 597.97 809.34
  Q 590.71 803.01 589.23 800.54
  Q 585.25 793.92 581.77 784.55
  Q 579.48 778.40 578.74 771.30
  Q 577.67 760.96 577.41 757.70
  A 0.71 0.70 3.2 0 0 576.83 757.06
  Q 575.28 756.78 572.44 757.11
  C 567.46 757.69 561.14 757.38 557.47 757.64
  Q 547.89 758.34 527.08 759.86
  C 522.73 760.18 513.88 761.98 506.87 761.55
  A 0.45 0.45 0.0 0 0 506.39 762.01
  Q 506.65 771.94 506.66 783.76
  C 506.67 787.47 506.53 789.27 504.30 791.82
  C 499.38 797.45 495.93 802.64 498.38 810.56
  Q 501.11 819.36 505.93 833.03
  C 508.53 840.42 511.05 848.25 514.58 854.96
  Q 523.10 871.18 534.27 889.27
  Q 540.50 899.37 546.32 905.40
  Q 554.35 913.73 565.20 921.32
  Q 584.43 934.77 606.16 947.07
  Q 608.50 948.40 610.75 950.30
  A 0.40 0.40 0.0 0 0 611.39 950.11
  Q 614.54 939.71 615.75 928.02
  Q 615.92 926.35 617.10 923.77
  A 0.94 0.93 11.3 0 1 617.94 923.22
  Q 621.37 923.18 625.26 924.74
  Q 638.54 930.07 649.59 933.70
  Q 652.79 934.75 656.97 934.42
  Q 667.92 933.54 674.37 932.65
  A 0.52 0.52 0.0 0 0 674.77 931.91
  C 673.15 928.61 671.92 925.83 669.32 922.97
  Q 665.18 918.41 660.59 913.82
  A 1.87 1.73 45.0 0 1 660.49 911.28
  Q 660.97 910.80 661.97 910.55
  A 1.58 1.55 -41.3 0 1 662.87 910.60
  Q 668.13 912.47 675.27 913.24
  Q 689.19 914.72 699.56 914.59
  A 5.28 4.81 -35.6 0 1 700.75 914.73
  Q 702.27 915.11 706.92 915.06
  A 0.41 0.41 0.0 0 0 707.26 914.43"
/>
<path stroke="#7d7d7d" vector-effect="non-scaling-stroke" d="
  M 313.00 44.04
  C 318.78 44.98 323.47 44.77 327.27 40.19
  C 328.53 38.68 329.18 35.78 329.84 34.53
  A 1.24 1.22 -84.5 0 1 330.58 33.91
  C 334.20 32.79 338.78 32.97 342.82 32.77
  C 345.61 32.64 347.86 29.68 345.57 27.19
  C 342.04 23.34 333.75 23.86 328.71 24.25
  A 2.38 2.29 57.3 0 1 327.32 23.92
  C 325.24 22.69 323.44 21.34 321.21 20.98
  C 311.91 19.48 303.09 25.74 303.96 35.63
  A 2.47 2.47 0.0 0 1 303.52 37.27
  C 300.74 41.26 291.81 50.84 299.11 54.89
  A 1.84 1.78 56.8 0 0 300.13 55.12
  C 304.74 54.82 307.52 46.85 312.01 44.23
  A 1.52 1.50 33.9 0 1 313.00 44.04"
/>
<path stroke="#7d7d7d" vector-effect="non-scaling-stroke" d="
  M 467.82 73.25
  Q 471.51 71.79 472.21 67.43
  C 473.02 62.38 470.45 58.39 467.77 53.88
  A 3.70 3.70 0.0 0 1 467.47 50.74
  Q 470.62 42.03 463.64 35.82
  Q 456.73 29.67 448.54 33.57
  A 4.00 3.98 43.2 0 1 445.29 33.66
  Q 438.70 30.93 431.60 30.74
  Q 427.06 30.62 425.92 34.27
  Q 424.75 38.01 428.47 39.00
  Q 436.53 41.15 437.35 41.43
  C 442.04 43.03 442.16 45.15 443.70 49.53
  Q 446.73 58.10 455.76 58.02
  A 2.74 2.73 69.6 0 1 457.87 58.99
  C 460.61 62.23 461.37 64.87 463.33 70.11
  Q 464.04 72.00 466.71 73.22
  A 1.43 1.42 46.4 0 0 467.82 73.25"
/>
<path stroke="#456317" vector-effect="non-scaling-stroke" d="
  M 512.68 156.56
  Q 512.51 156.61 512.20 156.94
  Q 498.60 171.65 480.56 175.80
  Q 476.77 176.67 454.08 182.24
  Q 446.01 184.22 436.84 185.00
  Q 422.11 186.26 418.27 186.41
  C 410.16 186.73 399.97 188.27 393.26 188.68
  Q 371.11 190.03 360.07 188.86
  Q 341.94 186.94 317.28 179.50
  Q 311.36 177.71 305.64 175.04
  C 293.57 169.39 281.19 161.58 270.89 156.18
  Q 261.84 151.43 257.24 147.20
  Q 250.01 140.56 245.62 132.41
  C 244.45 130.23 243.94 128.06 243.19 125.30
  A 1.04 1.03 -41.7 0 0 241.23 125.19
  C 239.23 130.16 242.48 135.92 245.66 140.50
  C 251.46 148.86 258.71 154.05 268.88 159.84
  Q 286.25 169.73 291.15 172.65
  C 297.35 176.34 305.53 180.34 312.30 182.69
  Q 331.17 189.23 352.64 193.18
  Q 361.52 194.81 370.03 194.83
  Q 381.86 194.85 387.51 194.24
  Q 421.84 190.51 436.47 189.34
  Q 444.25 188.71 452.40 186.80
  Q 481.52 179.98 485.85 178.61
  Q 500.73 173.93 511.19 163.28
  C 512.64 161.81 514.06 159.75 513.85 157.36
  A 0.92 0.91 79.2 0 0 512.68 156.56"
/>
</g>
<path fill="#000000" d="
  M 720.00 893.83
  L 720.00 896.43
  L 717.76 898.55
  A 1.77 1.74 -72.0 0 1 716.95 898.97
  Q 709.93 900.42 702.74 899.68
  Q 702.38 899.64 702.06 900.22
  C 701.47 899.63 700.98 900.74 701.91 900.96
  Q 701.89 901.32 701.99 901.61
  Q 702.13 901.98 702.40 901.97
  Q 702.58 901.96 702.73 901.97
  A 1.01 1.01 0.0 0 1 703.25 902.18
  Q 710.06 907.60 712.81 915.67
  A 2.47 2.46 -22.5 0 1 711.56 918.68
  Q 709.37 919.76 706.25 919.74
  C 700.73 919.70 694.11 919.78 687.50 919.18
  C 683.21 918.79 678.87 919.11 674.57 918.16
  A 0.43 0.41 27.9 0 0 674.18 918.27
  Q 674.06 918.39 674.00 918.55
  Q 673.35 918.18 672.82 918.17
  A 0.40 0.39 79.2 0 0 672.45 918.72
  Q 672.87 919.74 673.98 920.10
  L 674.05 921.03
  A 1.61 1.55 -70.5 0 0 674.49 922.00
  Q 676.25 923.82 677.68 926.60
  Q 677.93 927.09 677.93 927.59
  Q 677.93 927.99 678.39 928.23
  A 0.86 0.85 -84.3 0 1 678.82 928.76
  Q 679.45 930.92 679.44 932.71
  Q 679.41 936.01 676.93 936.76
  Q 674.00 937.65 672.50 937.75
  Q 669.10 937.96 664.25 938.60
  Q 660.55 939.09 651.10 938.90
  A 11.21 10.97 53.1 0 1 648.23 938.46
  Q 643.98 937.25 641.96 936.52
  Q 632.07 932.95 621.68 928.66
  A 0.69 0.69 0.0 0 0 620.73 929.21
  Q 619.54 937.55 617.78 945.26
  Q 617.31 947.34 615.88 951.59
  Q 615.00 954.20 613.69 955.02
  Q 612.48 955.78 610.79 955.02
  Q 606.84 953.27 601.59 950.12
  Q 595.24 946.31 592.56 944.81
  Q 575.81 935.44 557.04 921.70
  Q 542.46 911.04 533.68 897.86
  Q 522.01 880.36 509.71 856.49
  Q 508.85 854.82 507.56 851.79
  Q 505.71 847.45 505.44 847.08
  Q 505.09 846.61 505.12 845.88
  Q 505.14 845.09 504.68 844.73
  Q 504.08 844.26 504.12 844.10
  Q 504.13 844.07 504.11 843.61
  Q 504.09 843.22 504.03 843.07
  Q 502.81 839.84 496.79 821.89
  A 1.55 1.47 17.0 0 0 496.57 821.50
  Q 496.03 820.81 496.11 819.93
  Q 496.19 819.04 495.64 818.63
  Q 495.02 818.15 495.12 816.60
  Q 495.14 816.28 494.95 815.99
  Q 494.85 815.85 494.69 815.68
  A 1.13 1.06 -75.0 0 1 494.42 815.18
  Q 492.94 809.28 492.65 807.13
  Q 492.14 803.35 493.66 799.38
  Q 496.40 792.20 501.87 786.96
  A 1.16 1.15 -23.0 0 0 502.23 786.08
  L 501.19 760.64
  A 0.67 0.65 -86.8 0 0 500.65 760.02
  C 494.80 759.00 489.05 758.01 484.02 757.81
  C 479.19 757.62 475.62 756.88 470.66 756.84
  C 464.30 756.79 455.15 755.95 447.77 755.90
  Q 437.06 755.84 425.50 755.12
  Q 413.63 754.37 392.26 754.95
  Q 389.59 755.02 377.09 756.87
  Q 373.10 757.46 372.49 757.75
  A 1.08 1.08 0.0 0 0 371.88 758.58
  Q 371.82 758.94 371.66 759.23
  Q 370.29 761.74 366.20 767.71
  Q 353.89 785.70 340.03 803.94
  Q 335.04 810.51 330.53 815.19
  Q 324.03 821.93 319.79 825.27
  Q 311.90 831.46 301.11 835.90
  Q 284.54 842.72 267.01 844.58
  C 260.75 845.25 248.54 844.58 239.32 845.23
  Q 234.00 845.61 229.98 844.76
  Q 223.22 843.34 215.98 839.97
  Q 202.26 833.60 190.46 822.95
  Q 185.31 818.30 181.90 815.17
  Q 174.22 808.11 173.15 807.19
  Q 156.32 792.76 118.79 760.45
  Q 109.87 752.77 96.18 742.53
  C 91.81 739.27 86.86 735.12 83.68 732.50
  C 70.40 721.51 60.84 707.01 52.36 691.28
  Q 52.04 690.69 52.04 690.35
  Q 52.03 689.90 51.68 689.81
  A 0.73 0.73 0.0 0 1 51.14 689.03
  Q 51.21 688.24 50.71 687.87
  A 1.56 1.53 18.3 0 1 50.08 686.65
  Q 50.08 686.60 50.08 686.58
  A 0.94 0.93 -75.4 0 0 49.59 685.74
  Q 49.05 685.45 49.08 684.63
  Q 49.11 684.02 48.91 683.89
  Q 48.60 683.70 48.55 683.66
  A 2.58 2.54 -74.4 0 1 48.24 683.10
  L 29.73 637.83
  A 0.17 0.11 83.4 0 0 29.68 637.77
  Q 29.48 637.67 29.45 637.65
  Q 29.40 637.63 29.37 637.56
  Q 27.74 632.95 26.54 629.32
  C 24.17 622.19 25.12 615.08 23.35 607.45
  Q 20.27 594.19 17.72 585.49
  Q 17.29 584.02 17.20 583.54
  A 4.20 0.32 81.8 0 0 16.85 581.97
  L 14.91 574.99
  A 0.72 0.69 -81.5 0 0 14.64 574.61
  Q 14.16 574.27 14.17 573.75
  Q 14.18 573.24 14.07 572.91
  Q 8.97 557.29 5.72 545.80
  Q 3.39 537.60 2.25 530.84
  Q 0.98 523.37 0.94 515.59
  Q 0.87 502.85 1.28 491.74
  Q 1.33 490.22 2.67 477.66
  Q 2.91 475.46 4.97 459.20
  Q 5.54 454.64 6.44 449.94
  Q 7.67 443.51 8.28 440.77
  Q 9.76 434.04 13.55 424.52
  Q 19.04 410.74 27.61 396.12
  Q 39.79 375.36 46.14 366.86
  Q 59.49 349.01 66.39 340.82
  Q 73.28 332.63 78.60 326.42
  Q 86.25 317.49 91.22 312.35
  Q 107.44 295.54 122.22 282.22
  Q 126.40 278.45 142.79 262.83
  Q 144.37 261.32 146.34 259.85
  Q 148.75 258.04 149.82 256.61
  A 1.83 1.82 8.7 0 1 150.63 256.02
  Q 152.63 255.27 155.00 252.48
  A 2.12 2.09 9.1 0 1 155.80 251.91
  Q 158.49 250.81 159.27 248.63
  A 0.36 0.35 -0.9 0 0 158.80 248.18
  L 149.76 251.88
  A 0.37 0.30 32.9 0 1 149.56 251.90
  Q 148.84 251.83 148.84 252.34
  A 0.56 0.55 7.2 0 1 148.14 252.88
  Q 147.37 252.67 146.86 253.32
  A 0.92 0.88 7.5 0 1 146.48 253.60
  L 136.94 257.50
  A 1.77 1.77 0.0 0 1 134.59 255.32
  Q 135.32 253.07 137.56 251.35
  Q 139.25 250.06 139.86 249.54
  Q 148.40 242.24 156.28 237.28
  Q 165.74 231.34 177.14 225.66
  Q 179.94 224.26 182.72 222.48
  Q 195.68 214.17 197.21 213.20
  Q 202.03 210.14 208.16 207.14
  Q 213.26 204.65 218.17 203.67
  Q 226.99 201.91 235.05 202.10
  A 1.12 1.12 0.0 0 0 236.10 200.52
  Q 225.29 176.33 219.69 150.81
  Q 218.75 146.55 218.39 139.80
  Q 218.12 134.81 219.08 128.74
  Q 220.48 119.87 222.19 113.95
  Q 223.49 109.42 226.60 102.34
  Q 229.58 95.55 235.88 89.14
  Q 241.51 83.42 251.55 82.15
  A 3.29 3.20 28.7 0 0 252.45 81.90
  Q 255.32 80.63 256.08 80.11
  Q 266.47 73.13 270.02 70.57
  A 1.93 1.92 65.6 0 0 270.77 68.56
  Q 266.57 51.13 272.17 34.52
  Q 273.30 31.16 276.73 25.49
  Q 279.22 21.37 282.96 17.54
  Q 294.42 5.80 310.78 1.61
  Q 312.58 1.15 314.70 0.95
  C 316.32 0.80 318.09 0.30 319.96 0.31
  Q 329.31 0.33 338.24 3.19
  Q 353.24 8.01 363.92 19.33
  A 2.18 2.17 -39.7 0 0 366.78 19.59
  Q 380.59 9.56 397.35 13.64
  Q 404.02 15.27 408.42 20.05
  A 1.01 1.01 0.0 0 0 409.83 20.12
  Q 415.12 15.37 422.40 12.69
  Q 434.33 8.30 447.26 9.32
  Q 452.83 9.75 458.56 11.27
  Q 463.97 12.70 469.10 15.79
  Q 479.47 22.04 485.71 31.87
  Q 491.22 40.54 492.99 51.67
  C 495.16 65.38 493.34 78.84 488.87 92.14
  A 3.37 3.35 37.4 0 0 489.27 95.09
  C 492.37 99.68 497.62 104.88 502.58 108.22
  Q 507.04 111.22 513.84 115.31
  A 0.80 0.80 0.0 0 0 515.05 114.72
  C 515.51 110.52 519.11 109.86 522.28 111.38
  Q 526.12 113.21 529.47 117.19
  A 1.86 1.81 -66.3 0 1 529.91 118.36
  Q 529.91 119.19 531.10 119.74
  A 0.46 0.46 0.0 0 0 531.73 119.45
  Q 532.72 116.16 534.05 113.97
  Q 535.90 110.94 540.02 109.49
  A 2.00 1.98 -49.9 0 1 541.00 109.40
  Q 547.14 110.35 548.52 116.49
  Q 548.90 118.19 548.44 122.41
  C 547.69 129.20 547.46 136.35 547.86 142.57
  Q 547.98 144.40 549.46 146.71
  Q 550.37 148.12 551.54 148.85
  A 0.42 0.42 0.0 0 0 552.18 148.49
  Q 552.11 145.72 551.45 144.02
  A 1.60 1.45 35.7 0 1 551.34 143.51
  Q 550.76 132.39 551.54 128.79
  Q 552.71 123.38 554.51 119.53
  Q 555.99 116.40 559.45 117.12
  Q 564.03 118.06 567.84 121.45
  A 2.77 2.77 0.0 0 1 568.62 124.38
  L 566.91 129.54
  A 1.28 1.06 -39.6 0 0 566.86 129.80
  Q 566.57 134.69 566.86 144.66
  Q 566.96 148.35 567.45 150.82
  C 567.97 153.40 567.84 155.94 568.18 159.07
  Q 569.64 172.89 567.98 187.26
  Q 567.66 190.01 567.69 191.75
  A 3.17 3.09 53.7 0 1 567.57 192.61
  C 566.90 194.88 566.94 196.85 566.52 199.08
  Q 563.43 215.80 555.10 233.09
  Q 552.57 238.36 549.27 242.14
  Q 546.52 245.28 540.78 248.69
  Q 525.75 257.61 514.05 264.98
  Q 509.89 267.60 506.40 270.09
  Q 500.32 274.42 498.98 275.49
  Q 494.92 278.73 490.40 283.16
  Q 487.53 285.97 489.35 289.23
  C 489.96 290.32 489.74 291.97 490.43 292.45
  Q 490.91 292.77 490.86 293.66
  Q 490.82 294.35 491.14 294.88
  Q 491.36 295.23 492.36 298.38
  Q 495.85 309.30 507.71 345.11
  Q 507.95 345.81 507.93 346.46
  Q 507.92 347.09 508.50 347.50
  A 0.83 0.82 -73.9 0 1 508.84 348.13
  L 508.90 349.68
  A 0.69 0.69 0.0 0 0 509.19 350.20
  Q 509.79 350.61 509.84 351.46
  Q 509.87 351.99 510.08 352.62
  Q 517.57 374.67 524.49 399.07
  Q 525.79 403.65 527.63 408.86
  Q 529.26 413.45 530.81 418.68
  A 1.31 1.29 81.5 0 0 532.05 419.61
  Q 543.35 419.57 553.92 424.19
  Q 563.57 428.40 572.23 437.14
  Q 581.60 446.60 587.37 458.17
  Q 590.14 463.74 590.51 469.57
  Q 591.41 484.10 591.45 485.41
  Q 591.57 490.34 592.88 501.14
  Q 595.42 522.15 596.09 529.36
  A 0.82 0.82 0.0 0 0 596.91 530.10
  C 603.22 530.10 608.93 529.43 613.63 531.34
  A 1.63 1.63 0.0 0 1 614.13 534.05
  L 597.65 549.38
  A 1.22 1.18 -21.9 0 0 597.26 550.26
  L 597.26 565.52
  A 1.59 1.57 11.6 0 0 598.23 566.97
  Q 600.37 567.87 603.85 569.64
  Q 616.73 576.17 628.07 582.94
  Q 629.27 583.65 631.27 586.06
  A 0.74 0.73 -49.4 0 1 631.33 586.91
  Q 630.09 588.98 627.93 590.17
  Q 615.43 597.03 600.49 602.59
  Q 597.17 603.83 594.61 603.72
  A 0.62 0.62 0.0 0 0 594.18 604.81
  C 595.39 605.86 597.11 606.07 598.32 606.58
  Q 618.47 615.00 632.20 621.32
  Q 635.35 622.78 635.07 625.92
  A 1.56 1.54 -20.9 0 1 634.65 626.84
  Q 633.63 627.90 632.27 628.84
  Q 631.61 629.30 630.46 629.64
  Q 618.37 633.27 602.75 635.93
  Q 596.39 637.02 594.79 636.72
  A 0.79 0.79 0.0 0 0 593.91 637.20
  Q 593.74 637.60 593.61 637.71
  Q 593.44 637.83 592.96 637.74
  Q 592.06 637.57 591.86 637.71
  A 0.41 0.40 34.3 0 0 592.00 638.44
  L 593.64 638.80
  A 0.76 0.75 -84.5 0 1 594.22 639.51
  Q 594.24 640.58 595.26 640.34
  Q 596.03 640.16 596.80 640.78
  Q 597.44 641.30 598.53 641.16
  A 0.67 0.66 -12.6 0 1 599.25 641.61
  Q 599.47 642.28 600.82 642.10
  A 0.86 0.86 0.0 0 1 601.71 642.56
  Q 601.96 643.06 602.53 643.09
  Q 603.02 643.11 603.49 643.29
  Q 610.86 646.22 614.63 648.01
  C 617.10 649.18 620.17 650.72 620.87 653.46
  A 1.38 1.35 52.1 0 1 620.76 654.43
  Q 619.62 656.70 617.32 657.83
  Q 615.13 658.90 612.64 659.56
  Q 608.93 660.54 606.96 660.75
  Q 598.84 661.62 589.49 661.89
  A 1.02 1.02 0.0 0 0 588.84 663.66
  Q 597.13 671.26 599.84 682.10
  Q 600.62 685.23 599.79 688.95
  Q 599.21 691.54 596.32 694.97
  A 1.14 1.13 -33.2 0 0 596.10 696.00
  Q 597.38 700.45 600.31 710.70
  Q 605.33 728.29 602.82 746.25
  Q 602.71 747.01 601.98 749.66
  Q 601.51 751.35 600.74 752.94
  Q 598.54 757.50 594.81 762.05
  Q 587.57 770.92 586.85 771.84
  Q 584.72 774.58 584.51 774.99
  A 1.60 1.55 -39.3 0 0 584.39 776.02
  Q 585.74 782.04 587.90 786.99
  Q 590.25 792.37 590.96 793.79
  Q 591.88 795.64 594.31 799.23
  Q 595.22 800.58 596.61 801.76
  Q 605.34 809.20 610.97 813.29
  C 617.39 817.95 622.73 821.82 628.33 825.55
  Q 664.54 849.68 683.82 862.89
  Q 695.64 871.00 707.15 880.09
  Q 715.22 886.48 720.00 893.83
  Z
  M 363.67 33.41
  C 366.37 29.49 363.53 26.03 360.71 22.94
  Q 347.68 8.69 328.31 5.56
  Q 319.65 4.15 311.69 6.29
  C 289.42 12.24 273.23 30.43 273.91 54.11
  Q 274.21 64.73 276.82 73.04
  Q 277.56 75.41 278.69 76.60
  C 283.90 82.08 298.86 78.19 305.22 75.62
  Q 331.65 64.96 350.98 48.24
  Q 357.11 42.94 363.67 33.41
  Z
  M 410.38 26.10
  C 407.76 29.00 407.57 31.44 408.89 34.92
  Q 411.14 40.85 415.18 46.64
  Q 424.14 59.47 437.79 72.99
  Q 444.56 79.69 454.62 86.88
  Q 464.39 93.85 474.79 96.71
  Q 479.26 97.95 482.35 94.95
  A 2.90 2.89 78.1 0 0 483.07 93.84
  Q 487.28 82.58 488.69 70.10
  C 490.07 57.76 487.84 44.26 481.43 34.17
  Q 470.95 17.69 451.34 14.46
  C 437.25 12.13 420.32 15.14 410.38 26.10
  Z
  M 247.83 224.21
  Q 247.52 229.45 246.98 234.83
  Q 245.44 250.31 248.04 265.49
  Q 249.27 272.65 253.86 286.13
  C 258.08 298.53 262.33 313.13 268.37 324.38
  C 274.77 336.29 280.50 343.41 293.50 347.57
  Q 294.42 347.86 318.24 354.92
  C 326.75 357.44 334.72 359.22 342.52 359.94
  Q 347.63 360.41 354.76 361.04
  Q 361.84 361.66 375.47 360.27
  C 377.82 360.02 380.21 359.05 382.03 357.78
  Q 393.42 349.85 400.73 337.73
  Q 407.20 326.98 411.66 319.67
  Q 413.81 316.15 416.27 310.09
  C 420.73 299.14 424.98 292.66 433.17 279.44
  Q 437.16 272.99 444.75 266.91
  A 3.03 2.88 -76.1 0 1 445.33 266.54
  L 447.87 265.27
  A 6.21 6.13 7.7 0 0 449.72 263.88
  Q 458.03 254.77 468.73 247.47
  C 474.26 243.71 477.84 237.52 483.23 232.98
  C 496.94 221.42 509.79 209.15 518.91 193.70
  Q 520.98 190.19 521.71 186.22
  C 523.76 175.15 526.26 163.35 527.77 151.26
  C 528.74 143.50 527.63 137.53 523.17 130.52
  Q 519.05 124.03 516.85 121.62
  Q 515.72 120.38 512.39 119.66
  A 5.72 5.62 66.3 0 1 510.66 118.97
  C 501.13 113.29 492.18 107.43 485.63 98.24
  A 0.32 0.32 0.0 0 0 485.11 98.23
  C 480.75 104.00 472.92 101.62 467.05 99.26
  Q 460.08 96.45 453.39 91.94
  Q 427.92 74.77 411.43 49.67
  C 407.34 43.45 398.62 31.26 405.58 24.10
  A 0.42 0.42 0.0 0 0 405.54 23.48
  Q 394.97 14.93 381.17 18.07
  Q 374.18 19.67 368.64 24.09
  A 0.40 0.38 59.5 0 0 368.53 24.54
  Q 370.79 29.76 367.77 35.04
  C 359.47 49.54 345.13 59.83 330.72 68.41
  C 315.92 77.23 299.93 85.16 283.62 83.62
  Q 276.76 82.97 273.06 77.52
  Q 272.41 76.57 272.40 75.50
  A 0.60 0.60 0.0 0 0 271.43 75.03
  Q 263.75 80.87 257.81 84.30
  Q 253.69 86.68 250.76 87.01
  Q 245.85 87.56 243.18 89.53
  C 235.32 95.31 231.66 101.99 228.49 111.47
  Q 225.16 121.43 223.95 131.06
  Q 222.74 140.76 225.16 151.80
  C 231.60 181.24 243.62 208.27 260.18 233.84
  Q 261.07 235.22 260.96 236.41
  A 1.84 1.84 0.0 0 1 257.81 237.53
  Q 252.08 231.72 248.40 224.10
  A 0.30 0.30 0.0 0 0 247.83 224.21
  Z
  M 548.91 153.03
  Q 550.68 171.37 546.88 190.97
  C 542.48 213.63 535.06 230.31 516.07 242.33
  Q 515.07 242.96 513.53 242.94
  A 0.47 0.46 -81.2 0 1 513.09 242.33
  C 514.24 238.65 518.20 235.45 522.02 231.77
  C 532.44 221.73 538.74 206.62 541.43 192.67
  Q 544.21 178.22 545.01 162.64
  Q 545.16 159.70 543.26 146.49
  C 542.01 137.84 542.33 130.25 543.15 120.87
  Q 543.40 118.03 542.56 114.96
  A 1.18 1.16 -3.0 0 0 541.61 114.12
  Q 538.61 113.64 537.30 116.68
  Q 534.46 123.28 533.91 132.21
  C 533.46 139.39 534.73 154.25 532.51 163.53
  Q 529.29 176.97 527.36 188.89
  C 526.52 194.08 528.26 199.64 527.46 202.75
  Q 526.71 205.63 524.71 208.97
  C 519.38 217.87 512.59 224.98 504.67 232.69
  C 502.03 235.27 498.94 237.57 496.13 238.89
  C 479.76 246.62 466.95 253.50 455.32 266.21
  C 449.85 272.19 447.68 280.45 446.67 288.12
  Q 446.25 291.26 446.77 301.25
  Q 447.63 317.86 452.17 336.42
  Q 462.23 377.54 473.22 415.56
  C 477.77 431.33 480.77 444.43 485.13 460.21
  Q 489.07 474.52 493.52 493.86
  Q 500.59 524.64 503.01 535.29
  A 1.26 1.26 0.0 0 1 502.00 536.81
  C 500.31 537.12 498.63 535.89 497.87 534.04
  Q 497.00 531.93 495.93 528.05
  Q 495.62 526.95 488.99 498.36
  Q 485.66 484.01 481.64 468.77
  Q 473.24 436.89 472.03 432.34
  C 471.51 430.42 471.27 429.05 469.37 428.11
  Q 442.73 414.87 419.28 399.48
  Q 417.39 398.24 409.88 392.17
  A 0.35 0.34 -49.4 0 0 409.41 392.21
  C 409.33 392.29 409.68 393.27 409.68 393.56
  C 409.51 402.06 408.07 411.28 406.24 419.91
  A 1.34 1.34 0.0 0 0 406.43 420.93
  C 413.24 431.15 418.55 442.18 426.66 457.61
  C 441.05 484.97 461.09 520.01 480.67 549.60
  Q 488.14 560.89 498.79 570.17
  Q 506.51 576.89 515.84 576.89
  Q 536.99 576.90 552.30 561.21
  C 555.26 558.19 558.41 553.63 558.50 549.00
  Q 558.57 544.75 558.35 542.24
  Q 555.91 514.72 548.91 484.62
  Q 546.24 473.15 544.00 466.51
  Q 538.91 451.44 532.09 432.93
  C 530.14 427.63 526.89 422.06 524.92 416.29
  C 520.66 403.81 517.98 393.26 514.39 381.87
  C 504.67 351.04 494.34 320.58 484.55 290.35
  Q 482.55 284.18 487.41 279.67
  Q 498.58 269.29 507.70 263.45
  Q 525.50 252.04 540.08 243.47
  C 542.93 241.79 546.01 239.19 547.25 236.95
  Q 556.66 220.00 560.01 204.80
  Q 565.09 181.71 562.87 157.08
  Q 562.11 148.69 561.42 138.75
  Q 560.90 131.33 563.66 124.73
  A 1.00 1.00 0.0 0 0 563.20 123.46
  L 559.50 121.51
  A 0.82 0.82 0.0 0 0 558.36 121.92
  Q 555.35 129.25 555.86 137.50
  Q 556.63 150.17 559.03 159.85
  C 559.86 163.17 559.87 166.12 560.47 170.49
  Q 560.68 172.05 560.14 177.57
  Q 557.94 199.76 556.29 207.09
  Q 555.99 208.41 555.15 209.71
  A 1.07 1.07 0.0 0 1 553.18 209.19
  C 552.55 195.84 554.32 182.97 554.56 169.01
  C 554.65 163.81 553.53 156.37 549.48 152.74
  A 0.34 0.34 0.0 0 0 548.91 153.03
  Z
  M 529.31 130.50
  L 529.08 125.01
  A 2.67 2.66 24.8 0 0 528.50 123.44
  L 522.86 116.30
  A 3.12 3.12 0.0 0 0 520.27 115.11
  L 518.95 115.16
  A 0.72 0.72 0.0 0 0 518.49 116.40
  Q 525.02 122.54 528.92 130.60
  A 0.21 0.20 -59.1 0 0 529.31 130.50
  Z
  M 483.75 239.75
  Q 485.58 238.77 487.43 237.75
  Q 490.07 236.30 491.14 235.81
  Q 497.29 233.04 501.70 228.73
  C 508.64 221.94 516.43 213.85 520.78 205.59
  Q 522.31 202.70 522.92 199.87
  A 0.73 0.72 -22.7 0 0 521.60 199.33
  Q 516.80 206.79 511.48 212.73
  Q 498.19 227.59 483.10 238.89
  A 0.49 0.48 -34.8 0 0 482.98 239.53
  L 482.99 239.55
  A 0.58 0.57 59.4 0 0 483.75 239.75
  Z
  M 437.01 343.82
  Q 435.11 337.98 433.51 336.10
  Q 424.91 325.95 418.57 319.60
  A 0.36 0.35 -51.7 0 0 418.01 319.67
  Q 413.96 326.51 403.17 343.45
  C 397.91 351.70 387.10 363.84 376.96 365.37
  Q 369.29 366.52 361.01 366.45
  Q 341.79 366.28 322.99 361.86
  C 315.91 360.20 306.55 356.75 298.45 354.79
  C 291.31 353.06 280.76 349.11 275.53 343.73
  Q 267.87 335.87 263.03 325.95
  Q 258.34 316.33 257.10 312.66
  Q 249.19 289.37 247.36 284.06
  Q 244.81 276.70 243.90 272.45
  Q 241.85 262.87 241.66 260.54
  C 240.53 246.75 240.43 232.06 243.89 218.14
  A 2.25 2.23 37.1 0 0 243.65 216.47
  L 237.84 206.39
  A 0.45 0.45 0.0 0 0 237.38 206.18
  C 231.60 207.19 222.77 207.03 216.46 209.17
  Q 206.93 212.41 200.90 216.41
  Q 187.11 225.58 183.00 227.75
  Q 161.24 239.21 157.16 241.91
  Q 153.51 244.33 147.66 247.99
  A 0.19 0.18 59.9 0 0 147.60 248.24
  L 147.61 248.26
  A 0.26 0.25 -26.0 0 0 147.94 248.37
  Q 151.58 246.59 155.13 244.89
  C 161.26 241.97 169.38 239.56 173.84 237.79
  C 183.67 233.89 193.74 232.20 204.31 231.21
  Q 205.48 231.10 205.70 232.19
  Q 206.08 234.06 204.14 235.17
  C 190.14 243.16 179.20 250.51 160.75 262.85
  C 148.02 271.37 136.03 280.73 126.57 290.83
  Q 116.35 301.74 112.42 306.21
  A 0.14 0.14 0.0 0 0 112.59 306.42
  C 134.64 294.27 156.18 287.62 182.10 283.00
  C 186.59 282.20 190.32 282.21 195.74 281.84
  Q 202.05 281.41 212.55 283.40
  C 216.58 284.17 212.83 288.43 211.62 289.63
  Q 204.60 296.62 184.19 316.95
  C 171.32 329.77 153.90 343.57 142.91 353.41
  Q 132.08 363.12 123.35 374.06
  A 0.27 0.27 0.0 0 0 123.68 374.48
  C 138.15 367.70 151.55 361.96 167.37 358.36
  Q 185.24 354.29 204.66 349.18
  C 216.48 346.06 229.89 343.08 241.81 341.34
  A 2.61 2.47 -15.1 0 1 244.55 342.82
  Q 244.83 343.51 244.31 345.31
  C 237.98 367.08 230.35 386.20 220.48 410.52
  Q 206.05 446.04 202.32 458.05
  Q 197.69 472.96 196.38 479.46
  A 0.29 0.29 0.0 0 0 196.89 479.69
  Q 197.52 478.84 210.75 465.01
  Q 222.76 452.48 248.70 429.21
  Q 270.12 409.99 280.08 401.59
  Q 286.84 395.90 291.25 392.76
  Q 292.89 391.59 294.75 392.55
  A 1.27 1.26 4.8 0 1 295.38 393.29
  Q 297.43 399.47 298.53 407.50
  Q 300.89 424.80 301.35 440.75
  Q 302.20 469.73 301.11 518.35
  Q 300.96 525.02 300.57 527.51
  A 0.31 0.31 0.0 0 0 301.12 527.74
  Q 305.31 522.13 309.44 514.95
  Q 319.21 497.99 327.98 477.71
  Q 335.53 460.24 337.74 454.53
  Q 348.84 425.92 355.56 407.35
  A 1.69 1.62 19.3 0 1 357.67 406.39
  Q 358.34 406.62 358.63 407.16
  Q 368.34 425.34 372.45 445.16
  Q 379.16 477.55 379.92 512.00
  C 379.93 512.87 379.53 513.93 379.63 514.38
  A 0.30 0.30 0.0 0 0 380.22 514.40
  Q 384.15 500.09 387.23 483.75
  C 390.31 467.43 393.02 449.55 397.35 431.80
  Q 400.90 417.27 401.73 412.10
  Q 404.07 397.53 404.07 383.57
  A 1.56 1.56 0.0 0 1 406.59 382.35
  Q 426.75 398.26 449.51 410.99
  Q 464.76 419.52 469.34 422.43
  A 0.06 0.06 0.0 0 0 469.43 422.36
  L 461.47 395.25
  A 4.30 4.25 -82.0 0 0 459.68 392.85
  C 457.39 391.39 455.20 390.07 453.38 388.05
  Q 444.39 378.14 439.29 366.26
  C 437.56 362.24 436.78 357.35 435.62 353.38
  Q 432.93 344.15 427.32 335.49
  A 1.29 1.29 0.0 0 1 428.66 333.52
  C 433.00 334.38 434.74 339.19 436.82 343.89
  A 0.10 0.10 0.0 0 0 437.01 343.82
  Z
  M 140.92 271.49
  Q 144.23 269.06 149.14 265.40
  Q 169.00 250.57 186.89 239.27
  A 0.22 0.22 0.0 0 0 186.72 238.88
  Q 176.89 241.45 168.38 248.39
  Q 156.11 258.40 143.70 268.69
  Q 142.42 269.75 140.84 271.40
  A 0.06 0.06 0.0 0 0 140.92 271.49
  Z
  M 444.21 273.39
  C 441.95 275.15 441.35 277.41 439.20 279.30
  A 2.71 2.52 87.9 0 0 438.70 279.88
  Q 428.35 295.97 425.35 302.09
  Q 422.06 308.79 419.86 314.79
  A 0.85 0.85 0.0 0 0 420.36 315.88
  Q 421.44 316.29 422.66 317.44
  Q 429.71 324.10 433.58 328.93
  Q 436.29 332.31 438.15 335.67
  Q 440.62 340.14 441.44 343.25
  Q 442.13 345.86 442.48 347.75
  C 443.27 352.14 442.97 357.73 442.71 361.64
  A 4.57 4.55 32.4 0 0 443.27 364.12
  Q 443.71 364.92 445.94 369.03
  Q 449.67 375.92 456.63 384.87
  Q 457.32 385.75 458.73 386.90
  A 0.51 0.51 0.0 0 0 459.39 386.88
  L 459.63 386.66
  A 0.75 0.75 0.0 0 0 459.66 385.59
  C 458.56 384.43 459.29 383.73 458.95 382.33
  Q 458.90 382.13 458.73 381.92
  Q 458.49 381.65 458.42 381.38
  Q 452.11 357.26 449.08 345.20
  Q 448.04 341.02 447.89 340.56
  Q 447.08 337.90 446.38 334.22
  Q 444.41 323.89 442.86 312.20
  Q 442.25 307.55 442.05 304.23
  C 441.71 298.45 440.96 292.99 441.88 285.91
  Q 442.17 283.61 442.97 281.22
  Q 444.07 277.94 444.11 276.55
  A 1.29 1.23 65.6 0 1 444.35 275.87
  Q 445.29 274.58 445.03 273.66
  A 0.53 0.52 62.8 0 0 444.21 273.39
  Z
  M 117.50 293.37
  Q 101.20 308.89 94.45 316.22
  Q 74.83 337.53 56.92 360.66
  Q 46.11 374.61 35.16 393.09
  C 22.89 413.81 13.94 432.18 10.71 454.92
  Q 7.02 480.87 5.97 502.73
  Q 4.96 523.52 10.21 543.29
  Q 11.83 549.39 16.95 565.27
  Q 22.45 582.30 28.65 608.22
  C 30.16 614.51 28.88 620.66 31.21 627.05
  Q 36.51 641.57 44.79 661.95
  Q 51.84 679.30 59.73 694.05
  Q 69.27 711.88 83.86 725.85
  C 89.85 731.59 97.04 736.79 103.81 741.94
  Q 110.83 747.28 118.81 753.98
  Q 156.37 785.50 190.83 816.28
  Q 201.63 825.92 206.66 829.06
  C 215.54 834.60 226.32 840.21 237.00 840.28
  Q 247.39 840.35 260.73 839.91
  Q 282.64 839.19 303.21 829.45
  C 316.13 823.34 325.86 813.66 334.60 802.36
  Q 352.68 779.01 365.89 759.34
  A 0.32 0.31 -76.6 0 0 365.59 758.85
  Q 336.67 762.54 305.50 761.77
  Q 286.61 761.30 270.06 757.68
  A 1.55 1.52 -57.5 0 0 268.77 757.98
  L 252.51 770.82
  A 0.46 0.45 -40.9 0 0 252.46 771.49
  Q 259.18 778.53 265.23 785.77
  Q 267.15 788.07 266.72 790.99
  A 0.81 0.80 -73.4 0 1 265.58 791.61
  Q 263.49 790.62 260.64 787.91
  C 256.72 784.17 252.56 779.09 248.43 775.16
  Q 234.91 762.32 216.23 744.72
  A 7.45 7.41 80.0 0 0 214.57 743.55
  Q 209.91 741.13 196.79 734.70
  Q 180.34 726.64 168.41 712.61
  C 157.00 699.18 147.47 683.20 143.21 666.35
  A 3.47 3.44 9.1 0 0 141.68 664.26
  Q 123.25 652.87 99.89 638.13
  Q 91.28 632.69 79.70 627.32
  C 69.15 622.43 62.21 618.33 52.12 613.41
  C 48.50 611.64 46.16 611.07 42.01 610.19
  A 1.35 1.35 0.0 0 1 42.17 607.53
  C 46.05 607.19 49.47 605.07 53.38 607.36
  Q 68.50 616.22 83.85 622.86
  C 88.30 624.78 91.55 626.89 95.32 628.83
  Q 98.86 630.66 103.68 633.73
  Q 117.12 642.27 137.33 654.74
  C 138.17 655.25 139.86 657.17 140.44 657.31
  A 0.37 0.36 -1.7 0 0 140.88 656.85
  Q 137.70 646.16 135.58 633.98
  Q 131.65 611.35 129.37 590.47
  Q 128.07 578.60 126.72 565.04
  C 126.34 561.16 126.43 557.98 126.01 554.83
  Q 125.54 551.33 125.41 547.15
  Q 124.43 515.45 124.38 508.74
  Q 124.32 501.08 123.35 493.33
  C 121.50 478.45 120.22 463.44 120.74 449.01
  Q 121.23 435.09 122.15 415.18
  Q 122.70 403.14 123.63 397.62
  Q 125.73 385.08 127.45 380.39
  Q 128.22 378.28 128.29 378.01
  A 0.45 0.45 0.0 0 0 127.64 377.51
  C 124.32 379.27 121.27 380.56 118.27 377.77
  A 2.92 2.45 -58.2 0 1 117.82 374.63
  Q 119.30 371.33 122.03 367.77
  Q 127.26 360.96 133.71 354.71
  C 137.46 351.07 142.61 346.12 147.62 341.99
  C 157.87 333.55 169.85 323.62 180.98 312.49
  C 192.77 300.70 200.20 293.27 206.62 287.66
  A 0.40 0.40 0.0 0 0 206.36 286.96
  Q 194.20 286.69 182.14 288.62
  C 162.16 291.82 142.11 297.39 123.47 305.88
  Q 112.05 311.08 111.14 311.44
  C 108.82 312.36 107.67 314.33 104.81 313.64
  A 0.79 0.78 -88.9 0 1 104.24 313.04
  Q 103.83 311.07 104.79 309.79
  Q 108.67 304.63 117.79 293.64
  A 0.20 0.20 0.0 0 0 117.50 293.37
  Z
  M 195.41 462.65
  Q 200.74 444.39 207.82 427.05
  Q 218.62 400.60 225.23 383.77
  Q 231.69 367.33 235.25 355.76
  Q 236.70 351.04 238.25 347.45
  A 0.28 0.27 -83.9 0 0 237.95 347.07
  C 216.24 351.08 194.61 357.62 171.90 362.50
  C 159.61 365.14 147.07 368.74 135.88 374.19
  Q 134.24 374.99 133.60 377.67
  Q 130.39 391.20 129.96 394.39
  Q 127.70 411.22 127.59 426.52
  Q 127.55 432.21 126.76 446.00
  C 126.03 458.74 126.77 473.10 128.37 486.21
  Q 129.66 496.74 129.83 502.82
  C 130.07 510.96 130.66 517.64 130.85 527.06
  Q 131.25 547.99 132.18 558.86
  Q 133.84 578.34 136.26 598.75
  Q 138.97 621.53 142.21 637.52
  Q 144.49 648.73 148.04 662.32
  Q 155.38 690.34 176.11 712.60
  Q 185.35 722.52 195.81 727.58
  C 201.81 730.48 207.81 733.78 213.38 736.64
  Q 218.49 739.27 223.32 740.14
  Q 224.48 740.35 242.52 745.28
  Q 248.58 746.93 255.58 748.50
  Q 267.10 751.09 268.72 751.55
  Q 276.69 753.80 283.98 754.67
  Q 295.75 756.07 299.51 756.25
  Q 303.80 756.46 329.97 756.28
  Q 338.43 756.22 345.48 755.54
  C 358.96 754.24 363.44 754.17 377.01 751.91
  Q 388.93 749.92 405.74 750.01
  Q 421.56 750.09 428.08 750.49
  Q 442.28 751.34 445.93 751.28
  C 451.42 751.17 458.81 751.42 466.78 751.87
  Q 484.21 752.86 491.49 753.78
  Q 499.01 754.73 505.01 756.34
  A 6.69 6.42 52.2 0 0 506.57 756.57
  C 512.45 756.73 517.73 755.44 522.76 755.06
  Q 535.01 754.13 554.04 752.62
  C 560.00 752.15 565.73 752.56 571.01 752.03
  Q 579.07 751.21 591.33 751.30
  A 1.45 1.45 0.0 0 1 592.66 752.21
  Q 593.63 754.62 591.82 755.86
  C 590.48 756.77 588.92 757.66 587.33 757.21
  Q 585.35 756.66 583.43 756.94
  A 0.30 0.30 0.0 0 0 583.17 757.25
  L 583.60 767.77
  A 0.19 0.19 0.0 0 0 583.94 767.88
  Q 589.68 760.34 593.31 755.80
  C 598.11 749.80 598.48 743.81 598.92 736.13
  A 0.74 0.73 -89.3 0 0 598.16 735.35
  L 597.12 735.40
  A 3.67 3.54 54.4 0 1 595.59 735.12
  Q 590.10 732.81 584.00 732.62
  Q 567.11 732.10 552.03 734.31
  C 539.79 736.11 526.97 737.19 515.00 735.55
  A 1.01 1.01 0.0 0 1 514.13 734.69
  L 513.91 733.12
  A 0.67 0.67 0.0 0 1 514.62 732.35
  Q 515.78 732.43 531.44 731.45
  C 544.65 730.63 557.55 728.34 570.25 727.61
  Q 578.38 727.14 586.73 727.59
  Q 593.98 727.98 598.47 730.66
  A 0.32 0.31 -78.6 0 0 598.94 730.34
  L 596.97 716.71
  A 3.28 3.27 14.8 0 0 595.73 714.59
  Q 591.87 711.63 587.92 711.44
  Q 586.98 711.40 579.63 712.12
  C 561.89 713.87 543.91 716.81 527.75 718.25
  C 520.37 718.91 514.89 719.16 509.62 717.37
  A 1.15 1.15 0.0 0 1 509.59 715.20
  Q 510.91 714.70 512.32 714.58
  Q 544.76 711.65 565.49 708.45
  C 573.56 707.21 581.89 706.81 589.76 707.12
  A 4.48 4.48 0.0 0 1 592.84 708.54
  L 595.08 710.95
  A 0.43 0.43 0.0 0 0 595.79 710.48
  C 593.60 705.64 591.35 699.61 591.67 694.13
  A 1.75 1.75 0.0 0 0 591.17 692.81
  C 587.57 689.16 583.68 689.28 578.81 689.78
  Q 571.25 690.56 564.74 691.48
  Q 543.52 694.47 524.23 697.20
  Q 519.63 697.85 515.46 697.62
  Q 513.90 697.53 513.33 696.51
  A 1.97 1.93 72.4 0 1 514.80 693.59
  Q 515.40 693.53 516.73 693.34
  Q 534.29 690.78 560.52 686.84
  Q 570.47 685.34 577.39 685.03
  C 584.32 684.73 589.21 684.18 593.59 688.98
  A 0.68 0.68 0.0 0 0 594.74 688.74
  C 596.58 683.34 592.84 676.46 589.75 672.17
  C 587.75 669.40 587.18 668.08 583.88 667.84
  C 572.04 667.00 561.99 668.02 548.60 670.85
  C 536.53 673.41 527.47 675.12 515.57 675.92
  C 505.78 676.57 500.17 676.73 495.05 677.39
  Q 490.35 677.99 484.66 676.48
  A 1.43 1.40 -2.2 0 1 483.68 675.59
  Q 482.94 673.51 483.48 671.15
  A 2.86 2.79 73.5 0 1 484.16 669.86
  Q 484.68 669.30 489.06 667.32
  Q 501.65 661.64 508.60 661.34
  A 0.48 0.48 0.0 0 0 509.06 660.89
  L 509.90 647.83
  A 0.26 0.25 74.4 0 0 509.50 647.60
  C 506.55 649.64 501.97 649.54 498.32 650.51
  Q 490.47 652.60 479.48 653.65
  C 472.46 654.32 467.35 658.42 462.00 663.00
  C 454.09 669.78 443.73 679.40 434.40 684.88
  Q 420.51 693.04 403.66 696.72
  C 394.35 698.76 385.38 698.57 372.50 699.10
  Q 358.14 699.68 344.28 701.07
  C 337.08 701.79 327.41 702.28 320.22 703.49
  C 318.04 703.85 315.56 703.75 313.33 704.00
  Q 311.52 704.20 308.17 704.07
  C 294.13 703.53 281.32 701.70 266.62 697.88
  Q 248.90 693.27 236.94 688.81
  Q 224.69 684.25 220.01 681.79
  Q 209.95 676.51 201.50 668.26
  C 198.66 665.49 199.52 659.77 199.04 656.25
  Q 197.14 642.48 195.70 628.71
  C 195.18 623.75 195.23 619.25 194.90 614.55
  Q 194.64 610.66 194.51 603.93
  Q 193.88 569.44 192.80 545.25
  C 191.52 516.20 190.44 490.17 189.65 466.75
  Q 189.41 459.89 188.91 453.09
  C 188.12 442.35 188.16 434.22 187.64 422.75
  Q 186.75 403.01 187.29 384.72
  A 0.97 0.96 10.1 0 1 188.56 383.84
  L 189.09 384.01
  A 0.20 0.18 88.9 0 1 189.21 384.14
  Q 191.67 392.55 192.22 402.50
  Q 193.04 417.58 195.08 462.61
  A 0.17 0.17 0.0 0 0 195.41 462.65
  Z
  M 388.71 500.15
  C 386.76 507.18 386.06 513.24 382.04 519.50
  Q 380.12 522.47 377.61 521.65
  Q 375.76 521.06 375.57 519.12
  Q 372.52 486.96 370.27 467.26
  Q 368.69 453.47 364.60 436.97
  C 362.79 429.64 360.92 425.49 357.62 416.67
  A 0.11 0.11 0.0 0 0 357.42 416.67
  Q 344.74 454.52 327.62 491.93
  C 324.51 498.72 320.61 505.39 316.45 512.96
  Q 312.56 520.06 305.31 529.83
  Q 302.99 532.96 300.49 533.48
  Q 296.77 534.25 296.23 530.76
  Q 295.44 525.62 295.45 525.26
  Q 295.66 509.68 295.61 499.55
  C 295.60 497.89 295.98 496.03 295.99 494.25
  Q 296.04 484.56 296.02 450.00
  C 296.02 448.14 295.53 445.54 295.52 443.33
  Q 295.49 421.23 291.72 399.23
  A 0.34 0.34 0.0 0 0 291.16 399.04
  C 281.56 407.98 269.48 417.63 258.53 427.59
  Q 233.74 450.14 230.00 453.76
  Q 215.87 467.46 201.50 481.98
  Q 199.22 484.29 196.36 485.37
  A 0.76 0.75 -13.7 0 0 195.88 486.15
  Q 196.33 490.17 196.43 494.00
  Q 197.17 522.98 198.16 543.08
  Q 199.46 569.51 199.86 598.75
  C 199.97 606.76 200.62 616.76 201.05 625.74
  Q 201.38 632.69 203.72 648.31
  C 204.52 653.63 204.96 659.04 205.42 663.13
  A 2.90 2.86 18.4 0 0 206.33 664.92
  C 213.56 671.65 220.91 676.57 230.84 680.54
  Q 243.40 685.55 255.30 689.03
  C 257.26 689.60 259.29 690.27 261.05 689.29
  Q 270.90 683.74 280.67 675.93
  Q 297.81 662.22 313.88 646.65
  C 322.31 638.47 329.83 629.87 336.34 623.10
  Q 349.84 609.04 359.42 592.22
  Q 369.38 574.71 374.82 558.36
  Q 379.35 544.74 384.18 526.32
  Q 385.61 520.84 386.73 514.35
  C 387.88 507.72 388.78 503.52 388.86 500.17
  A 0.08 0.08 0.0 0 0 388.71 500.15
  Z
  M 520.42 582.88
  Q 520.60 588.99 520.48 590.26
  C 519.85 597.22 520.03 603.94 518.98 610.56
  Q 517.41 620.43 515.19 651.26
  Q 514.07 666.92 514.13 670.20
  A 0.57 0.56 87.2 0 0 514.74 670.76
  Q 530.00 669.52 536.98 667.93
  Q 551.53 664.60 563.76 663.23
  Q 577.16 661.73 583.97 662.95
  A 0.51 0.51 0.0 0 0 584.57 662.42
  Q 584.21 656.86 584.84 650.83
  C 585.23 647.05 585.17 644.75 585.36 640.50
  Q 585.50 637.33 587.73 619.90
  C 588.48 614.07 588.69 607.89 589.32 603.26
  Q 591.20 589.30 591.43 582.24
  Q 591.48 580.78 591.92 576.50
  Q 592.31 572.75 592.28 551.67
  Q 592.27 538.71 590.92 526.90
  Q 590.31 521.54 587.45 497.25
  Q 586.36 488.05 586.16 477.61
  C 586.04 471.41 585.53 464.98 582.54 459.43
  Q 576.09 447.44 565.56 437.72
  Q 552.50 425.66 534.61 424.18
  A 0.26 0.26 0.0 0 0 534.36 424.56
  Q 536.25 428.00 537.52 431.47
  Q 541.53 442.47 547.36 458.83
  Q 552.10 472.11 555.32 486.74
  Q 561.02 512.63 563.62 536.03
  Q 564.87 547.22 563.56 552.53
  Q 561.61 560.47 554.11 567.15
  Q 539.88 579.81 522.96 582.23
  Q 521.94 582.37 520.92 582.36
  A 0.50 0.50 0.0 0 0 520.42 582.88
  Z
  M 393.84 496.69
  A 0.52 0.52 0.0 0 0 394.69 497.13
  Q 402.64 490.29 408.39 485.82
  Q 416.72 479.36 417.32 478.85
  Q 422.98 474.15 427.71 471.25
  A 0.64 0.64 0.0 0 0 427.93 470.38
  Q 423.75 463.23 419.11 454.12
  Q 412.66 441.48 406.09 429.69
  Q 405.20 428.09 403.63 427.96
  A 0.52 0.52 0.0 0 0 403.06 428.49
  Q 403.07 429.69 400.35 442.04
  Q 397.71 454.01 395.23 471.48
  Q 393.72 482.15 394.16 492.72
  C 394.21 493.94 393.97 495.35 393.84 496.69
  Z
  M 352.35 612.46
  A 0.13 0.13 0.0 0 0 352.52 612.65
  Q 364.64 604.12 377.20 594.18
  Q 390.07 584.00 404.24 574.24
  C 416.03 566.13 424.24 561.28 433.87 553.28
  Q 438.64 549.31 447.00 543.25
  Q 449.17 541.67 461.65 531.05
  A 0.59 0.58 54.4 0 0 461.77 530.30
  Q 449.45 510.27 445.89 503.87
  Q 439.93 493.15 429.76 475.57
  A 0.21 0.21 0.0 0 0 429.45 475.51
  L 395.30 502.48
  A 3.55 3.54 73.3 0 0 393.97 504.96
  Q 393.28 513.36 391.18 522.23
  Q 387.23 538.85 382.04 555.09
  C 375.48 575.65 365.84 595.78 352.35 612.46
  Z
  M 607.05 534.40
  L 597.90 534.78
  A 0.44 0.43 89.3 0 0 597.48 535.22
  L 597.48 543.65
  A 0.08 0.08 0.0 0 0 597.62 543.70
  Q 601.32 539.08 607.24 534.95
  A 0.30 0.30 0.0 0 0 607.05 534.40
  Z
  M 437.58 557.04
  Q 438.07 557.16 438.66 556.65
  Q 439.48 555.95 439.98 555.96
  Q 440.88 555.98 441.17 555.32
  A 0.59 0.59 0.0 0 1 441.96 555.03
  Q 442.34 555.22 444.67 554.48
  Q 451.70 552.27 467.13 549.19
  A 1.65 0.84 18.0 0 1 467.32 549.16
  L 471.62 549.05
  A 1.63 1.63 0.0 0 0 472.68 546.22
  Q 471.66 545.27 470.06 542.73
  Q 466.36 536.88 465.52 535.53
  A 1.14 1.13 -36.8 0 0 463.80 535.29
  Q 454.16 543.94 443.55 551.30
  Q 441.37 552.81 441.08 553.43
  A 0.98 0.97 -79.7 0 1 440.29 553.98
  Q 438.77 554.14 437.34 556.44
  A 0.40 0.40 0.0 0 0 437.58 557.04
  Z
  M 328.33 697.19
  C 349.92 694.96 372.96 693.84 393.53 693.09
  C 396.11 693.00 398.54 693.12 400.14 690.92
  Q 404.53 684.93 419.81 664.05
  Q 421.04 662.37 428.11 651.38
  A 1.51 1.49 7.7 0 1 428.95 650.75
  Q 432.22 649.77 432.29 649.76
  Q 443.94 648.52 453.97 648.25
  C 459.05 648.10 466.23 647.04 471.08 647.67
  Q 473.44 647.98 475.88 647.82
  C 479.59 647.56 483.41 647.54 485.40 647.49
  A 26.56 26.50 -52.7 0 0 491.00 646.73
  Q 500.38 644.39 509.52 643.52
  A 0.71 0.71 0.0 0 0 510.16 642.87
  C 511.37 627.61 512.19 617.45 513.67 604.91
  C 514.56 597.36 514.64 591.82 515.22 583.21
  A 0.75 0.74 88.1 0 0 514.38 582.42
  Q 513.50 582.54 512.50 582.42
  Q 502.12 581.17 494.33 573.92
  Q 484.33 564.61 475.95 553.33
  A 1.21 1.19 -21.5 0 0 474.85 552.86
  Q 453.10 555.60 433.03 563.26
  Q 427.77 565.26 422.39 568.63
  Q 417.25 571.86 393.54 588.53
  Q 389.16 591.61 388.09 593.62
  C 380.20 608.44 370.18 624.93 361.49 640.08
  Q 340.28 677.06 335.75 685.25
  Q 332.39 691.32 328.20 696.96
  A 0.15 0.14 15.9 0 0 328.33 697.19
  Z
  M 597.45 583.57
  L 596.92 590.48
  L 595.67 598.57
  A 0.37 0.37 0.0 0 0 596.15 598.98
  C 606.06 595.68 613.83 591.96 625.41 586.68
  A 0.25 0.24 -43.1 0 0 625.43 586.24
  L 598.03 571.81
  A 0.23 0.23 0.0 0 0 597.69 572.00
  L 597.45 583.57
  Z
  M 379.27 599.61
  A 0.49 0.49 0.0 0 0 378.45 599.16
  L 375.86 601.56
  Q 375.82 601.59 375.78 601.62
  Q 369.07 606.37 359.05 613.80
  Q 355.02 616.80 350.81 618.88
  Q 347.55 620.50 344.77 622.40
  C 339.69 625.89 336.70 630.45 332.52 634.71
  Q 313.36 654.22 308.04 659.02
  Q 295.59 670.24 283.03 680.27
  Q 274.90 686.76 266.10 691.81
  A 0.67 0.67 0.0 0 0 266.61 693.04
  Q 268.55 692.51 269.26 693.81
  A 0.57 0.57 0.0 0 0 270.04 694.03
  Q 270.35 693.86 273.86 694.79
  Q 276.97 695.62 288.38 697.51
  C 292.82 698.24 296.97 698.37 301.98 698.99
  Q 306.48 699.55 318.71 698.96
  Q 321.89 698.80 323.59 695.87
  Q 326.18 691.40 327.48 689.42
  Q 329.26 686.70 331.35 682.96
  Q 337.15 672.53 357.12 637.61
  Q 367.05 620.25 367.59 620.00
  Q 368.11 619.75 368.06 619.07
  A 0.89 0.86 -19.1 0 1 368.47 618.25
  Q 369.26 617.76 369.10 617.04
  A 0.55 0.55 0.0 0 1 369.63 616.37
  Q 370.16 616.36 370.04 615.80
  A 0.72 0.70 -29.0 0 1 370.23 615.17
  Q 371.46 613.93 372.20 611.65
  A 0.35 0.34 -88.0 0 1 372.42 611.44
  Q 372.50 611.42 372.55 611.40
  A 0.94 0.93 -11.3 0 0 373.12 610.56
  Q 373.14 609.83 373.74 609.75
  A 0.46 0.46 0.0 0 0 374.12 609.18
  Q 374.05 608.91 374.27 608.27
  Q 374.67 607.07 375.10 606.72
  Q 376.05 605.95 376.03 604.89
  A 1.15 1.14 -18.3 0 1 376.51 603.94
  Q 377.99 602.87 378.02 601.83
  A 1.03 1.03 0.0 0 1 378.43 601.03
  Q 379.09 600.56 379.27 599.61
  Z
  M 594.14 610.07
  C 594.22 610.67 594.40 610.92 594.34 611.59
  Q 593.36 622.61 591.64 632.35
  A 0.58 0.58 0.0 0 0 592.32 633.02
  L 629.38 625.87
  A 0.43 0.43 0.0 0 0 629.47 625.06
  Q 609.29 616.21 595.86 610.66
  C 595.24 610.40 595.07 609.96 594.65 609.73
  A 0.34 0.34 0.0 0 0 594.14 610.07
  Z
  M 615.53 653.76
  Q 613.05 652.16 607.60 649.65
  Q 606.53 649.16 591.29 643.04
  A 0.34 0.34 0.0 0 0 590.83 643.33
  L 589.96 656.95
  A 0.24 0.24 0.0 0 0 590.20 657.21
  Q 598.27 657.25 606.53 656.33
  Q 611.15 655.82 615.47 654.27
  A 0.29 0.28 51.9 0 0 615.53 653.76
  Z
  M 407.52 690.62
  Q 408.44 690.29 408.59 690.43
  A 1.31 1.31 0.0 0 0 409.93 690.69
  Q 421.19 686.50 430.62 681.61
  Q 433.51 680.11 435.88 678.31
  Q 438.65 676.22 440.84 674.58
  Q 442.53 673.32 460.26 658.36
  C 461.78 657.07 463.81 656.03 465.04 654.42
  A 1.09 1.05 6.6 0 1 465.47 654.09
  L 466.69 653.59
  A 0.70 0.70 0.0 0 0 466.41 652.25
  Q 450.41 652.71 437.29 654.00
  C 434.06 654.32 432.44 654.15 430.73 656.73
  Q 419.64 673.37 406.89 689.76
  A 0.56 0.55 8.9 0 0 407.52 690.62
  Z
  M 508.01 665.71
  C 507.26 666.21 506.21 666.15 505.30 666.40
  Q 500.40 667.76 495.74 669.39
  Q 495.53 669.46 495.45 669.72
  Q 495.37 669.97 495.12 670.04
  Q 492.70 670.70 489.53 671.95
  A 0.24 0.24 0.0 0 0 489.56 672.40
  Q 491.00 672.74 494.01 672.55
  Q 500.44 672.15 508.31 671.66
  A 1.03 1.03 0.0 0 0 509.28 670.63
  L 509.28 666.39
  A 0.82 0.81 73.0 0 0 508.01 665.71
  Z
  M 263.24 754.84
  C 262.48 754.76 261.87 754.97 260.84 754.72
  Q 236.02 748.81 231.31 747.42
  Q 229.09 746.77 228.83 746.91
  A 0.52 0.52 0.0 0 1 228.20 746.80
  Q 227.16 745.62 226.12 745.99
  A 1.11 0.87 34.4 0 0 226.70 747.82
  Q 227.71 748.01 228.05 748.66
  Q 228.24 749.02 228.49 749.28
  Q 234.90 755.92 241.24 761.26
  C 243.83 763.44 245.35 765.07 247.95 767.72
  A 0.57 0.56 -41.3 0 0 248.70 767.76
  L 263.57 756.01
  A 0.66 0.66 0.0 0 0 263.24 754.84
  Z
  M 707.26 914.43
  Q 702.95 907.94 700.39 905.91
  C 694.19 900.98 689.49 898.14 687.17 893.60
  A 0.95 0.95 0.0 0 1 688.19 892.23
  C 690.29 892.60 691.45 894.04 693.31 894.26
  Q 703.73 895.47 714.29 894.95
  A 0.48 0.48 0.0 0 0 714.61 894.14
  C 707.42 886.38 698.36 879.15 689.13 872.75
  Q 657.46 850.79 623.63 828.28
  C 614.95 822.51 604.74 815.24 597.97 809.34
  Q 590.71 803.01 589.23 800.54
  Q 585.25 793.92 581.77 784.55
  Q 579.48 778.40 578.74 771.30
  Q 577.67 760.96 577.41 757.70
  A 0.71 0.70 3.2 0 0 576.83 757.06
  Q 575.28 756.78 572.44 757.11
  C 567.46 757.69 561.14 757.38 557.47 757.64
  Q 547.89 758.34 527.08 759.86
  C 522.73 760.18 513.88 761.98 506.87 761.55
  A 0.45 0.45 0.0 0 0 506.39 762.01
  Q 506.65 771.94 506.66 783.76
  C 506.67 787.47 506.53 789.27 504.30 791.82
  C 499.38 797.45 495.93 802.64 498.38 810.56
  Q 501.11 819.36 505.93 833.03
  C 508.53 840.42 511.05 848.25 514.58 854.96
  Q 523.10 871.18 534.27 889.27
  Q 540.50 899.37 546.32 905.40
  Q 554.35 913.73 565.20 921.32
  Q 584.43 934.77 606.16 947.07
  Q 608.50 948.40 610.75 950.30
  A 0.40 0.40 0.0 0 0 611.39 950.11
  Q 614.54 939.71 615.75 928.02
  Q 615.92 926.35 617.10 923.77
  A 0.94 0.93 11.3 0 1 617.94 923.22
  Q 621.37 923.18 625.26 924.74
  Q 638.54 930.07 649.59 933.70
  Q 652.79 934.75 656.97 934.42
  Q 667.92 933.54 674.37 932.65
  A 0.52 0.52 0.0 0 0 674.77 931.91
  C 673.15 928.61 671.92 925.83 669.32 922.97
  Q 665.18 918.41 660.59 913.82
  A 1.87 1.73 45.0 0 1 660.49 911.28
  Q 660.97 910.80 661.97 910.55
  A 1.58 1.55 -41.3 0 1 662.87 910.60
  Q 668.13 912.47 675.27 913.24
  Q 689.19 914.72 699.56 914.59
  A 5.28 4.81 -35.6 0 1 700.75 914.73
  Q 702.27 915.11 706.92 915.06
  A 0.41 0.41 0.0 0 0 707.26 914.43
  Z"
/>
<path fill="#f9f9fa" d="
  M 360.71 22.94
  C 363.53 26.03 366.37 29.49 363.67 33.41
  Q 357.11 42.94 350.98 48.24
  Q 331.65 64.96 305.22 75.62
  C 298.86 78.19 283.90 82.08 278.69 76.60
  Q 277.56 75.41 276.82 73.04
  Q 274.21 64.73 273.91 54.11
  C 273.23 30.43 289.42 12.24 311.69 6.29
  Q 319.65 4.15 328.31 5.56
  Q 347.68 8.69 360.71 22.94
  Z
  M 313.00 44.04
  C 318.78 44.98 323.47 44.77 327.27 40.19
  C 328.53 38.68 329.18 35.78 329.84 34.53
  A 1.24 1.22 -84.5 0 1 330.58 33.91
  C 334.20 32.79 338.78 32.97 342.82 32.77
  C 345.61 32.64 347.86 29.68 345.57 27.19
  C 342.04 23.34 333.75 23.86 328.71 24.25
  A 2.38 2.29 57.3 0 1 327.32 23.92
  C 325.24 22.69 323.44 21.34 321.21 20.98
  C 311.91 19.48 303.09 25.74 303.96 35.63
  A 2.47 2.47 0.0 0 1 303.52 37.27
  C 300.74 41.26 291.81 50.84 299.11 54.89
  A 1.84 1.78 56.8 0 0 300.13 55.12
  C 304.74 54.82 307.52 46.85 312.01 44.23
  A 1.52 1.50 33.9 0 1 313.00 44.04
  Z"
/>
<path fill="#f9f9fa" d="
  M 408.89 34.92
  C 407.57 31.44 407.76 29.00 410.38 26.10
  C 420.32 15.14 437.25 12.13 451.34 14.46
  Q 470.95 17.69 481.43 34.17
  C 487.84 44.26 490.07 57.76 488.69 70.10
  Q 487.28 82.58 483.07 93.84
  A 2.90 2.89 78.1 0 1 482.35 94.95
  Q 479.26 97.95 474.79 96.71
  Q 464.39 93.85 454.62 86.88
  Q 444.56 79.69 437.79 72.99
  Q 424.14 59.47 415.18 46.64
  Q 411.14 40.85 408.89 34.92
  Z
  M 467.82 73.25
  Q 471.51 71.79 472.21 67.43
  C 473.02 62.38 470.45 58.39 467.77 53.88
  A 3.70 3.70 0.0 0 1 467.47 50.74
  Q 470.62 42.03 463.64 35.82
  Q 456.73 29.67 448.54 33.57
  A 4.00 3.98 43.2 0 1 445.29 33.66
  Q 438.70 30.93 431.60 30.74
  Q 427.06 30.62 425.92 34.27
  Q 424.75 38.01 428.47 39.00
  Q 436.53 41.15 437.35 41.43
  C 442.04 43.03 442.16 45.15 443.70 49.53
  Q 446.73 58.10 455.76 58.02
  A 2.74 2.73 69.6 0 1 457.87 58.99
  C 460.61 62.23 461.37 64.87 463.33 70.11
  Q 464.04 72.00 466.71 73.22
  A 1.43 1.42 46.4 0 0 467.82 73.25
  Z"
/>
<path fill="#89c52e" d="
  M 247.83 224.21
  A 0.30 0.30 0.0 0 1 248.40 224.10
  Q 252.08 231.72 257.81 237.53
  A 1.84 1.84 0.0 0 0 260.96 236.41
  Q 261.07 235.22 260.18 233.84
  C 243.62 208.27 231.60 181.24 225.16 151.80
  Q 222.74 140.76 223.95 131.06
  Q 225.16 121.43 228.49 111.47
  C 231.66 101.99 235.32 95.31 243.18 89.53
  Q 245.85 87.56 250.76 87.01
  Q 253.69 86.68 257.81 84.30
  Q 263.75 80.87 271.43 75.03
  A 0.60 0.60 0.0 0 1 272.40 75.50
  Q 272.41 76.57 273.06 77.52
  Q 276.76 82.97 283.62 83.62
  C 299.93 85.16 315.92 77.23 330.72 68.41
  C 345.13 59.83 359.47 49.54 367.77 35.04
  Q 370.79 29.76 368.53 24.54
  A 0.40 0.38 59.5 0 1 368.64 24.09
  Q 374.18 19.67 381.17 18.07
  Q 394.97 14.93 405.54 23.48
  A 0.42 0.42 0.0 0 1 405.58 24.10
  C 398.62 31.26 407.34 43.45 411.43 49.67
  Q 427.92 74.77 453.39 91.94
  Q 460.08 96.45 467.05 99.26
  C 472.92 101.62 480.75 104.00 485.11 98.23
  A 0.32 0.32 0.0 0 1 485.63 98.24
  C 492.18 107.43 501.13 113.29 510.66 118.97
  A 5.72 5.62 66.3 0 0 512.39 119.66
  Q 515.72 120.38 516.85 121.62
  Q 519.05 124.03 523.17 130.52
  C 527.63 137.53 528.74 143.50 527.77 151.26
  C 526.26 163.35 523.76 175.15 521.71 186.22
  Q 520.98 190.19 518.91 193.70
  C 509.79 209.15 496.94 221.42 483.23 232.98
  C 477.84 237.52 474.26 243.71 468.73 247.47
  Q 458.03 254.77 449.72 263.88
  A 6.21 6.13 7.7 0 1 447.87 265.27
  L 445.33 266.54
  A 3.03 2.88 -76.1 0 0 444.75 266.91
  Q 437.16 272.99 433.17 279.44
  C 424.98 292.66 420.73 299.14 416.27 310.09
  Q 413.81 316.15 411.66 319.67
  Q 407.20 326.98 400.73 337.73
  Q 393.42 349.85 382.03 357.78
  C 380.21 359.05 377.82 360.02 375.47 360.27
  Q 361.84 361.66 354.76 361.04
  Q 347.63 360.41 342.52 359.94
  C 334.72 359.22 326.75 357.44 318.24 354.92
  Q 294.42 347.86 293.50 347.57
  C 280.50 343.41 274.77 336.29 268.37 324.38
  C 262.33 313.13 258.08 298.53 253.86 286.13
  Q 249.27 272.65 248.04 265.49
  Q 245.44 250.31 246.98 234.83
  Q 247.52 229.45 247.83 224.21
  Z
  M 512.68 156.56
  Q 512.51 156.61 512.20 156.94
  Q 498.60 171.65 480.56 175.80
  Q 476.77 176.67 454.08 182.24
  Q 446.01 184.22 436.84 185.00
  Q 422.11 186.26 418.27 186.41
  C 410.16 186.73 399.97 188.27 393.26 188.68
  Q 371.11 190.03 360.07 188.86
  Q 341.94 186.94 317.28 179.50
  Q 311.36 177.71 305.64 175.04
  C 293.57 169.39 281.19 161.58 270.89 156.18
  Q 261.84 151.43 257.24 147.20
  Q 250.01 140.56 245.62 132.41
  C 244.45 130.23 243.94 128.06 243.19 125.30
  A 1.04 1.03 -41.7 0 0 241.23 125.19
  C 239.23 130.16 242.48 135.92 245.66 140.50
  C 251.46 148.86 258.71 154.05 268.88 159.84
  Q 286.25 169.73 291.15 172.65
  C 297.35 176.34 305.53 180.34 312.30 182.69
  Q 331.17 189.23 352.64 193.18
  Q 361.52 194.81 370.03 194.83
  Q 381.86 194.85 387.51 194.24
  Q 421.84 190.51 436.47 189.34
  Q 444.25 188.71 452.40 186.80
  Q 481.52 179.98 485.85 178.61
  Q 500.73 173.93 511.19 163.28
  C 512.64 161.81 514.06 159.75 513.85 157.36
  A 0.92 0.91 79.2 0 0 512.68 156.56
  Z"
/>
<path fill="#000000" d="
  M 312.01 44.23
  C 307.52 46.85 304.74 54.82 300.13 55.12
  A 1.84 1.78 56.8 0 1 299.11 54.89
  C 291.81 50.84 300.74 41.26 303.52 37.27
  A 2.47 2.47 0.0 0 0 303.96 35.63
  C 303.09 25.74 311.91 19.48 321.21 20.98
  C 323.44 21.34 325.24 22.69 327.32 23.92
  A 2.38 2.29 57.3 0 0 328.71 24.25
  C 333.75 23.86 342.04 23.34 345.57 27.19
  C 347.86 29.68 345.61 32.64 342.82 32.77
  C 338.78 32.97 334.20 32.79 330.58 33.91
  A 1.24 1.22 -84.5 0 0 329.84 34.53
  C 329.18 35.78 328.53 38.68 327.27 40.19
  C 323.47 44.77 318.78 44.98 313.00 44.04
  A 1.52 1.50 33.9 0 0 312.01 44.23
  Z"
/>
<path fill="#000000" d="
  M 466.71 73.22
  Q 464.04 72.00 463.33 70.11
  C 461.37 64.87 460.61 62.23 457.87 58.99
  A 2.74 2.73 69.6 0 0 455.76 58.02
  Q 446.73 58.10 443.70 49.53
  C 442.16 45.15 442.04 43.03 437.35 41.43
  Q 436.53 41.15 428.47 39.00
  Q 424.75 38.01 425.92 34.27
  Q 427.06 30.62 431.60 30.74
  Q 438.70 30.93 445.29 33.66
  A 4.00 3.98 43.2 0 0 448.54 33.57
  Q 456.73 29.67 463.64 35.82
  Q 470.62 42.03 467.47 50.74
  A 3.70 3.70 0.0 0 0 467.77 53.88
  C 470.45 58.39 473.02 62.38 472.21 67.43
  Q 471.51 71.79 467.82 73.25
  A 1.43 1.42 46.4 0 1 466.71 73.22
  Z"
/>
<path fill="#89c52e" d="
  M 549.48 152.74
  C 553.53 156.37 554.65 163.81 554.56 169.01
  C 554.32 182.97 552.55 195.84 553.18 209.19
  A 1.07 1.07 0.0 0 0 555.15 209.71
  Q 555.99 208.41 556.29 207.09
  Q 557.94 199.76 560.14 177.57
  Q 560.68 172.05 560.47 170.49
  C 559.87 166.12 559.86 163.17 559.03 159.85
  Q 556.63 150.17 555.86 137.50
  Q 555.35 129.25 558.36 121.92
  A 0.82 0.82 0.0 0 1 559.50 121.51
  L 563.20 123.46
  A 1.00 1.00 0.0 0 1 563.66 124.73
  Q 560.90 131.33 561.42 138.75
  Q 562.11 148.69 562.87 157.08
  Q 565.09 181.71 560.01 204.80
  Q 556.66 220.00 547.25 236.95
  C 546.01 239.19 542.93 241.79 540.08 243.47
  Q 525.50 252.04 507.70 263.45
  Q 498.58 269.29 487.41 279.67
  Q 482.55 284.18 484.55 290.35
  C 494.34 320.58 504.67 351.04 514.39 381.87
  C 517.98 393.26 520.66 403.81 524.92 416.29
  C 526.89 422.06 530.14 427.63 532.09 432.93
  Q 538.91 451.44 544.00 466.51
  Q 546.24 473.15 548.91 484.62
  Q 555.91 514.72 558.35 542.24
  Q 558.57 544.75 558.50 549.00
  C 558.41 553.63 555.26 558.19 552.30 561.21
  Q 536.99 576.90 515.84 576.89
  Q 506.51 576.89 498.79 570.17
  Q 488.14 560.89 480.67 549.60
  C 461.09 520.01 441.05 484.97 426.66 457.61
  C 418.55 442.18 413.24 431.15 406.43 420.93
  A 1.34 1.34 0.0 0 1 406.24 419.91
  C 408.07 411.28 409.51 402.06 409.68 393.56
  C 409.68 393.27 409.33 392.29 409.41 392.21
  A 0.35 0.34 -49.4 0 1 409.88 392.17
  Q 417.39 398.24 419.28 399.48
  Q 442.73 414.87 469.37 428.11
  C 471.27 429.05 471.51 430.42 472.03 432.34
  Q 473.24 436.89 481.64 468.77
  Q 485.66 484.01 488.99 498.36
  Q 495.62 526.95 495.93 528.05
  Q 497.00 531.93 497.87 534.04
  C 498.63 535.89 500.31 537.12 502.00 536.81
  A 1.26 1.26 0.0 0 0 503.01 535.29
  Q 500.59 524.64 493.52 493.86
  Q 489.07 474.52 485.13 460.21
  C 480.77 444.43 477.77 431.33 473.22 415.56
  Q 462.23 377.54 452.17 336.42
  Q 447.63 317.86 446.77 301.25
  Q 446.25 291.26 446.67 288.12
  C 447.68 280.45 449.85 272.19 455.32 266.21
  C 466.95 253.50 479.76 246.62 496.13 238.89
  C 498.94 237.57 502.03 235.27 504.67 232.69
  C 512.59 224.98 519.38 217.87 524.71 208.97
  Q 526.71 205.63 527.46 202.75
  C 528.26 199.64 526.52 194.08 527.36 188.89
  Q 529.29 176.97 532.51 163.53
  C 534.73 154.25 533.46 139.39 533.91 132.21
  Q 534.46 123.28 537.30 116.68
  Q 538.61 113.64 541.61 114.12
  A 1.18 1.16 -3.0 0 1 542.56 114.96
  Q 543.40 118.03 543.15 120.87
  C 542.33 130.25 542.01 137.84 543.26 146.49
  Q 545.16 159.70 545.01 162.64
  Q 544.21 178.22 541.43 192.67
  C 538.74 206.62 532.44 221.73 522.02 231.77
  C 518.20 235.45 514.24 238.65 513.09 242.33
  A 0.47 0.46 -81.2 0 0 513.53 242.94
  Q 515.07 242.96 516.07 242.33
  C 535.06 230.31 542.48 213.63 546.88 190.97
  Q 550.68 171.37 548.91 153.03
  A 0.34 0.34 0.0 0 1 549.48 152.74
  Z"
/>
<path fill="#89c52e" d="
  M 529.31 130.50
  A 0.21 0.20 -59.1 0 1 528.92 130.60
  Q 525.02 122.54 518.49 116.40
  A 0.72 0.72 0.0 0 1 518.95 115.16
  L 520.27 115.11
  A 3.12 3.12 0.0 0 1 522.86 116.30
  L 528.50 123.44
  A 2.67 2.66 24.8 0 1 529.08 125.01
  L 529.31 130.50
  Z"
/>
<path fill="#000000" d="
  M 512.68 156.56
  A 0.92 0.91 79.2 0 1 513.85 157.36
  C 514.06 159.75 512.64 161.81 511.19 163.28
  Q 500.73 173.93 485.85 178.61
  Q 481.52 179.98 452.40 186.80
  Q 444.25 188.71 436.47 189.34
  Q 421.84 190.51 387.51 194.24
  Q 381.86 194.85 370.03 194.83
  Q 361.52 194.81 352.64 193.18
  Q 331.17 189.23 312.30 182.69
  C 305.53 180.34 297.35 176.34 291.15 172.65
  Q 286.25 169.73 268.88 159.84
  C 258.71 154.05 251.46 148.86 245.66 140.50
  C 242.48 135.92 239.23 130.16 241.23 125.19
  A 1.04 1.03 -41.7 0 1 243.19 125.30
  C 243.94 128.06 244.45 130.23 245.62 132.41
  Q 250.01 140.56 257.24 147.20
  Q 261.84 151.43 270.89 156.18
  C 281.19 161.58 293.57 169.39 305.64 175.04
  Q 311.36 177.71 317.28 179.50
  Q 341.94 186.94 360.07 188.86
  Q 371.11 190.03 393.26 188.68
  C 399.97 188.27 410.16 186.73 418.27 186.41
  Q 422.11 186.26 436.84 185.00
  Q 446.01 184.22 454.08 182.24
  Q 476.77 176.67 480.56 175.80
  Q 498.60 171.65 512.20 156.94
  Q 512.51 156.61 512.68 156.56
  Z"
/>
<path fill="#f7da2b" d="
  M 436.82 343.89
  C 434.74 339.19 433.00 334.38 428.66 333.52
  A 1.29 1.29 0.0 0 0 427.32 335.49
  Q 432.93 344.15 435.62 353.38
  C 436.78 357.35 437.56 362.24 439.29 366.26
  Q 444.39 378.14 453.38 388.05
  C 455.20 390.07 457.39 391.39 459.68 392.85
  A 4.30 4.25 -82.0 0 1 461.47 395.25
  L 469.43 422.36
  A 0.06 0.06 0.0 0 1 469.34 422.43
  Q 464.76 419.52 449.51 410.99
  Q 426.75 398.26 406.59 382.35
  A 1.56 1.56 0.0 0 0 404.07 383.57
  Q 404.07 397.53 401.73 412.10
  Q 400.90 417.27 397.35 431.80
  C 393.02 449.55 390.31 467.43 387.23 483.75
  Q 384.15 500.09 380.22 514.40
  A 0.30 0.30 0.0 0 1 379.63 514.38
  C 379.53 513.93 379.93 512.87 379.92 512.00
  Q 379.16 477.55 372.45 445.16
  Q 368.34 425.34 358.63 407.16
  Q 358.34 406.62 357.67 406.39
  A 1.69 1.62 19.3 0 0 355.56 407.35
  Q 348.84 425.92 337.74 454.53
  Q 335.53 460.24 327.98 477.71
  Q 319.21 497.99 309.44 514.95
  Q 305.31 522.13 301.12 527.74
  A 0.31 0.31 0.0 0 1 300.57 527.51
  Q 300.96 525.02 301.11 518.35
  Q 302.20 469.73 301.35 440.75
  Q 300.89 424.80 298.53 407.50
  Q 297.43 399.47 295.38 393.29
  A 1.27 1.26 4.8 0 0 294.75 392.55
  Q 292.89 391.59 291.25 392.76
  Q 286.84 395.90 280.08 401.59
  Q 270.12 409.99 248.70 429.21
  Q 222.76 452.48 210.75 465.01
  Q 197.52 478.84 196.89 479.69
  A 0.29 0.29 0.0 0 1 196.38 479.46
  Q 197.69 472.96 202.32 458.05
  Q 206.05 446.04 220.48 410.52
  C 230.35 386.20 237.98 367.08 244.31 345.31
  Q 244.83 343.51 244.55 342.82
  A 2.61 2.47 -15.1 0 0 241.81 341.34
  C 229.89 343.08 216.48 346.06 204.66 349.18
  Q 185.24 354.29 167.37 358.36
  C 151.55 361.96 138.15 367.70 123.68 374.48
  A 0.27 0.27 0.0 0 1 123.35 374.06
  Q 132.08 363.12 142.91 353.41
  C 153.90 343.57 171.32 329.77 184.19 316.95
  Q 204.60 296.62 211.62 289.63
  C 212.83 288.43 216.58 284.17 212.55 283.40
  Q 202.05 281.41 195.74 281.84
  C 190.32 282.21 186.59 282.20 182.10 283.00
  C 156.18 287.62 134.64 294.27 112.59 306.42
  A 0.14 0.14 0.0 0 1 112.42 306.21
  Q 116.35 301.74 126.57 290.83
  C 136.03 280.73 148.02 271.37 160.75 262.85
  C 179.20 250.51 190.14 243.16 204.14 235.17
  Q 206.08 234.06 205.70 232.19
  Q 205.48 231.10 204.31 231.21
  C 193.74 232.20 183.67 233.89 173.84 237.79
  C 169.38 239.56 161.26 241.97 155.13 244.89
  Q 151.58 246.59 147.94 248.37
  A 0.26 0.25 -26.0 0 1 147.61 248.26
  L 147.60 248.24
  A 0.19 0.18 59.9 0 1 147.66 247.99
  Q 153.51 244.33 157.16 241.91
  Q 161.24 239.21 183.00 227.75
  Q 187.11 225.58 200.90 216.41
  Q 206.93 212.41 216.46 209.17
  C 222.77 207.03 231.60 207.19 237.38 206.18
  A 0.45 0.45 0.0 0 1 237.84 206.39
  L 243.65 216.47
  A 2.25 2.23 37.1 0 1 243.89 218.14
  C 240.43 232.06 240.53 246.75 241.66 260.54
  Q 241.85 262.87 243.90 272.45
  Q 244.81 276.70 247.36 284.06
  Q 249.19 289.37 257.10 312.66
  Q 258.34 316.33 263.03 325.95
  Q 267.87 335.87 275.53 343.73
  C 280.76 349.11 291.31 353.06 298.45 354.79
  C 306.55 356.75 315.91 360.20 322.99 361.86
  Q 341.79 366.28 361.01 366.45
  Q 369.29 366.52 376.96 365.37
  C 387.10 363.84 397.91 351.70 403.17 343.45
  Q 413.96 326.51 418.01 319.67
  A 0.36 0.35 -51.7 0 1 418.57 319.60
  Q 424.91 325.95 433.51 336.10
  Q 435.11 337.98 437.01 343.82
  A 0.10 0.10 0.0 0 1 436.82 343.89
  Z"
/>
<path fill="#f7da2b" d="
  M 140.84 271.40
  Q 142.42 269.75 143.70 268.69
  Q 156.11 258.40 168.38 248.39
  Q 176.89 241.45 186.72 238.88
  A 0.22 0.22 0.0 0 1 186.89 239.27
  Q 169.00 250.57 149.14 265.40
  Q 144.23 269.06 140.92 271.49
  A 0.06 0.06 0.0 0 1 140.84 271.40
  Z"
/>
<path fill="#89c52e" d="
  M 117.79 293.64
  Q 108.67 304.63 104.79 309.79
  Q 103.83 311.07 104.24 313.04
  A 0.79 0.78 -88.9 0 0 104.81 313.64
  C 107.67 314.33 108.82 312.36 111.14 311.44
  Q 112.05 311.08 123.47 305.88
  C 142.11 297.39 162.16 291.82 182.14 288.62
  Q 194.20 286.69 206.36 286.96
  A 0.40 0.40 0.0 0 1 206.62 287.66
  C 200.20 293.27 192.77 300.70 180.98 312.49
  C 169.85 323.62 157.87 333.55 147.62 341.99
  C 142.61 346.12 137.46 351.07 133.71 354.71
  Q 127.26 360.96 122.03 367.77
  Q 119.30 371.33 117.82 374.63
  A 2.92 2.45 -58.2 0 0 118.27 377.77
  C 121.27 380.56 124.32 379.27 127.64 377.51
  A 0.45 0.45 0.0 0 1 128.29 378.01
  Q 128.22 378.28 127.45 380.39
  Q 125.73 385.08 123.63 397.62
  Q 122.70 403.14 122.15 415.18
  Q 121.23 435.09 120.74 449.01
  C 120.22 463.44 121.50 478.45 123.35 493.33
  Q 124.32 501.08 124.38 508.74
  Q 124.43 515.45 125.41 547.15
  Q 125.54 551.33 126.01 554.83
  C 126.43 557.98 126.34 561.16 126.72 565.04
  Q 128.07 578.60 129.37 590.47
  Q 131.65 611.35 135.58 633.98
  Q 137.70 646.16 140.88 656.85
  A 0.37 0.36 -1.7 0 1 140.44 657.31
  C 139.86 657.17 138.17 655.25 137.33 654.74
  Q 117.12 642.27 103.68 633.73
  Q 98.86 630.66 95.32 628.83
  C 91.55 626.89 88.30 624.78 83.85 622.86
  Q 68.50 616.22 53.38 607.36
  C 49.47 605.07 46.05 607.19 42.17 607.53
  A 1.35 1.35 0.0 0 0 42.01 610.19
  C 46.16 611.07 48.50 611.64 52.12 613.41
  C 62.21 618.33 69.15 622.43 79.70 627.32
  Q 91.28 632.69 99.89 638.13
  Q 123.25 652.87 141.68 664.26
  A 3.47 3.44 9.1 0 1 143.21 666.35
  C 147.47 683.20 157.00 699.18 168.41 712.61
  Q 180.34 726.64 196.79 734.70
  Q 209.91 741.13 214.57 743.55
  A 7.45 7.41 80.0 0 1 216.23 744.72
  Q 234.91 762.32 248.43 775.16
  C 252.56 779.09 256.72 784.17 260.64 787.91
  Q 263.49 790.62 265.58 791.61
  A 0.81 0.80 -73.4 0 0 266.72 790.99
  Q 267.15 788.07 265.23 785.77
  Q 259.18 778.53 252.46 771.49
  A 0.46 0.45 -40.9 0 1 252.51 770.82
  L 268.77 757.98
  A 1.55 1.52 -57.5 0 1 270.06 757.68
  Q 286.61 761.30 305.50 761.77
  Q 336.67 762.54 365.59 758.85
  A 0.32 0.31 -76.6 0 1 365.89 759.34
  Q 352.68 779.01 334.60 802.36
  C 325.86 813.66 316.13 823.34 303.21 829.45
  Q 282.64 839.19 260.73 839.91
  Q 247.39 840.35 237.00 840.28
  C 226.32 840.21 215.54 834.60 206.66 829.06
  Q 201.63 825.92 190.83 816.28
  Q 156.37 785.50 118.81 753.98
  Q 110.83 747.28 103.81 741.94
  C 97.04 736.79 89.85 731.59 83.86 725.85
  Q 69.27 711.88 59.73 694.05
  Q 51.84 679.30 44.79 661.95
  Q 36.51 641.57 31.21 627.05
  C 28.88 620.66 30.16 614.51 28.65 608.22
  Q 22.45 582.30 16.95 565.27
  Q 11.83 549.39 10.21 543.29
  Q 4.96 523.52 5.97 502.73
  Q 7.02 480.87 10.71 454.92
  C 13.94 432.18 22.89 413.81 35.16 393.09
  Q 46.11 374.61 56.92 360.66
  Q 74.83 337.53 94.45 316.22
  Q 101.20 308.89 117.50 293.37
  A 0.20 0.20 0.0 0 1 117.79 293.64
  Z"
/>
<path fill="#89c52e" d="
  M 195.08 462.61
  Q 193.04 417.58 192.22 402.50
  Q 191.67 392.55 189.21 384.14
  A 0.20 0.18 88.9 0 0 189.09 384.01
  L 188.56 383.84
  A 0.97 0.96 10.1 0 0 187.29 384.72
  Q 186.75 403.01 187.64 422.75
  C 188.16 434.22 188.12 442.35 188.91 453.09
  Q 189.41 459.89 189.65 466.75
  C 190.44 490.17 191.52 516.20 192.80 545.25
  Q 193.88 569.44 194.51 603.93
  Q 194.64 610.66 194.90 614.55
  C 195.23 619.25 195.18 623.75 195.70 628.71
  Q 197.14 642.48 199.04 656.25
  C 199.52 659.77 198.66 665.49 201.50 668.26
  Q 209.95 676.51 220.01 681.79
  Q 224.69 684.25 236.94 688.81
  Q 248.90 693.27 266.62 697.88
  C 281.32 701.70 294.13 703.53 308.17 704.07
  Q 311.52 704.20 313.33 704.00
  C 315.56 703.75 318.04 703.85 320.22 703.49
  C 327.41 702.28 337.08 701.79 344.28 701.07
  Q 358.14 699.68 372.50 699.10
  C 385.38 698.57 394.35 698.76 403.66 696.72
  Q 420.51 693.04 434.40 684.88
  C 443.73 679.40 454.09 669.78 462.00 663.00
  C 467.35 658.42 472.46 654.32 479.48 653.65
  Q 490.47 652.60 498.32 650.51
  C 501.97 649.54 506.55 649.64 509.50 647.60
  A 0.26 0.25 74.4 0 1 509.90 647.83
  L 509.06 660.89
  A 0.48 0.48 0.0 0 1 508.60 661.34
  Q 501.65 661.64 489.06 667.32
  Q 484.68 669.30 484.16 669.86
  A 2.86 2.79 73.5 0 0 483.48 671.15
  Q 482.94 673.51 483.68 675.59
  A 1.43 1.40 -2.2 0 0 484.66 676.48
  Q 490.35 677.99 495.05 677.39
  C 500.17 676.73 505.78 676.57 515.57 675.92
  C 527.47 675.12 536.53 673.41 548.60 670.85
  C 561.99 668.02 572.04 667.00 583.88 667.84
  C 587.18 668.08 587.75 669.40 589.75 672.17
  C 592.84 676.46 596.58 683.34 594.74 688.74
  A 0.68 0.68 0.0 0 1 593.59 688.98
  C 589.21 684.18 584.32 684.73 577.39 685.03
  Q 570.47 685.34 560.52 686.84
  Q 534.29 690.78 516.73 693.34
  Q 515.40 693.53 514.80 693.59
  A 1.97 1.93 72.4 0 0 513.33 696.51
  Q 513.90 697.53 515.46 697.62
  Q 519.63 697.85 524.23 697.20
  Q 543.52 694.47 564.74 691.48
  Q 571.25 690.56 578.81 689.78
  C 583.68 689.28 587.57 689.16 591.17 692.81
  A 1.75 1.75 0.0 0 1 591.67 694.13
  C 591.35 699.61 593.60 705.64 595.79 710.48
  A 0.43 0.43 0.0 0 1 595.08 710.95
  L 592.84 708.54
  A 4.48 4.48 0.0 0 0 589.76 707.12
  C 581.89 706.81 573.56 707.21 565.49 708.45
  Q 544.76 711.65 512.32 714.58
  Q 510.91 714.70 509.59 715.20
  A 1.15 1.15 0.0 0 0 509.62 717.37
  C 514.89 719.16 520.37 718.91 527.75 718.25
  C 543.91 716.81 561.89 713.87 579.63 712.12
  Q 586.98 711.40 587.92 711.44
  Q 591.87 711.63 595.73 714.59
  A 3.28 3.27 14.8 0 1 596.97 716.71
  L 598.94 730.34
  A 0.32 0.31 -78.6 0 1 598.47 730.66
  Q 593.98 727.98 586.73 727.59
  Q 578.38 727.14 570.25 727.61
  C 557.55 728.34 544.65 730.63 531.44 731.45
  Q 515.78 732.43 514.62 732.35
  A 0.67 0.67 0.0 0 0 513.91 733.12
  L 514.13 734.69
  A 1.01 1.01 0.0 0 0 515.00 735.55
  C 526.97 737.19 539.79 736.11 552.03 734.31
  Q 567.11 732.10 584.00 732.62
  Q 590.10 732.81 595.59 735.12
  A 3.67 3.54 54.4 0 0 597.12 735.40
  L 598.16 735.35
  A 0.74 0.73 -89.3 0 1 598.92 736.13
  C 598.48 743.81 598.11 749.80 593.31 755.80
  Q 589.68 760.34 583.94 767.88
  A 0.19 0.19 0.0 0 1 583.60 767.77
  L 583.17 757.25
  A 0.30 0.30 0.0 0 1 583.43 756.94
  Q 585.35 756.66 587.33 757.21
  C 588.92 757.66 590.48 756.77 591.82 755.86
  Q 593.63 754.62 592.66 752.21
  A 1.45 1.45 0.0 0 0 591.33 751.30
  Q 579.07 751.21 571.01 752.03
  C 565.73 752.56 560.00 752.15 554.04 752.62
  Q 535.01 754.13 522.76 755.06
  C 517.73 755.44 512.45 756.73 506.57 756.57
  A 6.69 6.42 52.2 0 1 505.01 756.34
  Q 499.01 754.73 491.49 753.78
  Q 484.21 752.86 466.78 751.87
  C 458.81 751.42 451.42 751.17 445.93 751.28
  Q 442.28 751.34 428.08 750.49
  Q 421.56 750.09 405.74 750.01
  Q 388.93 749.92 377.01 751.91
  C 363.44 754.17 358.96 754.24 345.48 755.54
  Q 338.43 756.22 329.97 756.28
  Q 303.80 756.46 299.51 756.25
  Q 295.75 756.07 283.98 754.67
  Q 276.69 753.80 268.72 751.55
  Q 267.10 751.09 255.58 748.50
  Q 248.58 746.93 242.52 745.28
  Q 224.48 740.35 223.32 740.14
  Q 218.49 739.27 213.38 736.64
  C 207.81 733.78 201.81 730.48 195.81 727.58
  Q 185.35 722.52 176.11 712.60
  Q 155.38 690.34 148.04 662.32
  Q 144.49 648.73 142.21 637.52
  Q 138.97 621.53 136.26 598.75
  Q 133.84 578.34 132.18 558.86
  Q 131.25 547.99 130.85 527.06
  C 130.66 517.64 130.07 510.96 129.83 502.82
  Q 129.66 496.74 128.37 486.21
  C 126.77 473.10 126.03 458.74 126.76 446.00
  Q 127.55 432.21 127.59 426.52
  Q 127.70 411.22 129.96 394.39
  Q 130.39 391.20 133.60 377.67
  Q 134.24 374.99 135.88 374.19
  C 147.07 368.74 159.61 365.14 171.90 362.50
  C 194.61 357.62 216.24 351.08 237.95 347.07
  A 0.28 0.27 -83.9 0 1 238.25 347.45
  Q 236.70 351.04 235.25 355.76
  Q 231.69 367.33 225.23 383.77
  Q 218.62 400.60 207.82 427.05
  Q 200.74 444.39 195.41 462.65
  A 0.17 0.17 0.0 0 1 195.08 462.61
  Z"
/>
<path fill="#89c52e" d="
  M 388.86 500.17
  C 388.78 503.52 387.88 507.72 386.73 514.35
  Q 385.61 520.84 384.18 526.32
  Q 379.35 544.74 374.82 558.36
  Q 369.38 574.71 359.42 592.22
  Q 349.84 609.04 336.34 623.10
  C 329.83 629.87 322.31 638.47 313.88 646.65
  Q 297.81 662.22 280.67 675.93
  Q 270.90 683.74 261.05 689.29
  C 259.29 690.27 257.26 689.60 255.30 689.03
  Q 243.40 685.55 230.84 680.54
  C 220.91 676.57 213.56 671.65 206.33 664.92
  A 2.90 2.86 18.4 0 1 205.42 663.13
  C 204.96 659.04 204.52 653.63 203.72 648.31
  Q 201.38 632.69 201.05 625.74
  C 200.62 616.76 199.97 606.76 199.86 598.75
  Q 199.46 569.51 198.16 543.08
  Q 197.17 522.98 196.43 494.00
  Q 196.33 490.17 195.88 486.15
  A 0.76 0.75 -13.7 0 1 196.36 485.37
  Q 199.22 484.29 201.50 481.98
  Q 215.87 467.46 230.00 453.76
  Q 233.74 450.14 258.53 427.59
  C 269.48 417.63 281.56 407.98 291.16 399.04
  A 0.34 0.34 0.0 0 1 291.72 399.23
  Q 295.49 421.23 295.52 443.33
  C 295.53 445.54 296.02 448.14 296.02 450.00
  Q 296.04 484.56 295.99 494.25
  C 295.98 496.03 295.60 497.89 295.61 499.55
  Q 295.66 509.68 295.45 525.26
  Q 295.44 525.62 296.23 530.76
  Q 296.77 534.25 300.49 533.48
  Q 302.99 532.96 305.31 529.83
  Q 312.56 520.06 316.45 512.96
  C 320.61 505.39 324.51 498.72 327.62 491.93
  Q 344.74 454.52 357.42 416.67
  A 0.11 0.11 0.0 0 1 357.62 416.67
  C 360.92 425.49 362.79 429.64 364.60 436.97
  Q 368.69 453.47 370.27 467.26
  Q 372.52 486.96 375.57 519.12
  Q 375.76 521.06 377.61 521.65
  Q 380.12 522.47 382.04 519.50
  C 386.06 513.24 386.76 507.18 388.71 500.15
  A 0.08 0.08 0.0 0 1 388.86 500.17
  Z"
/>
<path fill="#89c52e" d="
  M 520.92 582.36
  Q 521.94 582.37 522.96 582.23
  Q 539.88 579.81 554.11 567.15
  Q 561.61 560.47 563.56 552.53
  Q 564.87 547.22 563.62 536.03
  Q 561.02 512.63 555.32 486.74
  Q 552.10 472.11 547.36 458.83
  Q 541.53 442.47 537.52 431.47
  Q 536.25 428.00 534.36 424.56
  A 0.26 0.26 0.0 0 1 534.61 424.18
  Q 552.50 425.66 565.56 437.72
  Q 576.09 447.44 582.54 459.43
  C 585.53 464.98 586.04 471.41 586.16 477.61
  Q 586.36 488.05 587.45 497.25
  Q 590.31 521.54 590.92 526.90
  Q 592.27 538.71 592.28 551.67
  Q 592.31 572.75 591.92 576.50
  Q 591.48 580.78 591.43 582.24
  Q 591.20 589.30 589.32 603.26
  C 588.69 607.89 588.48 614.07 587.73 619.90
  Q 585.50 637.33 585.36 640.50
  C 585.17 644.75 585.23 647.05 584.84 650.83
  Q 584.21 656.86 584.57 662.42
  A 0.51 0.51 0.0 0 1 583.97 662.95
  Q 577.16 661.73 563.76 663.23
  Q 551.53 664.60 536.98 667.93
  Q 530.00 669.52 514.74 670.76
  A 0.57 0.56 87.2 0 1 514.13 670.20
  Q 514.07 666.92 515.19 651.26
  Q 517.41 620.43 518.98 610.56
  C 520.03 603.94 519.85 597.22 520.48 590.26
  Q 520.60 588.99 520.42 582.88
  A 0.50 0.50 0.0 0 1 520.92 582.36
  Z"
/>
<path fill="#89c52e" d="
  M 352.35 612.46
  C 365.84 595.78 375.48 575.65 382.04 555.09
  Q 387.23 538.85 391.18 522.23
  Q 393.28 513.36 393.97 504.96
  A 3.55 3.54 73.3 0 1 395.30 502.48
  L 429.45 475.51
  A 0.21 0.21 0.0 0 1 429.76 475.57
  Q 439.93 493.15 445.89 503.87
  Q 449.45 510.27 461.77 530.30
  A 0.59 0.58 54.4 0 1 461.65 531.05
  Q 449.17 541.67 447.00 543.25
  Q 438.64 549.31 433.87 553.28
  C 424.24 561.28 416.03 566.13 404.24 574.24
  Q 390.07 584.00 377.20 594.18
  Q 364.64 604.12 352.52 612.65
  A 0.13 0.13 0.0 0 1 352.35 612.46
  Z"
/>
<path fill="#89c52e" d="
  M 607.24 534.95
  Q 601.32 539.08 597.62 543.70
  A 0.08 0.08 0.0 0 1 597.48 543.65
  L 597.48 535.22
  A 0.44 0.43 89.3 0 1 597.90 534.78
  L 607.05 534.40
  A 0.30 0.30 0.0 0 1 607.24 534.95
  Z"
/>
<path fill="#89c52e" d="
  M 328.33 697.19
  A 0.15 0.14 15.9 0 1 328.20 696.96
  Q 332.39 691.32 335.75 685.25
  Q 340.28 677.06 361.49 640.08
  C 370.18 624.93 380.20 608.44 388.09 593.62
  Q 389.16 591.61 393.54 588.53
  Q 417.25 571.86 422.39 568.63
  Q 427.77 565.26 433.03 563.26
  Q 453.10 555.60 474.85 552.86
  A 1.21 1.19 -21.5 0 1 475.95 553.33
  Q 484.33 564.61 494.33 573.92
  Q 502.12 581.17 512.50 582.42
  Q 513.50 582.54 514.38 582.42
  A 0.75 0.74 88.1 0 1 515.22 583.21
  C 514.64 591.82 514.56 597.36 513.67 604.91
  C 512.19 617.45 511.37 627.61 510.16 642.87
  A 0.71 0.71 0.0 0 1 509.52 643.52
  Q 500.38 644.39 491.00 646.73
  A 26.56 26.50 -52.7 0 1 485.40 647.49
  C 483.41 647.54 479.59 647.56 475.88 647.82
  Q 473.44 647.98 471.08 647.67
  C 466.23 647.04 459.05 648.10 453.97 648.25
  Q 443.94 648.52 432.29 649.76
  Q 432.22 649.77 428.95 650.75
  A 1.51 1.49 7.7 0 0 428.11 651.38
  Q 421.04 662.37 419.81 664.05
  Q 404.53 684.93 400.14 690.92
  C 398.54 693.12 396.11 693.00 393.53 693.09
  C 372.96 693.84 349.92 694.96 328.33 697.19
  Z"
/>
<path fill="#89c52e" d="
  M 596.92 590.48
  Q 598.80 587.17 597.45 583.57
  L 597.69 572.00
  A 0.23 0.23 0.0 0 1 598.03 571.81
  L 625.43 586.24
  A 0.25 0.24 -43.1 0 1 625.41 586.68
  C 613.83 591.96 606.06 595.68 596.15 598.98
  A 0.37 0.37 0.0 0 1 595.67 598.57
  L 596.92 590.48
  Z"
/>
<path fill="#f7da2b" d="
  M 596.92 590.48
  L 597.45 583.57
  Q 598.80 587.17 596.92 590.48
  Z"
/>
<path fill="#89c52e" d="
  M 594.65 609.73
  C 595.07 609.96 595.24 610.40 595.86 610.66
  Q 609.29 616.21 629.47 625.06
  A 0.43 0.43 0.0 0 1 629.38 625.87
  L 592.32 633.02
  A 0.58 0.58 0.0 0 1 591.64 632.35
  Q 593.36 622.61 594.34 611.59
  C 594.40 610.92 594.22 610.67 594.14 610.07
  A 0.34 0.34 0.0 0 1 594.65 609.73
  Z"
/>
<path fill="#89c52e" d="
  M 615.53 653.76
  A 0.29 0.28 51.9 0 1 615.47 654.27
  Q 611.15 655.82 606.53 656.33
  Q 598.27 657.25 590.20 657.21
  A 0.24 0.24 0.0 0 1 589.96 656.95
  L 590.83 643.33
  A 0.34 0.34 0.0 0 1 591.29 643.04
  Q 606.53 649.16 607.60 649.65
  Q 613.05 652.16 615.53 653.76
  Z"
/>
<path fill="#89c52e" d="
  M 706.92 915.06
  Q 702.27 915.11 700.75 914.73
  A 5.28 4.81 -35.6 0 0 699.56 914.59
  Q 689.19 914.72 675.27 913.24
  Q 668.13 912.47 662.87 910.60
  A 1.58 1.55 -41.3 0 0 661.97 910.55
  Q 660.97 910.80 660.49 911.28
  A 1.87 1.73 45.0 0 0 660.59 913.82
  Q 665.18 918.41 669.32 922.97
  C 671.92 925.83 673.15 928.61 674.77 931.91
  A 0.52 0.52 0.0 0 1 674.37 932.65
  Q 667.92 933.54 656.97 934.42
  Q 652.79 934.75 649.59 933.70
  Q 638.54 930.07 625.26 924.74
  Q 621.37 923.18 617.94 923.22
  A 0.94 0.93 11.3 0 0 617.10 923.77
  Q 615.92 926.35 615.75 928.02
  Q 614.54 939.71 611.39 950.11
  A 0.40 0.40 0.0 0 1 610.75 950.30
  Q 608.50 948.40 606.16 947.07
  Q 584.43 934.77 565.20 921.32
  Q 554.35 913.73 546.32 905.40
  Q 540.50 899.37 534.27 889.27
  Q 523.10 871.18 514.58 854.96
  C 511.05 848.25 508.53 840.42 505.93 833.03
  Q 501.11 819.36 498.38 810.56
  C 495.93 802.64 499.38 797.45 504.30 791.82
  C 506.53 789.27 506.67 787.47 506.66 783.76
  Q 506.65 771.94 506.39 762.01
  A 0.45 0.45 0.0 0 1 506.87 761.55
  C 513.88 761.98 522.73 760.18 527.08 759.86
  Q 547.89 758.34 557.47 757.64
  C 561.14 757.38 567.46 757.69 572.44 757.11
  Q 575.28 756.78 576.83 757.06
  A 0.71 0.70 3.2 0 1 577.41 757.70
  Q 577.67 760.96 578.74 771.30
  Q 579.48 778.40 581.77 784.55
  Q 585.25 793.92 589.23 800.54
  Q 590.71 803.01 597.97 809.34
  C 604.74 815.24 614.95 822.51 623.63 828.28
  Q 657.46 850.79 689.13 872.75
  C 698.36 879.15 707.42 886.38 714.61 894.14
  A 0.48 0.48 0.0 0 1 714.29 894.95
  Q 703.73 895.47 693.31 894.26
  C 691.45 894.04 690.29 892.60 688.19 892.23
  A 0.95 0.95 0.0 0 0 687.17 893.60
  C 689.49 898.14 694.19 900.98 700.39 905.91
  Q 702.95 907.94 707.26 914.43
  A 0.41 0.41 0.0 0 1 706.92 915.06
  Z"
/>
<path fill="#89c52e" d="
  M 702.06 900.22
  L 701.91 900.96
  C 700.98 900.74 701.47 899.63 702.06 900.22
  Z"
/>
<path fill="#89c52e" d="
  M 674.00 918.55
  Q 674.16 919.23 673.98 920.10
  Q 672.87 919.74 672.45 918.72
  A 0.40 0.39 79.2 0 1 672.82 918.17
  Q 673.35 918.18 674.00 918.55
  Z"
/>
</svg>
