<?xml version="1.0" encoding="UTF-8" standalone="no"?>
<!DOCTYPE svg PUBLIC "-//W3C//DTD SVG 1.1//EN" "http://www.w3.org/Graphics/SVG/1.1/DTD/svg11.dtd">
<svg xmlns="http://www.w3.org/2000/svg" version="1.1" viewBox="0.00 0.00 1000.00 1000.00">
<g stroke-width="2.00" fill="none" stroke-linecap="butt">
<path stroke="#400f11" vector-effect="non-scaling-stroke" d="
  M 173.31 691.04
  Q 174.71 690.92 174.65 689.90
  A 0.51 0.51 0.0 0 0 173.77 689.57
  Q 173.11 690.23 173.14 690.48"
/>
<path stroke="#82827f" vector-effect="non-scaling-stroke" d="
  M 552.28 85.77
  C 550.38 88.20 545.47 94.34 548.84 97.17
  Q 557.43 104.38 569.08 109.44
  Q 587.22 117.32 603.08 124.19
  Q 617.40 130.39 636.75 134.81
  C 643.22 136.29 654.54 137.89 663.06 140.29
  C 673.86 143.33 685.21 148.43 693.89 151.59
  Q 703.34 155.03 715.38 157.87
  Q 732.61 161.93 743.66 163.53
  Q 759.38 165.80 769.25 166.03
  C 776.59 166.20 782.67 166.22 784.35 157.57
  Q 787.05 143.76 787.66 135.02
  Q 789.84 103.88 774.36 77.43
  Q 765.51 62.32 755.18 53.60
  Q 735.69 37.18 712.09 29.35
  Q 692.23 22.77 670.95 22.77
  C 643.67 22.77 616.90 29.55 594.67 44.96
  Q 580.05 55.09 568.39 67.39
  Q 558.47 77.86 552.28 85.77"
/>
<path stroke="#416625" vector-effect="non-scaling-stroke" d="
  M 540.36 88.87
  Q 536.13 88.42 518.75 87.55
  Q 502.16 86.72 485.39 89.05
  C 477.35 90.17 469.03 93.85 461.51 96.26
  Q 453.61 98.79 445.41 100.96
  C 431.66 104.59 419.54 108.51 407.07 114.49
  A 0.46 0.46 0.0 0 0 406.99 115.28
  Q 413.28 120.04 417.83 124.92
  C 421.24 128.57 421.04 132.36 419.73 137.24
  Q 418.03 143.57 412.61 154.38
  Q 405.73 168.09 395.59 182.61
  C 381.47 202.81 365.30 222.29 347.36 239.87
  Q 331.81 255.10 330.32 256.32
  C 324.12 261.43 317.00 267.59 309.49 272.23
  C 297.16 279.85 284.54 286.19 270.45 292.94
  C 263.71 296.16 255.65 298.79 248.19 297.26
  Q 245.19 296.64 239.64 293.06
  Q 227.25 285.04 216.83 274.72
  Q 213.39 271.30 210.67 267.22
  A 0.26 0.25 -40.6 0 0 210.27 267.19
  Q 188.80 289.88 170.49 315.97
  C 163.85 325.42 158.05 335.50 151.82 344.24
  C 145.96 352.48 142.39 360.06 141.50 368.75
  Q 140.21 381.34 140.21 396.50
  C 140.20 407.88 140.60 414.00 139.22 422.45
  C 138.55 426.51 137.07 434.73 137.12 439.95
  Q 137.23 453.21 140.32 461.75
  Q 147.64 481.94 157.97 503.48
  C 164.77 517.67 174.40 533.44 181.70 545.89
  C 188.38 557.28 196.40 572.87 201.32 581.65
  C 205.45 589.01 209.57 597.93 213.85 605.14
  Q 222.82 620.26 235.44 633.90
  C 239.00 637.74 243.03 640.59 247.31 643.44
  Q 262.14 653.29 278.39 660.33
  C 302.50 670.77 327.12 681.61 353.24 685.77
  Q 381.51 690.27 410.00 692.50
  Q 427.74 693.89 469.75 695.50
  Q 478.78 695.85 516.70 694.94
  C 531.52 694.58 548.07 694.24 562.54 692.54
  Q 603.83 687.69 647.76 678.72
  Q 658.81 676.47 668.56 672.56
  Q 681.93 667.21 700.53 658.25
  C 707.65 654.83 716.90 650.79 724.21 646.85
  Q 758.34 628.45 788.82 602.32
  Q 793.38 598.41 796.82 593.58
  C 812.32 571.83 826.28 549.06 839.35 526.81
  C 844.40 518.19 848.36 510.06 852.60 501.61
  Q 854.98 496.88 871.34 461.90
  C 878.29 447.03 882.22 436.86 883.79 423.50
  Q 885.90 405.52 888.32 385.02
  Q 889.07 378.69 890.07 375.85
  Q 898.49 351.97 901.70 340.72
  Q 906.15 325.10 911.71 299.00
  Q 913.27 291.66 912.90 284.76
  Q 912.15 271.07 911.56 247.73
  C 911.31 237.78 908.85 226.13 901.27 218.65
  Q 895.81 213.27 894.33 212.30
  Q 886.70 207.31 879.73 204.24
  Q 859.36 195.28 848.66 190.36
  C 845.56 188.93 839.65 186.11 835.40 183.12
  Q 831.83 180.62 827.94 178.32
  Q 809.82 167.65 793.46 159.41
  A 0.44 0.44 0.0 0 0 792.83 159.71
  C 790.45 171.59 778.75 174.83 768.24 174.22
  Q 727.87 171.88 688.98 158.41
  Q 685.95 157.36 674.69 152.85
  C 666.07 149.40 658.54 147.03 649.69 145.55
  C 635.87 143.25 622.29 140.27 609.73 135.52
  Q 598.15 131.15 566.03 116.81
  C 559.38 113.85 551.82 109.63 546.19 105.40
  C 540.30 100.98 536.68 97.14 540.77 89.66
  A 0.54 0.53 -72.7 0 0 540.36 88.87"
/>
<path stroke="#82827f" vector-effect="non-scaling-stroke" d="
  M 411.38 130.91
  C 398.03 116.81 381.41 107.93 362.26 103.41
  Q 350.42 100.62 330.09 101.32
  Q 307.02 102.11 297.26 103.54
  Q 264.33 108.33 238.10 129.57
  C 209.87 152.44 190.07 187.61 199.93 224.78
  C 206.39 249.11 219.89 270.54 241.22 284.52
  C 244.87 286.92 250.21 291.31 255.06 290.32
  Q 262.24 288.86 269.21 285.20
  Q 286.84 275.93 294.17 271.90
  Q 311.05 262.61 326.45 248.69
  Q 362.15 216.45 388.87 177.63
  Q 399.03 162.86 406.50 147.96
  C 408.90 143.16 410.50 138.24 411.79 132.38
  A 1.63 1.61 29.8 0 0 411.38 130.91"
/>
<path stroke="#662120" vector-effect="non-scaling-stroke" d="
  M 820.48 683.31
  Q 820.07 682.23 819.36 681.71"
/>
<path stroke="#7f711b" vector-effect="non-scaling-stroke" d="
  M 819.36 681.71
  Q 814.01 673.16 808.20 664.83
  C 806.69 662.66 806.40 660.78 808.17 658.95
  A 2.93 2.92 -79.6 0 1 809.04 658.35
  Q 811.30 657.33 815.63 658.88
  Q 831.09 664.39 841.80 668.93
  C 862.83 677.86 882.62 692.48 901.97 703.21
  Q 915.93 710.96 935.90 720.96
  A 0.16 0.16 0.0 0 0 936.08 720.70
  C 916.17 701.86 894.33 680.49 876.70 663.50
  Q 867.70 654.82 854.47 642.86
  C 842.85 632.37 824.73 614.82 809.28 602.19
  Q 806.61 600.01 804.33 598.59
  A 0.83 0.83 0.0 0 0 803.24 598.78
  C 800.13 602.77 796.32 607.02 792.07 610.57
  Q 767.60 631.00 743.24 645.94
  C 726.87 655.98 705.78 665.49 687.54 674.02
  Q 673.91 680.40 665.75 683.00
  Q 653.77 686.83 635.94 690.14
  Q 613.04 694.39 577.89 699.39
  Q 557.60 702.27 542.99 702.90
  Q 540.24 703.02 506.75 704.03
  C 471.37 705.09 436.33 703.42 403.25 700.69
  Q 377.96 698.61 349.05 693.88
  Q 338.17 692.10 327.92 689.02
  Q 315.61 685.32 307.37 681.89
  Q 280.09 670.51 275.40 668.59
  Q 260.95 662.65 240.41 648.94
  Q 232.68 643.78 228.91 639.66
  Q 217.87 627.61 208.87 613.26
  A 1.19 1.19 0.0 0 0 207.35 612.83
  Q 199.91 616.40 192.63 621.38
  Q 177.57 631.67 165.91 641.17
  Q 142.89 659.93 121.10 676.58
  Q 94.96 696.57 67.91 713.48
  A 0.37 0.37 0.0 0 0 68.10 714.16
  Q 68.78 714.17 70.01 713.77
  Q 72.20 713.06 122.01 697.75
  Q 135.40 693.63 152.12 687.61
  Q 158.88 685.18 183.29 678.25
  C 184.82 677.81 189.93 677.02 191.50 678.68
  C 193.28 680.57 191.99 683.23 190.53 684.79
  Q 179.58 696.48 160.05 720.80
  Q 141.04 744.48 125.06 762.32
  Q 102.98 786.98 96.38 794.38
  Q 75.64 817.65 56.90 841.84
  A 0.56 0.56 0.0 0 0 57.57 842.69
  Q 69.26 837.32 75.76 834.02
  C 115.03 814.12 152.03 795.15 192.04 775.84
  Q 215.98 764.28 246.02 748.50
  Q 247.52 747.71 259.66 741.93
  C 263.57 740.06 268.02 741.16 266.86 746.47
  C 261.83 769.55 257.01 792.78 252.56 816.31
  C 246.46 848.49 241.08 884.96 237.65 910.50
  Q 234.82 931.60 233.94 952.48
  A 0.57 0.57 0.0 0 0 234.87 952.94
  Q 236.49 951.62 239.90 948.40
  Q 253.64 935.41 284.47 905.78
  C 297.55 893.20 314.03 876.49 328.09 863.16
  Q 337.52 854.21 359.29 832.71
  C 376.49 815.72 390.16 802.02 406.39 787.90
  Q 409.42 785.26 412.03 783.71
  C 414.93 781.98 417.53 785.01 418.71 787.56
  Q 431.68 815.50 454.12 869.31
  C 460.16 883.81 465.88 896.98 471.70 911.73
  Q 483.21 940.87 498.52 976.58
  A 0.33 0.33 0.0 0 0 499.11 976.61
  C 505.03 965.94 509.62 954.47 515.01 941.69
  Q 518.89 932.48 526.23 915.46
  C 543.33 875.85 561.38 830.60 577.43 792.40
  C 578.48 789.91 580.08 787.12 583.25 788.05
  Q 584.88 788.53 586.41 790.09
  Q 608.01 812.13 626.82 832.93
  Q 651.57 860.31 712.16 923.34
  Q 726.03 937.76 739.36 950.90
  A 0.39 0.39 0.0 0 0 740.02 950.63
  C 740.36 912.27 735.42 873.62 732.68 836.07
  Q 730.27 803.18 725.01 748.75
  C 724.75 746.07 723.46 737.17 728.05 737.50
  C 731.25 737.74 734.24 739.77 738.74 742.27
  Q 757.06 752.49 795.20 775.31
  Q 803.65 780.37 841.96 804.07
  Q 891.69 834.84 929.51 858.26
  Q 930.11 858.62 930.52 858.65
  A 0.33 0.32 -13.8 0 0 930.82 858.16
  C 917.44 835.57 906.08 816.09 896.17 799.29
  Q 884.42 779.38 869.05 755.23
  C 856.95 736.21 842.99 718.34 830.84 699.42
  Q 825.67 691.35 820.48 683.31"
/>
<path stroke="#dc8937" vector-effect="non-scaling-stroke" d="
  M 819.36 681.71
  Q 819.11 682.93 820.48 683.31"
/>
<path stroke="#82827f" vector-effect="non-scaling-stroke" d="
  M 648.67 85.46
  Q 648.81 85.59 649.03 85.96
  Q 652.81 92.19 652.86 92.27
  C 656.60 98.84 661.56 103.02 668.83 105.55
  Q 677.50 108.58 684.87 106.63
  Q 686.34 106.24 690.56 104.47
  C 697.30 101.65 702.94 105.90 707.06 110.49
  Q 715.88 120.30 718.51 122.95
  Q 721.15 125.61 725.22 126.89
  C 730.16 128.44 736.19 125.77 738.37 121.30
  C 744.53 108.66 732.11 98.50 723.35 91.55
  C 719.88 88.79 717.76 86.05 717.11 81.93
  C 715.94 74.55 715.74 70.44 712.30 65.59
  C 701.40 50.18 683.80 45.48 666.43 52.86
  C 661.72 54.86 658.23 60.57 652.74 60.53
  Q 642.20 60.44 632.01 61.30
  C 622.73 62.08 609.50 63.64 606.12 73.87
  C 604.76 77.97 606.11 83.07 610.35 84.39
  Q 614.67 85.73 616.77 85.50
  C 627.96 84.28 636.01 83.22 645.21 83.93
  A 5.73 5.71 -21.0 0 1 648.67 85.46"
/>
<path stroke="#416625" vector-effect="non-scaling-stroke" d="
  M 225.72 428.00
  A 0.73 0.73 0.0 0 1 225.56 426.80
  Q 231.90 421.23 233.33 419.60
  Q 235.02 417.68 234.37 416.07
  C 232.95 412.52 228.33 413.77 225.86 415.38
  Q 216.83 421.28 211.58 430.26
  Q 208.70 435.19 211.37 439.60
  C 213.41 442.98 216.64 440.77 218.17 438.18
  Q 219.28 436.29 220.13 434.35
  A 0.59 0.59 0.0 0 1 220.96 434.07
  Q 243.18 446.45 264.55 455.55
  A 3.80 3.76 77.3 0 1 265.55 456.19
  L 268.14 458.52
  A 4.01 3.52 78.5 0 0 268.76 458.99
  C 281.68 466.87 295.87 472.91 309.29 479.32
  C 319.23 484.07 328.67 487.58 338.37 492.62
  Q 355.02 501.26 371.69 511.05
  Q 385.78 519.33 409.89 529.81
  Q 419.40 533.95 435.11 539.03
  Q 452.54 544.66 460.78 546.71
  Q 477.49 550.87 501.10 554.33
  Q 529.19 558.45 557.67 562.56
  Q 569.55 564.28 576.34 564.61
  Q 588.08 565.18 595.13 565.81
  C 611.80 567.30 626.27 565.88 641.00 560.45
  C 658.61 553.95 673.76 546.49 687.27 533.77
  Q 705.98 516.16 723.68 492.21
  Q 726.45 488.47 751.41 455.30
  Q 764.05 438.51 771.37 427.21
  Q 787.87 401.76 803.54 373.29
  Q 805.78 369.22 808.97 362.71
  Q 809.58 361.48 810.05 359.05
  A 2.17 2.10 72.9 0 1 810.58 358.01
  Q 812.25 356.23 812.86 355.84
  Q 823.38 349.04 830.07 343.08
  Q 834.24 339.36 842.68 330.33
  C 850.86 321.57 862.44 305.97 867.78 299.67
  Q 869.75 297.35 874.26 291.88
  Q 876.30 289.41 886.93 274.66
  Q 890.89 269.17 891.80 267.81
  C 896.58 260.73 887.24 257.58 883.44 263.46
  Q 875.85 275.22 868.37 284.37
  Q 864.86 288.66 840.42 319.67
  C 824.74 339.57 803.72 352.58 780.63 363.12
  Q 764.68 370.41 713.85 391.35
  C 704.81 395.07 697.60 397.27 687.06 400.73
  Q 681.51 402.56 671.60 406.60
  Q 647.48 416.45 621.87 423.89
  Q 597.77 430.89 573.00 432.04
  Q 556.10 432.83 543.75 434.48
  C 506.38 439.47 459.25 448.20 427.61 452.84
  Q 418.79 454.14 413.25 454.29
  Q 403.69 454.55 392.07 453.95
  C 370.96 452.86 351.24 453.28 328.75 453.44
  Q 311.29 453.57 299.13 451.83
  Q 279.10 448.97 270.19 446.74
  Q 261.09 444.46 252.12 440.36
  Q 237.52 433.69 225.72 428.00"
/>
<path stroke="#416625" vector-effect="non-scaling-stroke" d="
  M 591.43 623.22
  C 592.57 626.73 596.55 626.55 599.50 626.31
  Q 622.53 624.45 647.00 619.04
  Q 663.46 615.40 677.71 607.47
  Q 688.67 601.37 700.47 592.53
  C 718.96 578.68 735.80 564.85 750.42 548.68
  C 752.31 546.59 755.11 542.80 753.62 540.53
  A 2.59 2.59 0.0 0 0 750.82 539.44
  Q 747.68 540.23 745.46 542.45
  Q 725.32 562.58 704.73 577.96
  C 691.68 587.71 678.90 597.46 664.47 603.75
  Q 657.08 606.97 645.59 609.70
  Q 631.80 612.96 626.24 613.96
  Q 619.58 615.14 597.48 618.19
  Q 594.59 618.59 592.42 620.16
  A 2.73 2.73 0.0 0 0 591.43 623.22"
/>
<path stroke="#82827f" vector-effect="non-scaling-stroke" d="
  M 299.40 208.12
  C 315.04 205.28 331.93 194.13 328.33 176.13
  C 327.83 173.62 327.38 170.13 328.35 168.59
  Q 332.37 162.24 339.53 158.78
  Q 349.62 153.90 353.04 152.05
  C 357.85 149.46 362.35 145.62 358.44 140.02
  Q 352.82 131.96 342.71 133.29
  C 332.01 134.69 323.46 141.86 316.36 145.59
  Q 313.36 147.16 311.50 147.04
  C 299.81 146.25 289.94 145.08 280.20 151.16
  C 271.12 156.83 263.57 167.46 262.61 178.10
  C 261.99 185.05 265.56 189.63 269.31 195.26
  C 270.89 197.62 270.91 199.65 270.03 202.28
  C 267.08 211.10 263.59 220.04 263.82 229.55
  Q 263.98 236.50 269.16 241.48
  C 273.29 245.46 278.61 246.34 283.22 243.14
  C 285.77 241.36 288.63 235.84 289.25 233.21
  Q 291.44 223.95 292.80 219.29
  C 294.07 214.91 295.81 208.77 299.40 208.12"
/>
<path stroke="#110705" vector-effect="non-scaling-stroke" d="
  M 413.90 521.19
  L 421.35 524.66"
/>
<path stroke="#662120" vector-effect="non-scaling-stroke" d="
  M 421.35 524.66
  Q 449.13 535.48 474.36 540.65
  Q 483.74 542.57 509.76 547.05
  Q 522.01 549.15 530.77 550.12
  Q 543.44 551.51 551.84 552.92
  C 568.17 555.65 579.74 556.34 599.75 557.68
  Q 609.23 558.31 615.72 557.61
  C 626.06 556.48 638.84 552.95 649.40 547.95
  C 658.85 543.47 664.47 540.76 670.38 536.38
  Q 679.84 529.37 689.05 519.98"
/>
<path stroke="#110705" vector-effect="non-scaling-stroke" d="
  M 689.05 519.98
  L 693.72 514.61"
/>
<path stroke="#400f11" vector-effect="non-scaling-stroke" d="
  M 693.72 514.61
  Q 703.22 505.01 705.99 501.23
  Q 718.12 484.69 727.88 472.07
  C 734.67 463.27 741.78 452.97 749.26 443.75
  Q 751.50 440.99 756.44 433.71
  C 771.11 412.07 785.13 388.35 798.13 365.15
  Q 798.39 364.69 798.37 364.47
  A 0.29 0.29 0.0 0 0 797.94 364.23
  Q 789.72 368.72 777.93 373.90
  Q 762.05 380.88 728.84 394.54
  Q 708.44 402.92 693.43 407.94
  Q 684.60 410.89 677.22 413.96
  C 653.50 423.83 629.25 431.62 604.65 436.86
  Q 590.86 439.79 573.20 440.85
  C 556.66 441.85 545.20 442.58 534.33 444.37
  Q 495.80 450.73 458.49 456.95
  Q 446.35 458.97 430.60 461.14
  C 414.00 463.42 399.65 462.56 384.32 461.74
  C 370.56 461.00 353.00 461.42 339.56 461.69
  C 322.77 462.04 306.79 461.10 292.00 459.28
  Q 289.00 458.91 286.72 459.10
  A 0.24 0.24 0.0 0 0 286.65 459.57
  C 293.38 462.10 303.57 467.61 310.44 470.46
  Q 318.34 473.75 327.81 477.98
  Q 336.02 481.65 358.26 493.15
  Q 362.86 495.53 368.23 499.01
  Q 372.48 501.77 378.26 504.77
  Q 393.22 512.54 407.90 519.31
  Q 410.94 520.71 413.90 521.19"
/>
<path stroke="#480c11" vector-effect="non-scaling-stroke" d="
  M 693.72 514.61
  Q 692.26 512.25 689.86 509.88
  Q 682.02 502.14 676.88 498.61
  C 671.95 495.21 666.96 491.30 661.72 488.80
  Q 650.40 483.39 648.01 482.58
  Q 635.01 478.16 619.48 476.18
  Q 605.37 474.37 587.99 477.21
  C 574.65 479.40 562.51 481.98 549.82 482.09
  C 534.76 482.21 521.43 484.13 506.36 487.25
  C 492.52 490.11 480.47 492.44 469.14 496.15
  Q 456.46 500.31 441.83 506.08
  Q 425.92 512.36 413.90 521.19"
/>
<path stroke="#6e1e21" vector-effect="non-scaling-stroke" d="
  M 689.05 519.98
  C 683.71 515.39 678.56 510.30 673.23 506.29
  Q 661.57 497.50 650.61 492.55
  Q 638.57 487.11 619.73 484.33
  Q 605.90 482.29 593.07 484.59
  Q 585.91 485.87 566.00 489.02
  Q 561.14 489.80 549.84 489.99
  C 537.50 490.20 524.99 491.71 515.29 493.79
  Q 493.30 498.49 488.19 499.71
  C 475.28 502.77 465.15 506.44 454.29 510.11
  C 442.86 513.98 432.17 519.22 421.35 524.66"
/>
</g>
<path fill="#090904" d="
  M 404.02 800.01
  Q 403.50 800.26 403.26 800.66
  A 0.28 0.26 -42.1 0 0 403.24 800.86
  Q 403.32 801.11 403.58 801.12
  A 0.02 0.02 0.0 0 1 403.59 801.15
  Q 403.32 801.37 402.99 801.39
  A 0.24 0.24 0.0 0 0 402.82 801.46
  L 377.56 826.29
  A 0.43 0.43 0.0 0 1 377.05 826.35
  Q 377.02 826.33 376.83 826.21
  A 0.15 0.15 0.0 0 0 376.63 826.23
  L 372.05 831.14
  Q 371.41 831.20 371.03 832.07
  Q 370.47 832.24 370.26 832.67
  A 0.27 0.26 48.8 0 0 370.25 832.90
  Q 370.35 833.13 370.57 833.10
  A 0.04 0.04 0.0 0 1 370.61 833.16
  Q 370.54 833.31 370.25 833.54
  A 0.22 0.20 -25.0 0 1 369.90 833.43
  Q 369.89 833.31 369.66 833.37
  Q 369.42 833.44 369.43 833.49
  Q 369.59 834.57 368.83 834.43
  Q 368.33 834.34 368.37 834.67
  Q 368.40 834.91 368.39 834.96
  A 0.41 0.38 73.2 0 1 368.28 835.18
  Q 358.50 844.86 338.49 864.41
  Q 338.38 864.51 337.98 864.60
  A 0.34 0.25 9.2 0 0 337.82 864.68
  L 296.45 905.54
  A 1.69 1.68 -83.8 0 1 296.09 905.83
  Q 295.03 906.51 293.25 908.25
  Q 279.56 921.54 277.48 923.24
  Q 277.30 923.39 276.69 923.78
  A 0.28 0.10 -19.3 0 1 276.64 923.82
  L 255.70 944.31
  A 0.70 0.68 21.8 0 1 255.21 944.51
  Q 254.93 944.51 254.56 944.88
  Q 244.99 954.47 237.74 960.47
  Q 232.57 964.75 228.27 960.26
  Q 226.65 958.57 226.60 956.22
  Q 226.36 944.57 226.89 935.49
  A 0.95 0.95 0.0 0 1 227.31 934.76
  Q 227.46 934.66 227.49 934.64
  A 0.17 0.15 -19.3 0 0 227.56 934.51
  L 227.68 924.35
  A 0.70 0.70 0.0 0 1 228.26 923.67
  Q 228.36 923.66 228.60 923.64
  A 0.08 0.07 90.0 0 0 228.67 923.56
  L 228.90 915.50
  A 0.91 0.91 0.0 0 1 229.34 914.74
  Q 229.38 914.72 229.57 914.60
  A 0.23 0.23 0.0 0 0 229.67 914.43
  L 229.81 908.42
  A 0.93 0.93 0.0 0 1 230.28 907.63
  Q 230.39 907.56 230.50 907.51
  A 0.11 0.10 -14.9 0 0 230.56 907.42
  L 230.64 901.71
  A 1.14 1.12 71.7 0 1 231.07 900.84
  Q 231.33 900.63 231.34 900.62
  A 1.59 1.48 -31.0 0 0 231.52 899.99
  L 231.74 893.46
  A 0.63 0.63 0.0 0 1 232.12 892.90
  Q 232.78 892.61 232.69 892.03
  Q 232.09 887.94 233.41 885.43
  A 1.93 1.85 -35.6 0 0 233.62 884.32
  Q 233.20 880.62 234.36 878.52
  A 2.07 2.04 57.0 0 0 234.60 877.34
  Q 234.25 873.48 235.38 871.49
  A 1.07 1.07 0.0 0 0 235.51 871.02
  L 235.70 866.28
  A 0.57 0.57 0.0 0 1 236.08 865.76
  Q 236.74 865.54 236.64 864.78
  Q 236.15 860.67 237.31 858.50
  A 2.02 1.94 58.2 0 0 237.54 857.42
  Q 237.30 853.55 238.39 851.33
  A 1.95 1.92 -34.9 0 0 238.58 850.30
  Q 238.30 847.25 239.30 845.43
  A 1.16 1.16 0.0 0 0 239.37 844.52
  Q 239.26 844.20 240.33 838.48
  Q 250.97 781.77 254.09 768.88
  Q 254.17 768.56 254.29 768.45
  Q 254.55 768.20 254.53 768.01
  Q 254.27 765.06 255.37 763.56
  A 1.33 1.30 -31.7 0 0 255.61 762.59
  Q 255.30 760.54 256.36 759.73
  A 0.83 0.82 65.0 0 0 256.66 758.89
  Q 256.17 756.78 257.37 755.73
  A 0.84 0.84 0.0 0 0 257.65 754.95
  Q 257.42 753.58 257.73 752.70
  A 0.37 0.37 0.0 0 0 257.22 752.24
  Q 256.70 752.49 256.00 752.36
  A 0.59 0.59 0.0 0 0 255.30 752.97
  Q 255.31 753.07 255.35 753.30
  A 0.30 0.30 0.0 0 1 254.92 753.62
  L 254.39 753.34
  A 0.78 0.76 35.7 0 0 253.50 753.48
  L 251.64 755.34
  A 0.26 0.24 -56.0 0 1 251.37 755.40
  Q 251.26 755.36 251.11 755.34
  A 1.03 1.03 0.0 0 0 250.06 755.87
  Q 249.43 756.98 248.02 756.30
  A 0.47 0.46 -61.9 0 0 247.42 756.49
  Q 247.27 756.74 247.59 757.14
  A 0.21 0.21 0.0 0 1 247.36 757.47
  Q 247.04 757.36 247.01 757.29
  A 0.24 0.24 0.0 0 0 246.66 757.19
  Q 246.29 757.42 246.04 758.11
  A 0.52 0.52 0.0 0 1 245.34 758.41
  Q 244.53 758.05 244.23 758.80
  A 0.98 0.96 -75.5 0 1 243.23 759.40
  Q 243.21 759.39 243.18 759.39
  A 0.77 0.77 0.0 0 0 242.31 759.87
  Q 242.02 760.65 241.20 760.35
  A 0.56 0.56 0.0 0 0 240.46 760.74
  Q 240.28 761.48 239.37 761.37
  Q 238.75 761.29 238.35 761.90
  Q 237.97 762.49 237.17 762.37
  A 0.67 0.66 -75.2 0 0 236.44 762.80
  Q 236.20 763.45 235.51 763.40
  Q 234.61 763.33 234.59 763.57
  Q 234.59 763.59 234.31 764.07
  A 0.71 0.71 0.0 0 1 233.44 764.38
  Q 232.56 764.05 232.31 765.04
  A 0.60 0.60 0.0 0 1 231.45 765.42
  Q 230.66 765.01 230.36 765.90
  A 0.77 0.77 0.0 0 1 229.40 766.39
  Q 229.26 766.34 229.18 766.32
  A 0.79 0.79 0.0 0 0 228.25 766.88
  Q 228.24 766.93 228.22 767.01
  A 0.57 0.57 0.0 0 1 227.43 767.44
  Q 227.41 767.43 227.35 767.40
  A 0.74 0.74 0.0 0 0 226.24 767.89
  Q 226.06 768.76 225.37 768.39
  A 0.85 0.84 -59.8 0 0 224.26 768.69
  Q 224.25 768.71 224.16 768.97
  A 0.70 0.70 0.0 0 1 223.22 769.40
  Q 222.45 769.06 222.29 769.82
  A 0.78 0.77 14.4 0 1 221.31 770.39
  Q 221.21 770.37 221.15 770.35
  A 0.76 0.75 10.2 0 0 220.22 770.99
  Q 220.12 771.83 219.18 771.32
  A 0.56 0.55 17.1 0 0 218.36 771.75
  Q 218.27 772.78 217.23 772.32
  A 0.59 0.59 0.0 0 0 216.41 772.76
  Q 216.25 773.70 215.30 773.35
  A 0.66 0.66 0.0 0 0 214.48 773.70
  Q 214.16 774.43 213.52 774.37
  Q 212.75 774.29 212.55 774.73
  Q 212.37 775.11 210.88 775.60
  A 0.09 0.03 -16.8 0 1 210.85 775.62
  L 200.39 780.78
  A 0.26 0.25 -16.6 0 0 200.25 781.02
  Q 200.28 781.47 199.39 781.35
  A 0.98 0.97 -66.9 0 0 198.48 781.72
  Q 198.47 781.73 198.40 781.87
  A 0.99 0.99 0.0 0 1 197.26 782.37
  Q 196.35 782.12 196.26 783.12
  A 0.43 0.42 -74.3 0 1 195.65 783.47
  Q 194.39 782.86 194.19 784.20
  A 0.41 0.40 -71.0 0 1 193.59 784.50
  Q 192.41 783.83 192.17 785.10
  A 0.47 0.46 17.4 0 1 191.53 785.43
  Q 190.58 785.01 190.22 785.81
  A 0.99 0.99 0.0 0 1 189.22 786.39
  Q 189.16 786.38 189.08 786.37
  A 0.93 0.92 20.2 0 0 188.16 786.79
  Q 187.50 787.86 186.12 787.36
  A 0.49 0.48 -79.4 0 0 185.47 787.81
  Q 185.47 788.11 185.33 788.42
  Q 185.20 788.68 184.70 788.49
  Q 183.71 788.12 183.44 789.00
  A 0.57 0.57 0.0 0 1 182.77 789.38
  Q 181.85 789.18 181.47 789.89
  Q 181.12 790.55 180.45 790.39
  Q 179.79 790.24 179.68 790.68
  A 0.29 0.28 -6.9 0 1 179.53 790.87
  L 174.00 793.61
  A 2.03 0.25 -40.3 0 0 173.18 794.15
  Q 172.77 794.45 172.14 794.41
  A 0.66 0.64 -79.5 0 0 171.47 794.88
  Q 171.31 795.44 170.33 795.37
  Q 169.64 795.32 169.36 795.94
  Q 169.11 796.50 168.33 796.40
  A 0.94 0.93 -72.8 0 0 167.37 796.91
  Q 167.35 796.96 167.33 797.01
  A 0.73 0.73 0.0 0 1 166.43 797.40
  Q 165.56 797.10 165.33 797.87
  A 0.76 0.75 15.8 0 1 164.41 798.38
  Q 164.16 798.32 164.10 798.31
  A 0.92 0.91 10.0 0 0 163.19 798.94
  Q 162.94 799.76 161.96 799.30
  A 0.50 0.49 -72.1 0 0 161.27 799.66
  Q 161.07 800.68 160.25 800.39
  A 0.85 0.84 20.0 0 0 159.16 800.89
  Q 159.15 800.91 159.15 800.93
  A 0.80 0.79 -69.0 0 1 158.15 801.38
  Q 157.27 801.07 157.08 802.06
  A 0.48 0.48 0.0 0 1 156.44 802.42
  Q 155.36 802.01 155.02 803.06
  A 0.53 0.53 0.0 0 1 154.33 803.40
  Q 153.57 803.12 153.09 803.92
  A 0.93 0.93 0.0 0 1 152.30 804.39
  L 150.87 804.42
  A 0.38 0.38 0.0 0 0 150.51 804.91
  Q 150.57 805.11 150.27 805.45
  Q 150.13 805.60 149.73 805.47
  Q 148.70 805.12 148.44 806.01
  A 0.54 0.54 0.0 0 1 147.83 806.38
  Q 146.77 806.20 146.51 806.86
  A 0.07 0.05 -84.8 0 1 146.48 806.90
  L 141.61 809.37
  A 0.17 0.16 32.8 0 1 141.50 809.39
  Q 141.18 809.36 140.72 809.52
  Q 139.54 809.95 139.00 810.41
  Q 138.04 811.23 136.77 812.19
  A 1.00 0.96 -59.8 0 1 136.11 812.38
  Q 135.42 812.31 135.10 813.04
  A 0.63 0.62 20.2 0 1 134.35 813.38
  Q 133.50 813.12 133.15 814.08
  A 0.54 0.54 0.0 0 1 132.45 814.40
  Q 131.39 814.00 131.21 815.10
  A 0.45 0.45 0.0 0 1 130.59 815.44
  Q 129.48 814.95 129.29 816.07
  A 0.48 0.48 0.0 0 1 128.63 816.43
  Q 127.66 816.01 127.40 816.81
  A 0.80 0.80 0.0 0 1 126.59 817.36
  Q 126.55 817.36 126.44 817.35
  A 1.23 1.23 0.0 0 0 125.26 818.04
  Q 124.98 818.61 124.23 818.34
  A 0.57 0.57 0.0 0 0 123.50 818.69
  Q 123.17 819.62 122.18 819.36
  A 0.60 0.59 14.4 0 0 121.46 819.78
  Q 121.26 820.51 120.36 820.38
  Q 119.67 820.27 119.37 820.94
  Q 119.13 821.47 118.19 821.37
  Q 117.75 821.33 117.50 821.78
  Q 117.47 821.83 116.77 822.23
  Q 115.66 822.86 115.13 823.05
  Q 115.08 823.07 112.56 824.32
  Q 105.08 828.03 102.19 829.56
  Q 98.40 831.57 91.80 834.77
  Q 78.60 841.17 78.31 841.30
  Q 72.04 844.20 60.95 848.91
  C 58.53 849.94 53.42 852.17 50.95 851.16
  Q 48.27 850.05 47.02 847.26
  A 1.39 1.37 -49.0 0 1 46.96 846.27
  Q 47.56 844.31 48.73 842.23
  C 53.78 833.23 60.95 825.24 67.54 816.94
  C 75.13 807.38 82.78 798.82 90.62 789.61
  Q 94.13 785.49 101.10 778.35
  C 101.48 777.96 101.60 777.60 101.96 777.21
  Q 132.56 743.19 138.49 735.75
  Q 140.51 733.20 142.54 731.25
  A 2.74 2.69 -82.4 0 1 142.95 730.93
  Q 144.54 729.93 144.97 728.52
  Q 145.56 726.61 146.28 725.54
  Q 148.61 722.07 157.99 710.22
  Q 165.60 700.59 173.31 691.04
  Q 174.71 690.92 174.65 689.90
  A 0.51 0.51 0.0 0 0 173.77 689.57
  Q 173.11 690.23 173.14 690.48
  Q 161.82 693.53 156.22 695.44
  Q 124.44 706.29 77.20 719.56
  Q 71.62 721.12 57.68 723.90
  Q 55.93 724.25 54.14 723.59
  C 47.88 721.26 50.97 716.20 54.81 713.56
  Q 66.77 705.34 88.01 690.82
  Q 103.36 680.32 120.42 666.95
  Q 143.48 648.87 155.15 639.41
  C 172.41 625.41 186.90 614.91 203.23 605.33
  A 0.48 0.48 0.0 0 0 203.42 604.69
  Q 193.17 584.44 178.06 557.61
  C 170.77 544.69 160.16 527.84 152.84 512.93
  Q 143.53 493.93 135.61 475.38
  C 130.53 463.48 127.63 451.74 127.87 438.71
  C 128.05 429.26 131.19 419.58 131.14 409.26
  Q 131.07 392.15 131.60 376.55
  Q 132.27 356.84 143.58 340.86
  Q 146.75 336.39 161.13 314.62
  C 174.14 294.94 188.83 277.87 204.80 261.23
  A 1.52 1.51 -38.6 0 0 205.01 259.42
  C 193.95 240.72 185.79 217.20 188.78 195.51
  Q 193.15 163.73 215.35 139.34
  Q 228.32 125.08 241.87 115.88
  Q 271.23 95.95 307.74 93.77
  Q 328.02 92.57 342.06 92.59
  C 362.70 92.62 381.70 98.97 398.72 109.13
  A 1.05 1.04 -45.3 0 0 399.80 109.12
  C 413.93 100.53 431.08 96.18 448.04 91.41
  Q 455.82 89.23 460.90 87.39
  C 468.01 84.81 472.17 83.12 477.97 81.73
  Q 486.02 79.82 497.57 79.37
  Q 521.04 78.47 544.37 81.34
  A 1.69 1.67 21.5 0 0 545.93 80.67
  C 564.12 56.03 589.16 33.50 618.36 23.06
  Q 646.24 13.10 676.25 14.39
  Q 711.67 15.91 742.34 33.91
  C 783.70 58.19 803.75 103.17 794.28 150.27
  A 1.09 1.09 0.0 0 0 794.91 151.48
  Q 816.92 161.10 837.76 174.83
  C 840.95 176.93 843.36 178.16 846.64 179.81
  Q 858.45 185.75 885.45 197.31
  Q 899.03 203.12 908.77 213.72
  C 917.52 223.24 920.36 236.12 920.80 248.98
  Q 921.34 264.82 922.15 282.25
  Q 922.64 292.62 920.36 302.32
  C 916.52 318.63 914.12 330.09 910.92 341.14
  Q 906.49 356.41 900.10 374.88
  C 898.24 380.24 897.25 385.13 896.52 391.48
  Q 893.87 414.59 891.54 431.28
  Q 889.83 443.49 883.34 457.58
  Q 870.03 486.41 858.30 510.31
  Q 851.22 524.73 841.68 540.48
  Q 827.82 563.37 810.08 590.16
  A 2.02 2.01 -54.4 0 0 810.52 592.86
  Q 821.38 601.29 831.77 610.74
  C 854.71 631.57 875.57 650.60 897.98 672.52
  Q 927.58 701.46 951.71 725.57
  C 953.14 727.00 954.99 729.04 954.21 731.47
  Q 953.26 734.42 950.07 735.21
  A 2.14 2.06 -43.9 0 1 949.04 735.21
  Q 947.60 734.86 941.48 732.00
  Q 918.92 721.47 898.47 710.52
  Q 888.06 704.94 879.98 699.86
  C 871.83 694.75 863.33 689.29 855.62 685.21
  Q 841.11 677.52 824.45 671.54
  A 0.43 0.43 0.0 0 0 823.95 672.19
  C 830.35 681.20 835.52 690.72 841.85 700.17
  Q 850.87 713.66 862.03 729.16
  C 870.94 741.53 876.38 750.07 887.38 766.79
  C 891.56 773.14 894.44 779.45 897.93 785.95
  A 2.47 0.23 79.7 0 1 898.39 787.58
  Q 898.65 788.81 899.59 790.38
  Q 912.30 811.64 929.23 839.79
  Q 934.42 848.41 940.66 862.22
  A 2.88 2.72 32.1 0 1 940.89 863.11
  C 941.12 865.66 938.16 870.10 935.07 869.00
  Q 933.24 868.34 925.03 864.21
  Q 921.59 862.48 915.40 858.74
  Q 885.19 840.46 852.19 819.61
  A 1.16 1.14 -30.9 0 0 851.49 819.44
  Q 850.54 819.53 850.68 818.85
  A 0.44 0.44 0.0 0 0 850.10 818.36
  Q 850.05 818.37 849.43 818.35
  Q 849.32 818.34 848.97 817.85
  C 847.80 816.20 846.34 816.29 845.03 815.50
  Q 836.93 810.59 832.62 807.54
  A 1.18 1.18 0.0 0 0 831.56 807.38
  Q 830.69 807.67 830.68 806.77
  A 0.48 0.48 0.0 0 0 830.10 806.31
  Q 829.97 806.34 827.61 804.89
  Q 787.66 780.32 783.53 777.99
  Q 777.30 774.48 773.68 772.09
  Q 769.79 769.51 755.97 761.64
  Q 755.66 761.46 752.91 760.04
  Q 749.99 758.53 748.88 757.63
  Q 747.60 756.60 747.25 756.53
  Q 746.80 756.44 746.11 756.39
  A 0.55 0.55 0.0 0 1 745.60 755.91
  Q 745.51 755.23 744.45 755.39
  A 0.66 0.66 0.0 0 1 743.70 754.89
  Q 743.64 754.67 743.53 754.51
  Q 743.41 754.32 743.05 754.36
  Q 742.12 754.48 741.75 753.78
  Q 741.43 753.17 740.85 753.33
  Q 740.53 753.42 740.55 752.70
  A 0.38 0.38 0.0 0 0 740.03 752.33
  Q 739.55 752.52 738.98 752.47
  A 0.36 0.35 -67.8 0 1 738.74 751.89
  Q 738.94 751.66 738.70 751.43
  Q 738.43 751.16 738.25 751.24
  Q 736.96 751.80 736.76 750.72
  A 0.56 0.56 0.0 0 0 736.02 750.30
  Q 735.97 750.32 735.82 750.40
  A 0.16 0.16 0.0 0 1 735.60 750.19
  Q 735.78 749.77 735.82 749.63
  Q 735.93 749.26 735.34 749.33
  Q 734.01 749.48 732.95 749.20
  A 0.43 0.43 0.0 0 0 732.41 749.62
  L 732.38 753.25
  A 0.62 0.62 0.0 0 0 732.74 753.83
  Q 732.78 753.85 732.99 753.80
  A 0.17 0.16 -8.6 0 1 733.20 753.95
  L 733.50 759.47
  A 0.38 0.37 -77.2 0 0 733.69 759.78
  L 734.10 760.00
  A 0.35 0.34 15.0 0 1 734.28 760.30
  L 734.47 769.58
  A 0.25 0.24 8.1 0 0 734.65 769.81
  Q 734.66 769.82 735.00 769.79
  A 0.25 0.24 -2.2 0 1 735.27 770.03
  L 735.47 779.28
  A 0.83 0.81 -66.1 0 0 735.67 779.82
  Q 735.69 779.83 735.96 779.90
  A 0.35 0.35 0.0 0 1 736.21 780.22
  L 736.48 789.35
  A 0.87 0.83 23.4 0 0 736.72 789.91
  Q 736.85 790.05 737.04 790.24
  A 0.58 0.58 0.0 0 1 737.21 790.65
  L 737.48 800.41
  A 0.59 0.56 -72.3 0 0 737.68 800.83
  Q 737.73 800.87 737.87 801.02
  A 0.95 0.93 21.2 0 1 738.17 801.68
  L 738.55 812.71
  A 0.10 0.09 8.3 0 0 738.62 812.80
  Q 738.74 812.85 738.94 812.91
  A 0.37 0.35 6.7 0 1 739.21 813.24
  L 739.49 823.34
  A 0.89 0.86 -68.5 0 0 739.73 823.92
  Q 739.91 824.11 740.01 824.21
  A 0.72 0.69 -68.8 0 1 740.20 824.67
  L 740.50 834.81
  A 4.18 4.07 36.1 0 0 740.68 835.87
  Q 740.69 835.88 740.87 836.07
  A 0.95 0.93 21.2 0 1 741.17 836.73
  L 741.54 848.76
  A 0.04 0.03 14.9 0 0 741.56 848.79
  Q 741.77 848.85 741.96 848.91
  A 0.41 0.41 0.0 0 1 742.25 849.30
  L 742.48 860.27
  A 0.74 0.73 -70.5 0 0 742.75 860.84
  Q 742.79 860.85 742.99 860.92
  A 0.34 0.34 0.0 0 1 743.21 861.22
  L 743.49 872.41
  A 0.48 0.45 23.7 0 0 743.63 872.74
  Q 743.79 872.92 743.81 872.93
  A 1.25 1.23 -70.5 0 1 744.22 873.81
  L 744.54 884.35
  A 0.80 0.77 -67.9 0 0 744.74 884.85
  Q 744.87 885.00 745.10 885.27
  A 0.46 0.45 -66.9 0 1 745.22 885.58
  L 745.49 897.41
  A 0.50 0.48 -77.7 0 0 745.75 897.83
  Q 745.86 897.89 746.00 897.94
  A 0.37 0.36 -79.8 0 1 746.22 898.26
  L 746.49 911.42
  A 0.65 0.62 -68.8 0 0 746.66 911.83
  Q 746.83 912.00 746.87 912.03
  A 1.26 1.24 21.9 0 1 747.25 912.90
  L 747.49 930.34
  A 0.50 0.46 33.0 0 0 747.55 930.57
  Q 747.96 931.22 747.98 931.75
  Q 748.50 942.87 748.25 954.50
  A 1.03 1.02 75.5 0 1 747.74 955.37
  Q 747.70 955.40 747.48 955.45
  A 0.23 0.22 -12.1 0 0 747.31 955.71
  L 747.55 957.01
  A 0.94 0.93 -23.5 0 1 747.18 957.94
  Q 745.80 958.93 745.32 959.89
  A 0.95 0.93 16.2 0 1 744.36 960.41
  Q 744.03 960.37 743.73 960.66
  A 2.81 2.25 -53.7 0 1 741.01 961.39
  Q 737.68 960.05 735.35 957.74
  Q 710.10 932.78 688.27 910.31
  Q 687.86 909.89 687.37 908.98
  A 2.62 2.59 4.2 0 0 686.61 908.11
  Q 685.27 907.14 666.60 887.39
  Q 637.93 857.04 633.66 852.35
  C 631.53 850.00 628.72 847.15 625.23 843.27
  Q 618.99 836.35 617.84 835.16
  Q 614.47 831.70 612.86 829.81
  C 608.73 824.94 602.35 818.46 599.91 816.05
  C 597.60 813.77 593.75 808.58 590.58 806.40
  A 0.39 0.39 0.0 0 1 590.50 805.83
  Q 590.62 805.68 590.68 805.65
  Q 590.71 805.64 590.51 805.42
  Q 588.38 803.01 584.97 799.73
  A 1.36 1.34 64.2 0 0 583.90 799.35
  Q 583.07 799.43 582.71 799.26
  A 0.30 0.30 0.0 0 0 582.29 799.62
  Q 582.48 800.26 582.33 801.51
  A 1.01 0.99 81.5 0 1 581.73 802.33
  Q 581.69 802.35 581.42 802.39
  A 0.25 0.25 0.0 0 0 581.21 802.71
  L 581.53 803.75
  A 0.61 0.60 -33.3 0 1 581.41 804.31
  Q 581.30 804.45 580.66 804.27
  A 0.36 0.35 -4.1 0 0 580.24 804.75
  Q 580.98 806.51 579.80 807.19
  A 0.92 0.92 0.0 0 0 579.41 808.36
  Q 579.43 808.42 579.47 808.55
  A 0.62 0.62 0.0 0 1 578.82 809.34
  Q 578.79 809.34 578.72 809.33
  A 0.43 0.43 0.0 0 0 578.28 809.91
  Q 578.97 811.67 577.62 812.27
  A 0.57 0.56 68.4 0 0 577.32 812.97
  Q 577.87 814.53 576.68 814.33
  A 0.40 0.39 82.0 0 0 576.26 814.89
  Q 576.96 816.39 575.84 817.10
  A 1.08 1.07 64.5 0 0 575.40 818.35
  Q 575.42 818.40 575.44 818.49
  A 0.69 0.68 -7.3 0 1 574.78 819.34
  Q 574.76 819.34 574.70 819.34
  A 0.42 0.42 0.0 0 0 574.29 819.92
  Q 574.95 821.51 573.77 822.13
  A 0.77 0.77 0.0 0 0 573.37 822.91
  L 573.49 823.84
  A 0.46 0.46 0.0 0 1 572.91 824.34
  Q 572.70 824.28 572.29 824.46
  Q 572.02 824.58 572.26 825.00
  Q 572.62 825.64 572.64 825.91
  A 0.53 0.53 0.0 0 1 571.94 826.45
  Q 571.86 826.42 571.68 826.33
  A 0.21 0.20 13.5 0 0 571.38 826.51
  L 571.38 828.77
  A 0.59 0.58 -3.3 0 1 570.86 829.35
  Q 570.72 829.36 570.57 829.36
  A 0.39 0.39 0.0 0 0 570.22 829.91
  L 570.58 830.69
  A 0.55 0.54 80.6 0 1 570.03 831.46
  Q 569.96 831.45 569.78 831.38
  A 0.41 0.41 0.0 0 0 569.25 831.88
  Q 569.51 832.70 569.46 833.62
  A 0.79 0.79 0.0 0 1 568.81 834.35
  Q 568.78 834.36 568.68 834.36
  A 0.49 0.49 0.0 0 0 568.28 835.07
  L 568.56 835.67
  A 0.57 0.56 -10.4 0 1 568.00 836.48
  Q 567.98 836.48 567.80 836.39
  A 0.38 0.38 0.0 0 0 567.28 836.83
  Q 567.54 837.81 567.46 838.81
  A 0.58 0.58 0.0 0 1 566.78 839.34
  C 566.16 839.23 566.10 839.88 566.38 840.30
  Q 566.63 840.69 566.63 840.82
  A 0.55 0.55 0.0 0 1 565.95 841.39
  L 565.63 841.32
  A 0.36 0.36 0.0 0 0 565.22 841.82
  Q 566.02 843.61 564.89 844.21
  A 0.84 0.82 76.6 0 0 564.45 844.95
  L 564.45 846.05
  A 0.37 0.35 3.6 0 1 564.04 846.40
  Q 563.85 846.38 563.73 846.35
  A 0.38 0.38 0.0 0 0 563.28 846.84
  Q 563.57 847.71 563.45 848.59
  A 0.73 0.72 -1.7 0 1 562.87 849.20
  Q 561.94 849.37 562.48 850.52
  A 0.59 0.59 0.0 0 1 561.94 851.35
  L 561.58 851.35
  A 0.41 0.41 0.0 0 0 561.23 851.96
  Q 562.09 853.46 560.79 854.12
  A 0.90 0.90 0.0 0 0 560.38 855.28
  Q 560.80 856.25 559.90 856.31
  A 0.68 0.68 0.0 0 0 559.34 857.31
  L 559.57 857.74
  A 0.48 0.48 0.0 0 1 559.02 858.43
  Q 558.98 858.42 558.74 858.33
  A 0.33 0.33 0.0 0 0 558.28 858.67
  L 558.47 860.65
  A 0.64 0.64 0.0 0 1 557.83 861.35
  Q 557.67 861.35 557.30 861.45
  Q 557.03 861.53 557.27 861.99
  Q 557.43 862.31 557.52 862.52
  A 0.60 0.59 -11.7 0 1 556.97 863.35
  L 556.48 863.35
  A 0.31 0.31 0.0 0 0 556.20 863.78
  Q 557.06 865.66 555.77 866.26
  A 0.79 0.79 0.0 0 0 555.36 867.22
  L 555.52 867.70
  A 0.52 0.52 0.0 0 1 554.87 868.36
  Q 554.84 868.35 554.75 868.34
  A 0.44 0.43 -6.6 0 0 554.28 868.93
  Q 554.95 870.60 553.79 871.24
  A 0.87 0.86 -23.8 0 0 553.38 872.28
  Q 553.48 872.61 553.49 872.62
  A 0.61 0.61 0.0 0 1 552.84 873.38
  Q 552.80 873.37 552.57 873.33
  A 0.35 0.35 0.0 0 0 552.19 873.80
  L 552.60 874.79
  A 0.52 0.51 -5.5 0 1 552.02 875.49
  Q 551.95 875.48 551.72 875.37
  A 0.31 0.31 0.0 0 0 551.28 875.68
  L 551.46 877.72
  A 0.58 0.57 89.5 0 1 550.85 878.35
  Q 550.68 878.34 550.31 878.45
  Q 550.03 878.52 550.27 878.99
  Q 550.60 879.65 550.61 879.81
  A 0.54 0.53 4.4 0 1 549.97 880.35
  Q 549.65 880.29 549.63 880.29
  A 0.43 0.43 0.0 0 0 549.26 880.90
  Q 550.00 882.57 548.81 883.21
  A 0.91 0.91 0.0 0 0 548.40 884.34
  Q 548.46 884.50 548.49 884.60
  A 0.60 0.60 0.0 0 1 547.85 885.37
  Q 547.81 885.37 547.76 885.36
  A 0.48 0.48 0.0 0 0 547.27 886.05
  L 547.58 886.70
  A 0.55 0.55 0.0 0 1 547.02 887.49
  Q 546.97 887.49 546.71 887.37
  A 0.23 0.23 0.0 0 0 546.37 887.58
  L 546.37 889.71
  A 0.57 0.56 -5.6 0 1 545.91 890.26
  Q 545.73 890.29 545.63 890.33
  A 0.67 0.67 0.0 0 0 545.34 891.20
  L 545.55 891.67
  A 0.50 0.49 83.2 0 1 545.01 892.36
  Q 544.65 892.29 544.63 892.30
  A 0.43 0.42 76.9 0 0 544.26 892.90
  Q 545.00 894.55 543.82 895.20
  A 0.92 0.91 -23.7 0 0 543.39 896.28
  Q 543.43 896.40 543.49 896.61
  A 0.62 0.61 85.5 0 1 542.85 897.37
  Q 542.77 897.37 542.57 897.34
  A 0.34 0.34 0.0 0 0 542.20 897.80
  L 542.60 898.78
  A 0.52 0.52 0.0 0 1 542.02 899.49
  Q 541.95 899.48 541.79 899.40
  A 0.39 0.39 0.0 0 0 541.27 899.89
  Q 541.56 900.70 541.50 901.50
  A 0.92 0.92 0.0 0 1 540.82 902.32
  Q 540.73 902.35 540.55 902.36
  A 0.34 0.34 0.0 0 0 540.25 902.80
  L 540.55 903.74
  A 0.51 0.51 0.0 0 1 539.89 904.37
  Q 539.87 904.36 539.76 904.34
  A 0.46 0.46 0.0 0 0 539.26 904.96
  Q 539.99 906.76 538.69 907.25
  A 0.62 0.62 0.0 0 0 538.32 908.02
  Q 538.48 908.48 538.46 908.70
  A 0.71 0.71 0.0 0 1 537.74 909.38
  Q 537.49 909.37 537.29 909.47
  Q 537.02 909.60 537.26 909.99
  Q 537.54 910.46 537.58 910.79
  A 0.52 0.51 2.1 0 1 536.97 911.35
  Q 536.65 911.29 536.63 911.30
  A 0.43 0.42 -13.5 0 0 536.26 911.90
  Q 536.99 913.50 535.78 914.13
  A 0.89 0.89 0.0 0 0 535.37 915.26
  Q 535.74 916.14 534.93 916.26
  A 0.75 0.75 0.0 0 0 534.36 917.32
  L 534.49 917.60
  A 0.56 0.55 -7.9 0 1 533.89 918.38
  Q 533.84 918.38 533.76 918.37
  A 0.49 0.49 0.0 0 0 533.27 919.08
  L 533.58 919.69
  A 0.56 0.55 80.0 0 1 533.02 920.49
  Q 532.97 920.48 532.77 920.40
  A 0.37 0.37 0.0 0 0 532.27 920.85
  Q 532.58 921.92 532.44 922.69
  A 0.74 0.73 3.8 0 1 531.74 923.30
  Q 531.35 923.31 531.27 923.60
  Q 531.18 923.92 531.37 924.29
  Q 531.59 924.73 531.55 925.03
  A 0.45 0.45 0.0 0 1 530.91 925.37
  Q 530.60 925.22 530.30 925.43
  Q 530.03 925.62 530.25 926.00
  Q 530.49 926.40 530.58 926.68
  A 0.54 0.53 -9.1 0 1 530.07 927.38
  L 529.56 927.38
  A 0.36 0.36 0.0 0 0 529.23 927.88
  Q 530.00 929.60 528.90 930.19
  A 0.90 0.89 76.2 0 0 528.43 930.98
  L 528.43 932.03
  A 0.36 0.35 0.8 0 1 528.06 932.38
  Q 527.92 932.38 527.77 932.36
  A 0.48 0.47 84.0 0 0 527.25 933.01
  L 527.61 933.90
  A 0.53 0.52 60.1 0 1 527.45 934.50
  Q 527.33 934.59 526.68 934.28
  A 0.34 0.34 0.0 0 0 526.21 934.72
  Q 527.03 936.66 525.81 937.22
  A 0.83 0.82 -22.6 0 0 525.38 938.26
  Q 525.45 938.45 525.48 938.54
  A 0.59 0.58 81.1 0 1 524.94 939.29
  Q 524.78 939.30 524.70 939.32
  A 0.68 0.68 0.0 0 0 524.33 940.23
  L 524.56 940.73
  A 0.46 0.46 0.0 0 1 524.14 941.38
  L 523.49 941.38
  A 0.31 0.30 77.0 0 0 523.22 941.82
  Q 524.02 943.52 522.84 944.18
  A 1.01 0.99 -20.7 0 0 522.35 945.24
  L 522.48 945.87
  A 0.41 0.41 0.0 0 1 521.94 946.34
  Q 521.69 946.25 521.30 946.47
  Q 521.03 946.62 521.26 946.99
  Q 521.54 947.47 521.58 947.78
  A 0.52 0.52 0.0 0 1 520.97 948.36
  Q 520.64 948.29 520.62 948.29
  A 0.43 0.43 0.0 0 0 520.25 948.90
  Q 521.00 950.50 519.78 951.13
  A 0.88 0.88 0.0 0 0 519.37 952.25
  Q 519.74 953.14 518.94 953.26
  A 0.76 0.76 0.0 0 0 518.37 954.34
  L 518.49 954.58
  A 0.57 0.57 0.0 0 1 517.89 955.39
  Q 517.84 955.38 517.76 955.37
  A 0.49 0.49 0.0 0 0 517.27 956.07
  L 517.58 956.70
  A 0.55 0.55 0.0 0 1 517.02 957.49
  Q 516.96 957.48 516.78 957.40
  A 0.38 0.38 0.0 0 0 516.27 957.85
  Q 516.56 958.87 516.45 959.71
  A 0.68 0.68 0.0 0 1 515.75 960.30
  Q 515.38 960.28 515.28 960.58
  Q 515.17 960.91 515.38 961.30
  Q 515.61 961.71 515.57 962.01
  A 0.47 0.46 -76.0 0 1 514.95 962.39
  Q 514.57 962.25 514.41 962.35
  A 0.53 0.52 61.3 0 0 514.23 962.98
  L 514.65 963.98
  A 0.41 0.41 0.0 0 1 514.06 964.49
  Q 513.92 964.41 513.65 964.32
  A 0.34 0.34 0.0 0 0 513.23 964.76
  Q 514.01 966.95 512.81 967.28
  A 0.66 0.66 0.0 0 0 512.35 968.12
  L 512.49 968.54
  A 0.65 0.65 0.0 0 1 511.84 969.38
  Q 511.83 969.38 511.78 969.37
  A 0.45 0.45 0.0 0 0 511.28 970.00
  L 511.54 970.56
  A 0.60 0.60 0.0 0 1 510.95 971.41
  Q 510.87 971.40 510.80 971.39
  A 0.44 0.44 0.0 0 0 510.29 971.97
  L 510.53 972.65
  A 0.57 0.56 85.3 0 1 509.90 973.40
  Q 509.88 973.40 509.87 973.40
  A 0.52 0.51 -8.0 0 0 509.36 974.07
  L 509.51 974.54
  A 0.67 0.66 79.7 0 1 508.91 975.41
  Q 508.85 975.41 508.82 975.41
  A 0.54 0.54 0.0 0 0 508.37 976.09
  L 508.51 976.56
  A 0.68 0.68 0.0 0 1 507.93 977.42
  Q 507.89 977.43 507.64 977.39
  A 0.17 0.17 0.0 0 0 507.44 977.56
  L 507.44 978.84
  A 0.54 0.54 0.0 0 1 506.90 979.38
  Q 506.13 979.37 506.44 980.42
  A 0.67 0.67 0.0 0 1 506.01 981.25
  Q 503.96 981.94 504.51 983.71
  A 0.51 0.51 0.0 0 1 503.98 984.37
  Q 503.92 984.36 503.68 984.30
  A 0.25 0.25 0.0 0 0 503.37 984.54
  L 503.37 985.40
  A 0.54 0.54 0.0 0 1 502.83 985.94
  L 495.27 985.94
  A 0.67 0.67 0.0 0 1 494.60 985.31
  Q 494.53 984.31 494.71 983.83
  A 0.36 0.36 0.0 0 0 494.34 983.34
  C 494.07 983.37 493.76 983.71 493.55 983.44
  Q 493.35 983.19 493.50 982.88
  A 0.42 0.41 15.0 0 0 493.15 982.28
  Q 492.59 982.25 492.61 981.49
  Q 492.62 981.27 492.24 980.59
  Q 489.99 976.53 488.45 973.06
  A 2.69 0.82 40.2 0 0 487.94 972.27
  Q 487.59 971.82 487.63 971.16
  A 0.62 0.62 0.0 0 0 487.15 970.51
  Q 486.56 970.38 486.63 969.50
  Q 486.70 968.69 485.96 968.24
  Q 485.56 968.01 485.64 967.25
  Q 485.70 966.71 485.26 966.29
  Q 484.33 965.40 484.55 964.19
  A 0.60 0.60 0.0 0 0 484.10 963.50
  Q 483.37 963.31 483.62 962.22
  A 0.63 0.62 -76.5 0 0 483.17 961.48
  Q 482.67 961.35 482.66 960.91
  Q 482.65 960.50 482.55 960.23
  Q 480.55 955.08 479.84 954.02
  Q 479.64 953.71 479.54 952.69
  Q 479.43 951.61 478.98 951.45
  A 0.65 0.64 16.1 0 1 478.56 950.70
  Q 478.77 949.78 478.05 949.47
  A 0.67 0.66 -78.6 0 1 477.65 948.86
  L 477.65 948.25
  A 1.07 1.07 0.0 0 0 477.28 947.44
  Q 476.42 946.71 476.59 945.28
  A 0.84 0.83 10.0 0 0 475.95 944.37
  Q 475.34 944.23 475.60 943.55
  A 1.06 1.05 28.7 0 0 475.23 942.32
  Q 474.43 941.75 474.61 940.45
  A 0.98 0.97 -74.7 0 0 474.03 939.42
  Q 473.97 939.40 473.96 939.39
  A 0.67 0.66 -70.6 0 1 473.60 938.63
  Q 473.78 937.92 473.38 937.47
  C 472.62 936.63 472.30 935.93 472.62 935.02
  A 0.41 0.41 0.0 0 0 472.26 934.47
  Q 471.26 934.40 471.64 933.15
  A 0.71 0.70 -64.7 0 0 471.36 932.36
  Q 470.33 931.67 470.60 930.22
  A 0.63 0.63 0.0 0 0 470.19 929.51
  Q 469.88 929.40 469.53 929.01
  Q 469.19 928.63 468.81 927.00
  Q 468.58 925.99 468.37 924.63
  Q 468.32 924.32 467.64 923.00
  Q 467.43 922.58 467.08 922.35
  A 0.75 0.73 -79.7 0 1 466.75 921.86
  Q 466.16 918.68 464.89 916.68
  Q 463.62 914.69 463.71 913.98
  Q 463.85 912.77 463.05 912.44
  A 0.68 0.68 0.0 0 1 462.62 911.81
  L 462.62 911.14
  A 0.98 0.97 -70.5 0 0 462.27 910.39
  Q 461.45 909.71 461.59 908.40
  A 0.95 0.94 16.0 0 0 461.06 907.45
  Q 460.97 907.40 460.91 907.37
  A 0.79 0.78 -65.9 0 1 460.56 906.43
  Q 460.81 905.68 460.23 905.28
  A 1.57 1.56 -72.6 0 1 459.58 904.03
  L 459.57 903.01
  A 0.61 0.60 4.7 0 0 459.07 902.43
  Q 458.36 902.30 458.59 901.54
  Q 458.78 900.91 458.38 900.56
  Q 457.54 899.80 457.54 898.37
  A 1.10 1.08 -74.5 0 0 457.01 897.41
  Q 456.97 897.38 456.93 897.36
  A 0.67 0.66 -70.6 0 1 456.58 896.61
  Q 456.77 895.79 456.15 895.42
  A 1.03 1.03 0.0 0 1 455.64 894.53
  Q 455.64 892.85 454.89 892.36
  A 0.70 0.70 0.0 0 1 454.58 891.65
  Q 454.69 891.08 454.40 890.77
  A 1.81 0.37 42.3 0 1 453.84 890.00
  Q 442.10 861.03 434.86 844.03
  Q 433.50 840.84 431.93 837.69
  Q 431.59 837.02 431.28 836.35
  Q 429.53 832.54 428.01 828.50
  Q 427.53 827.24 424.93 821.94
  C 424.52 821.11 424.55 819.70 423.97 819.44
  A 0.71 0.70 20.0 0 1 423.58 818.61
  Q 423.82 817.75 423.13 817.48
  A 0.87 0.87 0.0 0 1 422.59 816.59
  L 422.62 816.25
  A 0.84 0.82 -78.5 0 0 422.05 815.37
  Q 421.53 815.20 421.64 814.37
  Q 421.74 813.68 421.22 813.23
  Q 420.29 812.43 420.60 811.17
  A 0.56 0.56 0.0 0 0 420.11 810.48
  Q 419.12 810.40 419.67 809.08
  A 0.49 0.48 14.0 0 0 419.26 808.41
  Q 418.24 808.31 418.64 807.19
  A 0.62 0.62 0.0 0 0 418.34 806.43
  Q 417.29 805.86 417.64 804.31
  A 0.72 0.72 0.0 0 0 417.09 803.44
  Q 417.07 803.44 416.81 803.42
  A 0.43 0.43 0.0 0 1 416.44 802.83
  L 416.64 802.35
  A 0.78 0.77 -66.5 0 0 416.25 801.34
  Q 416.17 801.30 415.97 801.28
  A 0.39 0.39 0.0 0 1 415.62 800.89
  L 415.62 799.85
  A 0.69 0.69 0.0 0 0 415.21 799.22
  Q 414.06 798.74 414.70 797.11
  A 0.55 0.54 10.6 0 0 414.19 796.37
  L 413.87 796.37
  A 0.32 0.31 90.0 0 1 413.56 796.05
  L 413.56 794.52
  A 0.41 0.41 0.0 0 0 413.15 794.11
  L 410.97 794.11
  A 0.55 0.55 0.0 0 0 410.42 794.67
  Q 410.42 795.33 409.76 795.30
  A 0.24 0.24 0.0 0 0 409.56 795.38
  L 405.71 799.23
  A 0.73 0.73 0.0 0 1 405.07 799.42
  Q 404.32 799.26 404.02 800.01
  Z
  M 552.28 85.77
  C 550.38 88.20 545.47 94.34 548.84 97.17
  Q 557.43 104.38 569.08 109.44
  Q 587.22 117.32 603.08 124.19
  Q 617.40 130.39 636.75 134.81
  C 643.22 136.29 654.54 137.89 663.06 140.29
  C 673.86 143.33 685.21 148.43 693.89 151.59
  Q 703.34 155.03 715.38 157.87
  Q 732.61 161.93 743.66 163.53
  Q 759.38 165.80 769.25 166.03
  C 776.59 166.20 782.67 166.22 784.35 157.57
  Q 787.05 143.76 787.66 135.02
  Q 789.84 103.88 774.36 77.43
  Q 765.51 62.32 755.18 53.60
  Q 735.69 37.18 712.09 29.35
  Q 692.23 22.77 670.95 22.77
  C 643.67 22.77 616.90 29.55 594.67 44.96
  Q 580.05 55.09 568.39 67.39
  Q 558.47 77.86 552.28 85.77
  Z
  M 540.36 88.87
  Q 536.13 88.42 518.75 87.55
  Q 502.16 86.72 485.39 89.05
  C 477.35 90.17 469.03 93.85 461.51 96.26
  Q 453.61 98.79 445.41 100.96
  C 431.66 104.59 419.54 108.51 407.07 114.49
  A 0.46 0.46 0.0 0 0 406.99 115.28
  Q 413.28 120.04 417.83 124.92
  C 421.24 128.57 421.04 132.36 419.73 137.24
  Q 418.03 143.57 412.61 154.38
  Q 405.73 168.09 395.59 182.61
  C 381.47 202.81 365.30 222.29 347.36 239.87
  Q 331.81 255.10 330.32 256.32
  C 324.12 261.43 317.00 267.59 309.49 272.23
  C 297.16 279.85 284.54 286.19 270.45 292.94
  C 263.71 296.16 255.65 298.79 248.19 297.26
  Q 245.19 296.64 239.64 293.06
  Q 227.25 285.04 216.83 274.72
  Q 213.39 271.30 210.67 267.22
  A 0.26 0.25 -40.6 0 0 210.27 267.19
  Q 188.80 289.88 170.49 315.97
  C 163.85 325.42 158.05 335.50 151.82 344.24
  C 145.96 352.48 142.39 360.06 141.50 368.75
  Q 140.21 381.34 140.21 396.50
  C 140.20 407.88 140.60 414.00 139.22 422.45
  C 138.55 426.51 137.07 434.73 137.12 439.95
  Q 137.23 453.21 140.32 461.75
  Q 147.64 481.94 157.97 503.48
  C 164.77 517.67 174.40 533.44 181.70 545.89
  C 188.38 557.28 196.40 572.87 201.32 581.65
  C 205.45 589.01 209.57 597.93 213.85 605.14
  Q 222.82 620.26 235.44 633.90
  C 239.00 637.74 243.03 640.59 247.31 643.44
  Q 262.14 653.29 278.39 660.33
  C 302.50 670.77 327.12 681.61 353.24 685.77
  Q 381.51 690.27 410.00 692.50
  Q 427.74 693.89 469.75 695.50
  Q 478.78 695.85 516.70 694.94
  C 531.52 694.58 548.07 694.24 562.54 692.54
  Q 603.83 687.69 647.76 678.72
  Q 658.81 676.47 668.56 672.56
  Q 681.93 667.21 700.53 658.25
  C 707.65 654.83 716.90 650.79 724.21 646.85
  Q 758.34 628.45 788.82 602.32
  Q 793.38 598.41 796.82 593.58
  C 812.32 571.83 826.28 549.06 839.35 526.81
  C 844.40 518.19 848.36 510.06 852.60 501.61
  Q 854.98 496.88 871.34 461.90
  C 878.29 447.03 882.22 436.86 883.79 423.50
  Q 885.90 405.52 888.32 385.02
  Q 889.07 378.69 890.07 375.85
  Q 898.49 351.97 901.70 340.72
  Q 906.15 325.10 911.71 299.00
  Q 913.27 291.66 912.90 284.76
  Q 912.15 271.07 911.56 247.73
  C 911.31 237.78 908.85 226.13 901.27 218.65
  Q 895.81 213.27 894.33 212.30
  Q 886.70 207.31 879.73 204.24
  Q 859.36 195.28 848.66 190.36
  C 845.56 188.93 839.65 186.11 835.40 183.12
  Q 831.83 180.62 827.94 178.32
  Q 809.82 167.65 793.46 159.41
  A 0.44 0.44 0.0 0 0 792.83 159.71
  C 790.45 171.59 778.75 174.83 768.24 174.22
  Q 727.87 171.88 688.98 158.41
  Q 685.95 157.36 674.69 152.85
  C 666.07 149.40 658.54 147.03 649.69 145.55
  C 635.87 143.25 622.29 140.27 609.73 135.52
  Q 598.15 131.15 566.03 116.81
  C 559.38 113.85 551.82 109.63 546.19 105.40
  C 540.30 100.98 536.68 97.14 540.77 89.66
  A 0.54 0.53 -72.7 0 0 540.36 88.87
  Z
  M 411.38 130.91
  C 398.03 116.81 381.41 107.93 362.26 103.41
  Q 350.42 100.62 330.09 101.32
  Q 307.02 102.11 297.26 103.54
  Q 264.33 108.33 238.10 129.57
  C 209.87 152.44 190.07 187.61 199.93 224.78
  C 206.39 249.11 219.89 270.54 241.22 284.52
  C 244.87 286.92 250.21 291.31 255.06 290.32
  Q 262.24 288.86 269.21 285.20
  Q 286.84 275.93 294.17 271.90
  Q 311.05 262.61 326.45 248.69
  Q 362.15 216.45 388.87 177.63
  Q 399.03 162.86 406.50 147.96
  C 408.90 143.16 410.50 138.24 411.79 132.38
  A 1.63 1.61 29.8 0 0 411.38 130.91
  Z
  M 820.48 683.31
  Q 820.07 682.23 819.36 681.71
  Q 814.01 673.16 808.20 664.83
  C 806.69 662.66 806.40 660.78 808.17 658.95
  A 2.93 2.92 -79.6 0 1 809.04 658.35
  Q 811.30 657.33 815.63 658.88
  Q 831.09 664.39 841.80 668.93
  C 862.83 677.86 882.62 692.48 901.97 703.21
  Q 915.93 710.96 935.90 720.96
  A 0.16 0.16 0.0 0 0 936.08 720.70
  C 916.17 701.86 894.33 680.49 876.70 663.50
  Q 867.70 654.82 854.47 642.86
  C 842.85 632.37 824.73 614.82 809.28 602.19
  Q 806.61 600.01 804.33 598.59
  A 0.83 0.83 0.0 0 0 803.24 598.78
  C 800.13 602.77 796.32 607.02 792.07 610.57
  Q 767.60 631.00 743.24 645.94
  C 726.87 655.98 705.78 665.49 687.54 674.02
  Q 673.91 680.40 665.75 683.00
  Q 653.77 686.83 635.94 690.14
  Q 613.04 694.39 577.89 699.39
  Q 557.60 702.27 542.99 702.90
  Q 540.24 703.02 506.75 704.03
  C 471.37 705.09 436.33 703.42 403.25 700.69
  Q 377.96 698.61 349.05 693.88
  Q 338.17 692.10 327.92 689.02
  Q 315.61 685.32 307.37 681.89
  Q 280.09 670.51 275.40 668.59
  Q 260.95 662.65 240.41 648.94
  Q 232.68 643.78 228.91 639.66
  Q 217.87 627.61 208.87 613.26
  A 1.19 1.19 0.0 0 0 207.35 612.83
  Q 199.91 616.40 192.63 621.38
  Q 177.57 631.67 165.91 641.17
  Q 142.89 659.93 121.10 676.58
  Q 94.96 696.57 67.91 713.48
  A 0.37 0.37 0.0 0 0 68.10 714.16
  Q 68.78 714.17 70.01 713.77
  Q 72.20 713.06 122.01 697.75
  Q 135.40 693.63 152.12 687.61
  Q 158.88 685.18 183.29 678.25
  C 184.82 677.81 189.93 677.02 191.50 678.68
  C 193.28 680.57 191.99 683.23 190.53 684.79
  Q 179.58 696.48 160.05 720.80
  Q 141.04 744.48 125.06 762.32
  Q 102.98 786.98 96.38 794.38
  Q 75.64 817.65 56.90 841.84
  A 0.56 0.56 0.0 0 0 57.57 842.69
  Q 69.26 837.32 75.76 834.02
  C 115.03 814.12 152.03 795.15 192.04 775.84
  Q 215.98 764.28 246.02 748.50
  Q 247.52 747.71 259.66 741.93
  C 263.57 740.06 268.02 741.16 266.86 746.47
  C 261.83 769.55 257.01 792.78 252.56 816.31
  C 246.46 848.49 241.08 884.96 237.65 910.50
  Q 234.82 931.60 233.94 952.48
  A 0.57 0.57 0.0 0 0 234.87 952.94
  Q 236.49 951.62 239.90 948.40
  Q 253.64 935.41 284.47 905.78
  C 297.55 893.20 314.03 876.49 328.09 863.16
  Q 337.52 854.21 359.29 832.71
  C 376.49 815.72 390.16 802.02 406.39 787.90
  Q 409.42 785.26 412.03 783.71
  C 414.93 781.98 417.53 785.01 418.71 787.56
  Q 431.68 815.50 454.12 869.31
  C 460.16 883.81 465.88 896.98 471.70 911.73
  Q 483.21 940.87 498.52 976.58
  A 0.33 0.33 0.0 0 0 499.11 976.61
  C 505.03 965.94 509.62 954.47 515.01 941.69
  Q 518.89 932.48 526.23 915.46
  C 543.33 875.85 561.38 830.60 577.43 792.40
  C 578.48 789.91 580.08 787.12 583.25 788.05
  Q 584.88 788.53 586.41 790.09
  Q 608.01 812.13 626.82 832.93
  Q 651.57 860.31 712.16 923.34
  Q 726.03 937.76 739.36 950.90
  A 0.39 0.39 0.0 0 0 740.02 950.63
  C 740.36 912.27 735.42 873.62 732.68 836.07
  Q 730.27 803.18 725.01 748.75
  C 724.75 746.07 723.46 737.17 728.05 737.50
  C 731.25 737.74 734.24 739.77 738.74 742.27
  Q 757.06 752.49 795.20 775.31
  Q 803.65 780.37 841.96 804.07
  Q 891.69 834.84 929.51 858.26
  Q 930.11 858.62 930.52 858.65
  A 0.33 0.32 -13.8 0 0 930.82 858.16
  C 917.44 835.57 906.08 816.09 896.17 799.29
  Q 884.42 779.38 869.05 755.23
  C 856.95 736.21 842.99 718.34 830.84 699.42
  Q 825.67 691.35 820.48 683.31
  Z"
/>
<path fill="#fafafa" d="
  M 548.84 97.17
  C 545.47 94.34 550.38 88.20 552.28 85.77
  Q 558.47 77.86 568.39 67.39
  Q 580.05 55.09 594.67 44.96
  C 616.90 29.55 643.67 22.77 670.95 22.77
  Q 692.23 22.77 712.09 29.35
  Q 735.69 37.18 755.18 53.60
  Q 765.51 62.32 774.36 77.43
  Q 789.84 103.88 787.66 135.02
  Q 787.05 143.76 784.35 157.57
  C 782.67 166.22 776.59 166.20 769.25 166.03
  Q 759.38 165.80 743.66 163.53
  Q 732.61 161.93 715.38 157.87
  Q 703.34 155.03 693.89 151.59
  C 685.21 148.43 673.86 143.33 663.06 140.29
  C 654.54 137.89 643.22 136.29 636.75 134.81
  Q 617.40 130.39 603.08 124.19
  Q 587.22 117.32 569.08 109.44
  Q 557.43 104.38 548.84 97.17
  Z
  M 648.67 85.46
  Q 648.81 85.59 649.03 85.96
  Q 652.81 92.19 652.86 92.27
  C 656.60 98.84 661.56 103.02 668.83 105.55
  Q 677.50 108.58 684.87 106.63
  Q 686.34 106.24 690.56 104.47
  C 697.30 101.65 702.94 105.90 707.06 110.49
  Q 715.88 120.30 718.51 122.95
  Q 721.15 125.61 725.22 126.89
  C 730.16 128.44 736.19 125.77 738.37 121.30
  C 744.53 108.66 732.11 98.50 723.35 91.55
  C 719.88 88.79 717.76 86.05 717.11 81.93
  C 715.94 74.55 715.74 70.44 712.30 65.59
  C 701.40 50.18 683.80 45.48 666.43 52.86
  C 661.72 54.86 658.23 60.57 652.74 60.53
  Q 642.20 60.44 632.01 61.30
  C 622.73 62.08 609.50 63.64 606.12 73.87
  C 604.76 77.97 606.11 83.07 610.35 84.39
  Q 614.67 85.73 616.77 85.50
  C 627.96 84.28 636.01 83.22 645.21 83.93
  A 5.73 5.71 -21.0 0 1 648.67 85.46
  Z"
/>
<path fill="#090904" d="
  M 648.67 85.46
  A 5.73 5.71 -21.0 0 0 645.21 83.93
  C 636.01 83.22 627.96 84.28 616.77 85.50
  Q 614.67 85.73 610.35 84.39
  C 606.11 83.07 604.76 77.97 606.12 73.87
  C 609.50 63.64 622.73 62.08 632.01 61.30
  Q 642.20 60.44 652.74 60.53
  C 658.23 60.57 661.72 54.86 666.43 52.86
  C 683.80 45.48 701.40 50.18 712.30 65.59
  C 715.74 70.44 715.94 74.55 717.11 81.93
  C 717.76 86.05 719.88 88.79 723.35 91.55
  C 732.11 98.50 744.53 108.66 738.37 121.30
  C 736.19 125.77 730.16 128.44 725.22 126.89
  Q 721.15 125.61 718.51 122.95
  Q 715.88 120.30 707.06 110.49
  C 702.94 105.90 697.30 101.65 690.56 104.47
  Q 686.34 106.24 684.87 106.63
  Q 677.50 108.58 668.83 105.55
  C 661.56 103.02 656.60 98.84 652.86 92.27
  Q 652.81 92.19 649.03 85.96
  Q 648.81 85.59 648.67 85.46
  Z"
/>
<path fill="#79c245" d="
  M 540.36 88.87
  A 0.54 0.53 -72.7 0 1 540.77 89.66
  C 536.68 97.14 540.30 100.98 546.19 105.40
  C 551.82 109.63 559.38 113.85 566.03 116.81
  Q 598.15 131.15 609.73 135.52
  C 622.29 140.27 635.87 143.25 649.69 145.55
  C 658.54 147.03 666.07 149.40 674.69 152.85
  Q 685.95 157.36 688.98 158.41
  Q 727.87 171.88 768.24 174.22
  C 778.75 174.83 790.45 171.59 792.83 159.71
  A 0.44 0.44 0.0 0 1 793.46 159.41
  Q 809.82 167.65 827.94 178.32
  Q 831.83 180.62 835.40 183.12
  C 839.65 186.11 845.56 188.93 848.66 190.36
  Q 859.36 195.28 879.73 204.24
  Q 886.70 207.31 894.33 212.30
  Q 895.81 213.27 901.27 218.65
  C 908.85 226.13 911.31 237.78 911.56 247.73
  Q 912.15 271.07 912.90 284.76
  Q 913.27 291.66 911.71 299.00
  Q 906.15 325.10 901.70 340.72
  Q 898.49 351.97 890.07 375.85
  Q 889.07 378.69 888.32 385.02
  Q 885.90 405.52 883.79 423.50
  C 882.22 436.86 878.29 447.03 871.34 461.90
  Q 854.98 496.88 852.60 501.61
  C 848.36 510.06 844.40 518.19 839.35 526.81
  C 826.28 549.06 812.32 571.83 796.82 593.58
  Q 793.38 598.41 788.82 602.32
  Q 758.34 628.45 724.21 646.85
  C 716.90 650.79 707.65 654.83 700.53 658.25
  Q 681.93 667.21 668.56 672.56
  Q 658.81 676.47 647.76 678.72
  Q 603.83 687.69 562.54 692.54
  C 548.07 694.24 531.52 694.58 516.70 694.94
  Q 478.78 695.85 469.75 695.50
  Q 427.74 693.89 410.00 692.50
  Q 381.51 690.27 353.24 685.77
  C 327.12 681.61 302.50 670.77 278.39 660.33
  Q 262.14 653.29 247.31 643.44
  C 243.03 640.59 239.00 637.74 235.44 633.90
  Q 222.82 620.26 213.85 605.14
  C 209.57 597.93 205.45 589.01 201.32 581.65
  C 196.40 572.87 188.38 557.28 181.70 545.89
  C 174.40 533.44 164.77 517.67 157.97 503.48
  Q 147.64 481.94 140.32 461.75
  Q 137.23 453.21 137.12 439.95
  C 137.07 434.73 138.55 426.51 139.22 422.45
  C 140.60 414.00 140.20 407.88 140.21 396.50
  Q 140.21 381.34 141.50 368.75
  C 142.39 360.06 145.96 352.48 151.82 344.24
  C 158.05 335.50 163.85 325.42 170.49 315.97
  Q 188.80 289.88 210.27 267.19
  A 0.26 0.25 -40.6 0 1 210.67 267.22
  Q 213.39 271.30 216.83 274.72
  Q 227.25 285.04 239.64 293.06
  Q 245.19 296.64 248.19 297.26
  C 255.65 298.79 263.71 296.16 270.45 292.94
  C 284.54 286.19 297.16 279.85 309.49 272.23
  C 317.00 267.59 324.12 261.43 330.32 256.32
  Q 331.81 255.10 347.36 239.87
  C 365.30 222.29 381.47 202.81 395.59 182.61
  Q 405.73 168.09 412.61 154.38
  Q 418.03 143.57 419.73 137.24
  C 421.04 132.36 421.24 128.57 417.83 124.92
  Q 413.28 120.04 406.99 115.28
  A 0.46 0.46 0.0 0 1 407.07 114.49
  C 419.54 108.51 431.66 104.59 445.41 100.96
  Q 453.61 98.79 461.51 96.26
  C 469.03 93.85 477.35 90.17 485.39 89.05
  Q 502.16 86.72 518.75 87.55
  Q 536.13 88.42 540.36 88.87
  Z
  M 225.72 428.00
  A 0.73 0.73 0.0 0 1 225.56 426.80
  Q 231.90 421.23 233.33 419.60
  Q 235.02 417.68 234.37 416.07
  C 232.95 412.52 228.33 413.77 225.86 415.38
  Q 216.83 421.28 211.58 430.26
  Q 208.70 435.19 211.37 439.60
  C 213.41 442.98 216.64 440.77 218.17 438.18
  Q 219.28 436.29 220.13 434.35
  A 0.59 0.59 0.0 0 1 220.96 434.07
  Q 243.18 446.45 264.55 455.55
  A 3.80 3.76 77.3 0 1 265.55 456.19
  L 268.14 458.52
  A 4.01 3.52 78.5 0 0 268.76 458.99
  C 281.68 466.87 295.87 472.91 309.29 479.32
  C 319.23 484.07 328.67 487.58 338.37 492.62
  Q 355.02 501.26 371.69 511.05
  Q 385.78 519.33 409.89 529.81
  Q 419.40 533.95 435.11 539.03
  Q 452.54 544.66 460.78 546.71
  Q 477.49 550.87 501.10 554.33
  Q 529.19 558.45 557.67 562.56
  Q 569.55 564.28 576.34 564.61
  Q 588.08 565.18 595.13 565.81
  C 611.80 567.30 626.27 565.88 641.00 560.45
  C 658.61 553.95 673.76 546.49 687.27 533.77
  Q 705.98 516.16 723.68 492.21
  Q 726.45 488.47 751.41 455.30
  Q 764.05 438.51 771.37 427.21
  Q 787.87 401.76 803.54 373.29
  Q 805.78 369.22 808.97 362.71
  Q 809.58 361.48 810.05 359.05
  A 2.17 2.10 72.9 0 1 810.58 358.01
  Q 812.25 356.23 812.86 355.84
  Q 823.38 349.04 830.07 343.08
  Q 834.24 339.36 842.68 330.33
  C 850.86 321.57 862.44 305.97 867.78 299.67
  Q 869.75 297.35 874.26 291.88
  Q 876.30 289.41 886.93 274.66
  Q 890.89 269.17 891.80 267.81
  C 896.58 260.73 887.24 257.58 883.44 263.46
  Q 875.85 275.22 868.37 284.37
  Q 864.86 288.66 840.42 319.67
  C 824.74 339.57 803.72 352.58 780.63 363.12
  Q 764.68 370.41 713.85 391.35
  C 704.81 395.07 697.60 397.27 687.06 400.73
  Q 681.51 402.56 671.60 406.60
  Q 647.48 416.45 621.87 423.89
  Q 597.77 430.89 573.00 432.04
  Q 556.10 432.83 543.75 434.48
  C 506.38 439.47 459.25 448.20 427.61 452.84
  Q 418.79 454.14 413.25 454.29
  Q 403.69 454.55 392.07 453.95
  C 370.96 452.86 351.24 453.28 328.75 453.44
  Q 311.29 453.57 299.13 451.83
  Q 279.10 448.97 270.19 446.74
  Q 261.09 444.46 252.12 440.36
  Q 237.52 433.69 225.72 428.00
  Z
  M 591.43 623.22
  C 592.57 626.73 596.55 626.55 599.50 626.31
  Q 622.53 624.45 647.00 619.04
  Q 663.46 615.40 677.71 607.47
  Q 688.67 601.37 700.47 592.53
  C 718.96 578.68 735.80 564.85 750.42 548.68
  C 752.31 546.59 755.11 542.80 753.62 540.53
  A 2.59 2.59 0.0 0 0 750.82 539.44
  Q 747.68 540.23 745.46 542.45
  Q 725.32 562.58 704.73 577.96
  C 691.68 587.71 678.90 597.46 664.47 603.75
  Q 657.08 606.97 645.59 609.70
  Q 631.80 612.96 626.24 613.96
  Q 619.58 615.14 597.48 618.19
  Q 594.59 618.59 592.42 620.16
  A 2.73 2.73 0.0 0 0 591.43 623.22
  Z"
/>
<path fill="#fafafa" d="
  M 411.38 130.91
  A 1.63 1.61 29.8 0 1 411.79 132.38
  C 410.50 138.24 408.90 143.16 406.50 147.96
  Q 399.03 162.86 388.87 177.63
  Q 362.15 216.45 326.45 248.69
  Q 311.05 262.61 294.17 271.90
  Q 286.84 275.93 269.21 285.20
  Q 262.24 288.86 255.06 290.32
  C 250.21 291.31 244.87 286.92 241.22 284.52
  C 219.89 270.54 206.39 249.11 199.93 224.78
  C 190.07 187.61 209.87 152.44 238.10 129.57
  Q 264.33 108.33 297.26 103.54
  Q 307.02 102.11 330.09 101.32
  Q 350.42 100.62 362.26 103.41
  C 381.41 107.93 398.03 116.81 411.38 130.91
  Z
  M 299.40 208.12
  C 315.04 205.28 331.93 194.13 328.33 176.13
  C 327.83 173.62 327.38 170.13 328.35 168.59
  Q 332.37 162.24 339.53 158.78
  Q 349.62 153.90 353.04 152.05
  C 357.85 149.46 362.35 145.62 358.44 140.02
  Q 352.82 131.96 342.71 133.29
  C 332.01 134.69 323.46 141.86 316.36 145.59
  Q 313.36 147.16 311.50 147.04
  C 299.81 146.25 289.94 145.08 280.20 151.16
  C 271.12 156.83 263.57 167.46 262.61 178.10
  C 261.99 185.05 265.56 189.63 269.31 195.26
  C 270.89 197.62 270.91 199.65 270.03 202.28
  C 267.08 211.10 263.59 220.04 263.82 229.55
  Q 263.98 236.50 269.16 241.48
  C 273.29 245.46 278.61 246.34 283.22 243.14
  C 285.77 241.36 288.63 235.84 289.25 233.21
  Q 291.44 223.95 292.80 219.29
  C 294.07 214.91 295.81 208.77 299.40 208.12
  Z"
/>
<path fill="#090904" d="
  M 299.40 208.12
  C 295.81 208.77 294.07 214.91 292.80 219.29
  Q 291.44 223.95 289.25 233.21
  C 288.63 235.84 285.77 241.36 283.22 243.14
  C 278.61 246.34 273.29 245.46 269.16 241.48
  Q 263.98 236.50 263.82 229.55
  C 263.59 220.04 267.08 211.10 270.03 202.28
  C 270.91 199.65 270.89 197.62 269.31 195.26
  C 265.56 189.63 261.99 185.05 262.61 178.10
  C 263.57 167.46 271.12 156.83 280.20 151.16
  C 289.94 145.08 299.81 146.25 311.50 147.04
  Q 313.36 147.16 316.36 145.59
  C 323.46 141.86 332.01 134.69 342.71 133.29
  Q 352.82 131.96 358.44 140.02
  C 362.35 145.62 357.85 149.46 353.04 152.05
  Q 349.62 153.90 339.53 158.78
  Q 332.37 162.24 328.35 168.59
  C 327.38 170.13 327.83 173.62 328.33 176.13
  C 331.93 194.13 315.04 205.28 299.40 208.12
  Z"
/>
<path fill="#090904" d="
  M 225.72 428.00
  Q 237.52 433.69 252.12 440.36
  Q 261.09 444.46 270.19 446.74
  Q 279.10 448.97 299.13 451.83
  Q 311.29 453.57 328.75 453.44
  C 351.24 453.28 370.96 452.86 392.07 453.95
  Q 403.69 454.55 413.25 454.29
  Q 418.79 454.14 427.61 452.84
  C 459.25 448.20 506.38 439.47 543.75 434.48
  Q 556.10 432.83 573.00 432.04
  Q 597.77 430.89 621.87 423.89
  Q 647.48 416.45 671.60 406.60
  Q 681.51 402.56 687.06 400.73
  C 697.60 397.27 704.81 395.07 713.85 391.35
  Q 764.68 370.41 780.63 363.12
  C 803.72 352.58 824.74 339.57 840.42 319.67
  Q 864.86 288.66 868.37 284.37
  Q 875.85 275.22 883.44 263.46
  C 887.24 257.58 896.58 260.73 891.80 267.81
  Q 890.89 269.17 886.93 274.66
  Q 876.30 289.41 874.26 291.88
  Q 869.75 297.35 867.78 299.67
  C 862.44 305.97 850.86 321.57 842.68 330.33
  Q 834.24 339.36 830.07 343.08
  Q 823.38 349.04 812.86 355.84
  Q 812.25 356.23 810.58 358.01
  A 2.17 2.10 72.9 0 0 810.05 359.05
  Q 809.58 361.48 808.97 362.71
  Q 805.78 369.22 803.54 373.29
  Q 787.87 401.76 771.37 427.21
  Q 764.05 438.51 751.41 455.30
  Q 726.45 488.47 723.68 492.21
  Q 705.98 516.16 687.27 533.77
  C 673.76 546.49 658.61 553.95 641.00 560.45
  C 626.27 565.88 611.80 567.30 595.13 565.81
  Q 588.08 565.18 576.34 564.61
  Q 569.55 564.28 557.67 562.56
  Q 529.19 558.45 501.10 554.33
  Q 477.49 550.87 460.78 546.71
  Q 452.54 544.66 435.11 539.03
  Q 419.40 533.95 409.89 529.81
  Q 385.78 519.33 371.69 511.05
  Q 355.02 501.26 338.37 492.62
  C 328.67 487.58 319.23 484.07 309.29 479.32
  C 295.87 472.91 281.68 466.87 268.76 458.99
  A 4.01 3.52 78.5 0 1 268.14 458.52
  L 265.55 456.19
  A 3.80 3.76 77.3 0 0 264.55 455.55
  Q 243.18 446.45 220.96 434.07
  A 0.59 0.59 0.0 0 0 220.13 434.35
  Q 219.28 436.29 218.17 438.18
  C 216.64 440.77 213.41 442.98 211.37 439.60
  Q 208.70 435.19 211.58 430.26
  Q 216.83 421.28 225.86 415.38
  C 228.33 413.77 232.95 412.52 234.37 416.07
  Q 235.02 417.68 233.33 419.60
  Q 231.90 421.23 225.56 426.80
  A 0.73 0.73 0.0 0 0 225.72 428.00
  Z
  M 413.90 521.19
  L 421.35 524.66
  Q 449.13 535.48 474.36 540.65
  Q 483.74 542.57 509.76 547.05
  Q 522.01 549.15 530.77 550.12
  Q 543.44 551.51 551.84 552.92
  C 568.17 555.65 579.74 556.34 599.75 557.68
  Q 609.23 558.31 615.72 557.61
  C 626.06 556.48 638.84 552.95 649.40 547.95
  C 658.85 543.47 664.47 540.76 670.38 536.38
  Q 679.84 529.37 689.05 519.98
  L 693.72 514.61
  Q 703.22 505.01 705.99 501.23
  Q 718.12 484.69 727.88 472.07
  C 734.67 463.27 741.78 452.97 749.26 443.75
  Q 751.50 440.99 756.44 433.71
  C 771.11 412.07 785.13 388.35 798.13 365.15
  Q 798.39 364.69 798.37 364.47
  A 0.29 0.29 0.0 0 0 797.94 364.23
  Q 789.72 368.72 777.93 373.90
  Q 762.05 380.88 728.84 394.54
  Q 708.44 402.92 693.43 407.94
  Q 684.60 410.89 677.22 413.96
  C 653.50 423.83 629.25 431.62 604.65 436.86
  Q 590.86 439.79 573.20 440.85
  C 556.66 441.85 545.20 442.58 534.33 444.37
  Q 495.80 450.73 458.49 456.95
  Q 446.35 458.97 430.60 461.14
  C 414.00 463.42 399.65 462.56 384.32 461.74
  C 370.56 461.00 353.00 461.42 339.56 461.69
  C 322.77 462.04 306.79 461.10 292.00 459.28
  Q 289.00 458.91 286.72 459.10
  A 0.24 0.24 0.0 0 0 286.65 459.57
  C 293.38 462.10 303.57 467.61 310.44 470.46
  Q 318.34 473.75 327.81 477.98
  Q 336.02 481.65 358.26 493.15
  Q 362.86 495.53 368.23 499.01
  Q 372.48 501.77 378.26 504.77
  Q 393.22 512.54 407.90 519.31
  Q 410.94 520.71 413.90 521.19
  Z"
/>
<path fill="#77141d" d="
  M 693.72 514.61
  Q 692.26 512.25 689.86 509.88
  Q 682.02 502.14 676.88 498.61
  C 671.95 495.21 666.96 491.30 661.72 488.80
  Q 650.40 483.39 648.01 482.58
  Q 635.01 478.16 619.48 476.18
  Q 605.37 474.37 587.99 477.21
  C 574.65 479.40 562.51 481.98 549.82 482.09
  C 534.76 482.21 521.43 484.13 506.36 487.25
  C 492.52 490.11 480.47 492.44 469.14 496.15
  Q 456.46 500.31 441.83 506.08
  Q 425.92 512.36 413.90 521.19
  Q 410.94 520.71 407.90 519.31
  Q 393.22 512.54 378.26 504.77
  Q 372.48 501.77 368.23 499.01
  Q 362.86 495.53 358.26 493.15
  Q 336.02 481.65 327.81 477.98
  Q 318.34 473.75 310.44 470.46
  C 303.57 467.61 293.38 462.10 286.65 459.57
  A 0.24 0.24 0.0 0 1 286.72 459.10
  Q 289.00 458.91 292.00 459.28
  C 306.79 461.10 322.77 462.04 339.56 461.69
  C 353.00 461.42 370.56 461.00 384.32 461.74
  C 399.65 462.56 414.00 463.42 430.60 461.14
  Q 446.35 458.97 458.49 456.95
  Q 495.80 450.73 534.33 444.37
  C 545.20 442.58 556.66 441.85 573.20 440.85
  Q 590.86 439.79 604.65 436.86
  C 629.25 431.62 653.50 423.83 677.22 413.96
  Q 684.60 410.89 693.43 407.94
  Q 708.44 402.92 728.84 394.54
  Q 762.05 380.88 777.93 373.90
  Q 789.72 368.72 797.94 364.23
  A 0.29 0.29 0.0 0 1 798.37 364.47
  Q 798.39 364.69 798.13 365.15
  C 785.13 388.35 771.11 412.07 756.44 433.71
  Q 751.50 440.99 749.26 443.75
  C 741.78 452.97 734.67 463.27 727.88 472.07
  Q 718.12 484.69 705.99 501.23
  Q 703.22 505.01 693.72 514.61
  Z"
/>
<path fill="#190405" d="
  M 693.72 514.61
  L 689.05 519.98
  C 683.71 515.39 678.56 510.30 673.23 506.29
  Q 661.57 497.50 650.61 492.55
  Q 638.57 487.11 619.73 484.33
  Q 605.90 482.29 593.07 484.59
  Q 585.91 485.87 566.00 489.02
  Q 561.14 489.80 549.84 489.99
  C 537.50 490.20 524.99 491.71 515.29 493.79
  Q 493.30 498.49 488.19 499.71
  C 475.28 502.77 465.15 506.44 454.29 510.11
  C 442.86 513.98 432.17 519.22 421.35 524.66
  L 413.90 521.19
  Q 425.92 512.36 441.83 506.08
  Q 456.46 500.31 469.14 496.15
  C 480.47 492.44 492.52 490.11 506.36 487.25
  C 521.43 484.13 534.76 482.21 549.82 482.09
  C 562.51 481.98 574.65 479.40 587.99 477.21
  Q 605.37 474.37 619.48 476.18
  Q 635.01 478.16 648.01 482.58
  Q 650.40 483.39 661.72 488.80
  C 666.96 491.30 671.95 495.21 676.88 498.61
  Q 682.02 502.14 689.86 509.88
  Q 692.26 512.25 693.72 514.61
  Z"
/>
<path fill="#c2383c" d="
  M 689.05 519.98
  Q 679.84 529.37 670.38 536.38
  C 664.47 540.76 658.85 543.47 649.40 547.95
  C 638.84 552.95 626.06 556.48 615.72 557.61
  Q 609.23 558.31 599.75 557.68
  C 579.74 556.34 568.17 555.65 551.84 552.92
  Q 543.44 551.51 530.77 550.12
  Q 522.01 549.15 509.76 547.05
  Q 483.74 542.57 474.36 540.65
  Q 449.13 535.48 421.35 524.66
  C 432.17 519.22 442.86 513.98 454.29 510.11
  C 465.15 506.44 475.28 502.77 488.19 499.71
  Q 493.30 498.49 515.29 493.79
  C 524.99 491.71 537.50 490.20 549.84 489.99
  Q 561.14 489.80 566.00 489.02
  Q 585.91 485.87 593.07 484.59
  Q 605.90 482.29 619.73 484.33
  Q 638.57 487.11 650.61 492.55
  Q 661.57 497.50 673.23 506.29
  C 678.56 510.30 683.71 515.39 689.05 519.98
  Z"
/>
<path fill="#090904" d="
  M 591.43 623.22
  A 2.73 2.73 0.0 0 1 592.42 620.16
  Q 594.59 618.59 597.48 618.19
  Q 619.58 615.14 626.24 613.96
  Q 631.80 612.96 645.59 609.70
  Q 657.08 606.97 664.47 603.75
  C 678.90 597.46 691.68 587.71 704.73 577.96
  Q 725.32 562.58 745.46 542.45
  Q 747.68 540.23 750.82 539.44
  A 2.59 2.59 0.0 0 1 753.62 540.53
  C 755.11 542.80 752.31 546.59 750.42 548.68
  C 735.80 564.85 718.96 578.68 700.47 592.53
  Q 688.67 601.37 677.71 607.47
  Q 663.46 615.40 647.00 619.04
  Q 622.53 624.45 599.50 626.31
  C 596.55 626.55 592.57 626.73 591.43 623.22
  Z"
/>
<path fill="#f5d932" d="
  M 819.36 681.71
  Q 819.11 682.93 820.48 683.31
  Q 825.67 691.35 830.84 699.42
  C 842.99 718.34 856.95 736.21 869.05 755.23
  Q 884.42 779.38 896.17 799.29
  C 906.08 816.09 917.44 835.57 930.82 858.16
  A 0.33 0.32 -13.8 0 1 930.52 858.65
  Q 930.11 858.62 929.51 858.26
  Q 891.69 834.84 841.96 804.07
  Q 803.65 780.37 795.20 775.31
  Q 757.06 752.49 738.74 742.27
  C 734.24 739.77 731.25 737.74 728.05 737.50
  C 723.46 737.17 724.75 746.07 725.01 748.75
  Q 730.27 803.18 732.68 836.07
  C 735.42 873.62 740.36 912.27 740.02 950.63
  A 0.39 0.39 0.0 0 1 739.36 950.90
  Q 726.03 937.76 712.16 923.34
  Q 651.57 860.31 626.82 832.93
  Q 608.01 812.13 586.41 790.09
  Q 584.88 788.53 583.25 788.05
  C 580.08 787.12 578.48 789.91 577.43 792.40
  C 561.38 830.60 543.33 875.85 526.23 915.46
  Q 518.89 932.48 515.01 941.69
  C 509.62 954.47 505.03 965.94 499.11 976.61
  A 0.33 0.33 0.0 0 1 498.52 976.58
  Q 483.21 940.87 471.70 911.73
  C 465.88 896.98 460.16 883.81 454.12 869.31
  Q 431.68 815.50 418.71 787.56
  C 417.53 785.01 414.93 781.98 412.03 783.71
  Q 409.42 785.26 406.39 787.90
  C 390.16 802.02 376.49 815.72 359.29 832.71
  Q 337.52 854.21 328.09 863.16
  C 314.03 876.49 297.55 893.20 284.47 905.78
  Q 253.64 935.41 239.90 948.40
  Q 236.49 951.62 234.87 952.94
  A 0.57 0.57 0.0 0 1 233.94 952.48
  Q 234.82 931.60 237.65 910.50
  C 241.08 884.96 246.46 848.49 252.56 816.31
  C 257.01 792.78 261.83 769.55 266.86 746.47
  C 268.02 741.16 263.57 740.06 259.66 741.93
  Q 247.52 747.71 246.02 748.50
  Q 215.98 764.28 192.04 775.84
  C 152.03 795.15 115.03 814.12 75.76 834.02
  Q 69.26 837.32 57.57 842.69
  A 0.56 0.56 0.0 0 1 56.90 841.84
  Q 75.64 817.65 96.38 794.38
  Q 102.98 786.98 125.06 762.32
  Q 141.04 744.48 160.05 720.80
  Q 179.58 696.48 190.53 684.79
  C 191.99 683.23 193.28 680.57 191.50 678.68
  C 189.93 677.02 184.82 677.81 183.29 678.25
  Q 158.88 685.18 152.12 687.61
  Q 135.40 693.63 122.01 697.75
  Q 72.20 713.06 70.01 713.77
  Q 68.78 714.17 68.10 714.16
  A 0.37 0.37 0.0 0 1 67.91 713.48
  Q 94.96 696.57 121.10 676.58
  Q 142.89 659.93 165.91 641.17
  Q 177.57 631.67 192.63 621.38
  Q 199.91 616.40 207.35 612.83
  A 1.19 1.19 0.0 0 1 208.87 613.26
  Q 217.87 627.61 228.91 639.66
  Q 232.68 643.78 240.41 648.94
  Q 260.95 662.65 275.40 668.59
  Q 280.09 670.51 307.37 681.89
  Q 315.61 685.32 327.92 689.02
  Q 338.17 692.10 349.05 693.88
  Q 377.96 698.61 403.25 700.69
  C 436.33 703.42 471.37 705.09 506.75 704.03
  Q 540.24 703.02 542.99 702.90
  Q 557.60 702.27 577.89 699.39
  Q 613.04 694.39 635.94 690.14
  Q 653.77 686.83 665.75 683.00
  Q 673.91 680.40 687.54 674.02
  C 705.78 665.49 726.87 655.98 743.24 645.94
  Q 767.60 631.00 792.07 610.57
  C 796.32 607.02 800.13 602.77 803.24 598.78
  A 0.83 0.83 0.0 0 1 804.33 598.59
  Q 806.61 600.01 809.28 602.19
  C 824.73 614.82 842.85 632.37 854.47 642.86
  Q 867.70 654.82 876.70 663.50
  C 894.33 680.49 916.17 701.86 936.08 720.70
  A 0.16 0.16 0.0 0 1 935.90 720.96
  Q 915.93 710.96 901.97 703.21
  C 882.62 692.48 862.83 677.86 841.80 668.93
  Q 831.09 664.39 815.63 658.88
  Q 811.30 657.33 809.04 658.35
  A 2.93 2.92 -79.6 0 0 808.17 658.95
  C 806.40 660.78 806.69 662.66 808.20 664.83
  Q 814.01 673.16 819.36 681.71
  Z"
/>
<path fill="#c2383c" d="
  M 819.36 681.71
  Q 820.07 682.23 820.48 683.31
  Q 819.11 682.93 819.36 681.71
  Z"
/>
<path fill="#77141d" d="
  M 173.31 691.04
  Q 173.23 690.76 173.14 690.48
  Q 173.11 690.23 173.77 689.57
  A 0.51 0.51 0.0 0 1 174.65 689.90
  Q 174.71 690.92 173.31 691.04
  Z"
/>
<path fill="#090904" d="
  M 253.21 754.63
  A 0.29 0.28 53.1 0 1 253.28 754.07
  Q 253.55 754.05 253.65 754.22
  Q 253.77 754.42 253.58 754.60
  Q 253.44 754.73 253.21 754.63
  Z"
/>
<path fill="#090904" d="
  M 404.02 800.01
  Q 404.41 800.09 404.35 800.41
  A 0.19 0.19 0.0 0 1 404.01 800.49
  Q 403.89 800.32 404.02 800.01
  Z"
/>
<path fill="#090904" d="
  M 587.32 802.76
  Q 590.09 805.49 589.95 805.64
  Q 589.82 805.78 587.04 803.05
  Q 584.26 800.32 584.40 800.18
  Q 584.54 800.03 587.32 802.76
  Z"
/>
<path fill="#090904" d="
  M 372.05 831.14
  L 376.25 827.20
  A 0.25 0.23 -44.9 0 1 376.58 827.19
  A 0.27 0.26 51.4 0 1 376.55 827.53
  L 372.33 831.50
  A 0.18 0.18 0.0 0 1 372.03 831.43
  Q 371.98 831.30 372.05 831.14
  Z"
/>
<path fill="#090904" d="
  M 371.03 832.07
  L 371.37 831.98
  A 0.21 0.20 -30.7 0 1 371.56 832.02
  Q 371.90 832.34 371.25 832.61
  A 0.21 0.20 -5.5 0 1 370.97 832.38
  L 371.03 832.07
  Z"
/>
<path fill="#090904" d="
  M 505.64 982.30
  A 0.33 0.30 -53.1 0 1 505.03 982.42
  Q 504.98 982.25 505.29 982.14
  Q 505.68 981.99 505.64 982.30
  Z"
/>
</svg>
